if (_typeface_js && _typeface_js.loadFace) _typeface_js.loadFace({"glyphs":{"ᴴ":{"x_min":34,"x_max":571,"ha":605,"o":"m 571 321 l 435 321 l 435 616 l 170 616 l 170 321 l 34 321 l 34 995 l 170 995 l 170 729 l 435 729 l 435 995 l 571 995 l 571 321 "},"Ҿ":{"x_min":7,"x_max":1134,"ha":1190,"o":"m 1134 502 q 1126 415 1134 471 l 454 415 q 523 233 466 302 q 696 156 588 156 q 909 320 859 156 l 1108 274 q 961 53 1074 129 q 762 -14 877 -3 l 762 -184 l 636 -184 l 636 -14 q 362 126 466 5 q 247 415 265 239 q 7 611 7 415 q 31 771 7 693 l 164 745 q 154 657 154 699 q 178 595 154 612 q 245 582 198 582 q 454 948 269 832 q 692 1011 553 1011 q 949 929 849 1011 q 1134 502 1134 777 m 922 582 q 856 760 907 693 q 692 841 796 841 q 454 582 488 841 l 922 582 "},"ₑ":{"x_min":34,"x_max":488,"ha":522,"o":"m 360 209 q 335 287 358 256 q 264 323 309 323 q 192 289 218 323 q 168 211 168 258 q 168 209 168 210 l 360 209 m 488 130 l 165 130 q 192 45 166 78 q 270 9 220 9 q 353 79 332 9 l 481 57 q 269 -87 430 -87 q 92 -17 154 -87 q 34 163 34 47 q 89 343 34 273 q 256 421 149 421 q 488 130 488 421 "},"ȋ":{"x_min":-17,"x_max":406,"ha":386,"o":"m 100 0 l 100 721 l 291 721 l 291 0 l 100 0 m 406 814 l 313 814 q 194 912 303 912 q 76 814 85 912 l -17 814 q 47 958 -8 905 q 194 1012 102 1012 q 342 959 286 1012 q 406 814 397 906 "},"ۚ":{"x_min":-178,"x_max":177,"ha":0,"o":"m 74 967 l 33 894 l -40 934 l 0 1008 l 74 967 m 177 797 l 52 720 q -172 905 -172 720 q -61 1115 -172 1036 q -129 1103 -99 1115 q -178 1082 -140 1099 q -63 1203 -162 1203 q 44 1194 -81 1203 q 141 1191 96 1191 l 122 1112 q -131 939 -131 1080 q 75 808 -131 808 q 170 812 104 808 l 177 797 "},"׃":{"x_min":136,"x_max":327,"ha":463,"o":"m 136 529 l 136 720 l 327 720 l 327 529 l 136 529 m 136 0 l 136 191 l 327 191 l 327 0 l 136 0 "},"ݡ":{"x_min":32,"x_max":1085,"ha":1053,"o":"m 1053 199 l 962 199 q 692 193 843 199 q 456 183 601 190 q 300 177 311 177 q 91 227 156 177 q 32 374 32 275 q 46 509 32 452 q 116 696 61 567 l 161 675 q 112 506 112 559 q 166 405 112 436 q 377 372 227 372 q 579 382 481 378 q 767 387 677 387 q 729 417 740 400 q 719 465 719 433 q 778 658 719 562 q 918 762 842 762 q 1023 661 991 762 q 1053 383 1053 571 l 1053 199 m 947 470 q 907 557 923 536 q 866 578 891 578 q 843 568 853 578 q 834 542 834 558 q 863 503 834 521 q 947 470 892 485 m 954 83 l 886 -57 l 759 10 l 828 149 l 954 83 m 1085 -76 l 1010 -215 l 915 -160 l 860 -268 l 735 -198 l 805 -67 l 905 -117 l 961 -7 l 1085 -76 "},"Ƹ":{"x_min":60,"x_max":809,"ha":848,"o":"m 809 -31 q 673 -228 779 -159 q 433 -292 574 -292 q 161 -171 266 -292 q 60 110 60 -57 q 194 441 60 334 q 372 515 268 498 l 81 839 l 81 995 l 809 995 l 809 827 l 318 827 l 601 515 l 601 365 l 466 365 q 303 284 361 365 q 256 124 256 217 q 298 -47 256 26 q 442 -137 349 -137 q 559 -98 508 -137 q 622 0 610 -59 l 809 -31 "},"ˌ":{"x_min":196,"x_max":267,"ha":463,"o":"m 267 -276 l 196 -276 l 196 -51 l 267 -51 l 267 -276 "},"ڣ":{"x_min":32,"x_max":1053,"ha":1053,"o":"m 1053 199 l 962 199 q 692 193 843 199 q 456 183 601 190 q 300 177 311 177 q 91 227 156 177 q 32 374 32 275 q 46 509 32 452 q 116 696 61 567 l 161 675 q 112 506 112 559 q 166 405 112 436 q 377 372 227 372 q 579 382 481 378 q 767 387 677 387 q 729 417 740 400 q 719 465 719 433 q 778 658 719 562 q 918 762 842 762 q 1023 661 991 762 q 1053 383 1053 571 l 1053 199 m 947 470 q 907 557 923 536 q 866 578 891 578 q 843 568 853 578 q 834 542 834 558 q 863 503 834 521 q 947 470 892 485 m 716 64 l 634 -87 l 475 -4 l 557 149 l 716 64 m 1000 998 l 918 847 l 759 929 l 841 1083 l 1000 998 "},"˂":{"x_min":64,"x_max":746,"ha":811,"o":"m 746 113 l 64 409 l 64 573 l 746 869 l 746 676 l 270 493 l 746 305 l 746 113 "},"ط":{"x_min":-47,"x_max":727,"ha":727,"o":"m 727 199 l -47 199 l -47 383 l 42 383 q 134 439 59 383 q 207 496 159 457 q 200 637 207 579 q 181 757 194 695 q 144 905 177 772 l 105 929 q 130 1031 120 1000 q 170 1129 141 1062 l 201 1116 q 198 1099 201 1112 q 265 1043 198 1075 q 333 1015 288 1032 q 311 916 326 962 q 284 844 304 893 l 260 852 q 287 709 280 755 q 295 628 295 664 l 295 620 q 293 589 295 600 q 288 554 292 578 q 359 606 323 580 q 457 668 414 645 q 544 700 514 700 q 672 658 624 700 q 727 523 727 611 l 727 199 m 632 452 q 581 497 632 476 q 493 518 531 518 q 393 489 449 518 q 231 383 337 460 l 408 383 q 632 452 632 383 "},"Ԓ":{"x_min":21,"x_max":869,"ha":975,"o":"m 869 21 q 833 -200 869 -130 q 637 -292 787 -292 q 508 -271 584 -292 l 542 -108 q 589 -115 572 -115 q 663 -64 649 -115 q 668 34 668 -47 l 668 827 l 369 827 l 369 402 q 365 208 369 241 q 297 34 352 82 q 149 -6 250 -6 q 21 0 114 -6 l 21 155 l 65 155 q 71 155 68 155 q 152 174 133 155 q 172 255 172 193 l 172 995 l 869 995 l 869 21 "},"ϼ":{"x_min":7,"x_max":806,"ha":859,"o":"m 611 361 q 574 513 611 456 q 441 582 530 582 q 271 338 271 582 q 312 199 271 253 q 439 139 357 139 q 571 211 524 139 q 611 361 611 272 m 806 353 q 711 95 806 202 q 463 -16 612 -16 q 271 44 367 -16 l 271 -71 l 478 -71 l 478 -198 l 271 -198 l 271 -274 l 80 -274 l 80 -198 l 7 -198 l 7 -71 l 80 -71 l 80 293 q 103 509 80 430 q 225 682 136 622 q 425 737 307 737 q 699 629 592 737 q 806 353 806 521 "},"ȡ":{"x_min":57,"x_max":1156,"ha":1163,"o":"m 1156 -77 q 1097 -226 1156 -168 q 909 -292 1031 -292 q 707 -226 799 -292 q 660 -292 689 -249 l 528 -193 q 602 -98 558 -151 q 569 82 569 -28 l 569 99 q 357 -16 487 -16 q 129 105 212 -16 q 57 363 57 211 q 127 622 57 522 q 360 737 208 737 q 569 636 480 737 l 569 995 l 760 995 l 760 54 q 936 143 844 143 q 1101 77 1041 143 q 1156 -77 1156 16 m 993 -78 q 931 -22 993 -22 q 829 -97 896 -22 q 918 -137 873 -137 q 993 -78 993 -137 m 570 357 q 411 591 570 591 q 286 521 329 591 q 252 376 252 464 q 283 209 252 261 q 412 135 329 135 q 536 209 494 135 q 570 357 570 269 "},"◦":{"x_min":52.21875,"x_max":439.484375,"ha":492,"o":"m 246 652 q 383 595 326 652 q 439 458 439 539 q 382 321 439 378 q 246 264 326 264 q 108 321 165 264 q 52 458 52 378 q 108 595 52 539 q 246 652 164 652 m 246 600 q 145 559 186 600 q 103 458 103 517 q 145 357 103 399 q 246 316 187 316 q 346 357 305 316 q 388 458 388 399 q 346 559 388 517 q 246 600 305 600 "},"ņ":{"x_min":98,"x_max":754,"ha":848,"o":"m 754 0 l 563 0 l 563 367 q 550 518 563 484 q 511 572 538 553 q 445 591 484 591 q 357 563 396 591 q 303 491 318 536 q 289 326 289 447 l 289 0 l 98 0 l 98 721 l 275 721 l 275 615 q 512 737 369 737 q 627 714 575 737 q 706 656 679 691 q 743 576 733 620 q 754 447 754 531 l 754 0 m 319 -18 q 394 -14 358 -14 q 588 -137 588 -14 q 524 -245 588 -204 q 333 -286 460 -286 q 218 -275 275 -286 l 218 -193 q 327 -201 273 -201 q 456 -142 456 -201 q 355 -97 456 -97 q 319 -99 339 -97 l 319 -18 "},"ỳ":{"x_min":10,"x_max":751,"ha":773,"o":"m 10 721 l 213 721 l 385 209 l 554 721 l 751 721 l 496 26 l 451 -98 q 403 -194 426 -161 q 351 -248 380 -227 q 278 -280 321 -268 q 180 -292 235 -292 q 73 -280 125 -292 l 56 -131 q 136 -140 100 -140 q 235 -101 203 -140 q 284 -2 267 -62 l 10 721 m 489 814 l 370 814 l 182 1017 l 395 1017 l 489 814 "},"қ":{"x_min":92,"x_max":695,"ha":695,"o":"m 695 -190 l 541 -190 l 541 0 l 490 0 l 396 208 q 355 279 371 262 q 283 307 330 307 l 283 0 l 92 0 l 92 720 l 283 720 l 283 426 q 360 470 335 432 q 397 558 373 488 q 463 681 428 647 q 590 724 506 724 q 666 721 612 724 l 666 595 q 570 579 592 595 q 525 492 549 563 q 429 369 492 392 q 581 213 519 344 q 589 198 584 206 l 614 154 l 695 154 l 695 -190 "},"ͅ":{"x_min":-95,"x_max":96,"ha":0,"o":"m 96 -276 l -95 -276 l -60 -86 l 61 -86 l 96 -276 "},"ѕ":{"x_min":33,"x_max":706,"ha":773,"o":"m 33 206 l 224 235 q 273 150 236 179 q 378 122 311 122 q 489 149 452 122 q 515 199 515 168 q 501 235 515 221 q 437 261 487 249 q 144 353 206 311 q 59 515 59 412 q 133 673 59 609 q 362 737 207 737 q 582 688 510 737 q 682 546 654 640 l 502 513 q 458 577 490 555 q 365 600 425 600 q 257 578 290 600 q 236 540 236 564 q 255 505 236 519 q 433 452 280 486 q 646 367 585 417 q 706 225 706 316 q 623 55 706 126 q 378 -16 540 -16 q 145 43 231 -16 q 33 206 59 103 "},"Ḏ":{"x_min":100,"x_max":934,"ha":1003,"o":"m 100 995 l 467 995 q 656 976 591 995 q 806 884 743 950 q 901 723 868 818 q 934 488 934 627 q 903 276 934 365 q 796 100 866 167 q 655 21 744 49 q 477 0 589 0 l 100 0 l 100 995 m 301 827 l 301 168 l 451 168 q 572 177 535 168 q 653 218 621 189 q 706 314 686 248 q 727 497 727 381 q 706 674 727 612 q 649 770 686 736 q 556 817 612 805 q 391 827 514 827 l 301 827 m 667 -202 l 230 -202 l 230 -77 l 667 -77 l 667 -202 "},"ښ":{"x_min":43,"x_max":1249,"ha":1249,"o":"m 1249 200 q 1142 206 1174 200 q 1023 244 1110 213 q 953 207 984 216 q 860 199 922 199 l 750 199 q 649 -27 750 41 q 386 -88 562 -88 q 132 -28 221 -88 q 43 142 43 31 q 71 314 43 236 q 193 538 102 400 l 234 509 q 146 343 167 395 q 126 237 126 292 q 202 121 126 166 q 402 76 278 76 q 607 122 524 76 q 691 237 691 169 q 676 320 691 279 q 614 452 661 361 l 673 636 q 737 501 721 554 q 751 383 751 455 l 813 383 q 955 407 915 383 q 996 493 996 431 q 1001 533 996 520 q 1025 559 1006 546 l 1057 582 q 1059 547 1058 569 q 1060 518 1060 525 q 1049 420 1060 481 q 1111 401 1080 409 q 1171 389 1143 393 q 1154 448 1171 413 q 1137 494 1137 483 q 1139 509 1137 502 q 1150 529 1141 517 l 1214 620 q 1241 542 1233 577 q 1249 455 1249 507 l 1249 200 m 1020 796 l 938 645 l 779 727 l 861 881 l 1020 796 m 1122 64 l 1040 -87 l 881 -4 l 963 149 l 1122 64 "},"ŭ":{"x_min":96,"x_max":750,"ha":848,"o":"m 573 0 l 573 107 q 469 17 533 50 q 334 -16 405 -16 q 204 15 262 -16 q 121 105 147 47 q 96 264 96 163 l 96 721 l 287 721 l 287 390 q 297 204 287 238 q 335 149 307 169 q 405 130 363 130 q 492 156 453 130 q 544 223 530 183 q 559 417 559 262 l 559 721 l 750 721 l 750 0 l 573 0 m 542 1012 l 635 1012 q 570 866 626 919 q 423 814 513 814 q 276 866 333 814 q 211 1012 220 919 l 304 1012 q 338 938 309 963 q 423 914 367 914 q 508 938 479 914 q 542 1012 537 963 "},"ﺴ":{"x_min":-47,"x_max":845,"ha":845,"o":"m 845 199 q 718 209 768 199 q 619 244 668 220 q 549 207 580 216 q 457 199 518 199 l 346 199 q 274 222 301 199 q 227 301 248 246 q 144 219 190 244 q 49 199 104 199 l -47 199 l -47 383 l 49 383 q 168 423 120 383 q 230 582 230 475 l 275 575 q 272 525 273 553 q 270 463 270 497 q 294 406 270 429 q 348 383 318 383 l 431 383 q 549 406 514 383 q 592 510 592 433 q 602 539 592 526 q 627 561 608 546 l 653 582 q 655 547 654 569 q 656 518 656 525 q 645 419 656 481 q 701 398 670 407 q 767 385 732 389 q 750 444 767 408 q 733 494 733 481 q 737 521 733 511 q 752 542 739 524 l 810 620 q 837 542 829 577 q 845 455 845 507 l 845 199 "},"שּׂ":{"x_min":61,"x_max":938,"ha":992,"o":"m 285 254 q 354 160 299 198 q 479 123 410 123 q 655 193 595 123 q 731 455 716 263 l 751 720 l 938 720 l 914 444 q 859 185 899 269 q 724 41 818 102 q 482 -20 629 -20 q 180 103 292 -20 q 69 476 69 227 l 61 720 l 250 720 l 251 529 q 256 419 252 491 q 258 375 258 387 q 339 397 304 375 q 385 458 374 420 q 401 591 396 496 l 408 720 l 592 720 l 582 542 q 569 433 578 472 q 531 356 560 395 q 442 289 502 317 q 285 254 382 262 m 608 364 q 636 356 624 364 q 657 335 649 348 q 665 307 665 323 q 658 279 665 292 q 638 258 651 266 q 608 250 625 250 q 580 256 593 250 q 559 276 567 262 q 551 307 551 289 q 558 335 551 323 q 578 356 565 348 q 608 364 591 364 m 154 916 q 196 898 181 916 q 211 858 211 880 q 202 829 210 842 q 182 810 195 817 q 154 802 170 802 q 113 818 129 802 q 97 858 97 835 q 113 899 97 883 q 154 916 129 916 "},"ɭ":{"x_min":100,"x_max":450,"ha":386,"o":"m 450 -271 q 317 -292 374 -292 q 118 -171 156 -292 q 100 20 100 -113 l 100 995 l 291 995 l 291 34 q 297 -72 291 -54 q 369 -115 311 -115 q 416 -108 386 -115 l 450 -271 "},"ﺽ":{"x_min":43,"x_max":1476,"ha":1476,"o":"m 1124 926 l 1042 775 l 883 857 l 965 1011 l 1124 926 m 1476 199 l 750 199 q 649 -28 750 40 q 386 -88 563 -88 q 132 -28 221 -88 q 43 142 43 31 q 71 314 43 236 q 193 538 102 400 l 234 509 q 146 343 167 395 q 126 237 126 292 q 202 121 126 166 q 402 76 278 76 q 607 122 524 76 q 691 237 691 169 q 676 320 691 279 q 614 452 661 361 l 673 636 q 715 553 710 564 q 743 475 735 511 q 751 383 751 439 q 831 405 795 383 q 898 452 835 408 l 1141 626 q 1226 681 1198 666 q 1306 700 1266 700 q 1425 646 1382 700 q 1476 458 1476 584 l 1476 199 m 1386 452 q 1343 498 1386 478 q 1242 518 1301 518 q 1142 489 1198 518 q 979 383 1086 460 l 1157 383 q 1386 452 1386 383 "},"۰":{"x_min":266,"x_max":501,"ha":780,"o":"m 501 501 q 474 394 478 412 q 452 286 465 357 q 353 343 384 322 q 266 412 321 364 q 293 522 285 496 q 329 635 305 564 q 414 564 389 583 q 501 501 443 541 "},"︢":{"x_min":-118,"x_max":419,"ha":0,"o":"m 419 864 q 141 915 219 915 q -7 817 38 915 l -118 817 q -18 967 -94 907 q 149 1028 56 1028 q 419 984 241 1028 l 419 864 "},"ἣ":{"x_min":96,"x_max":753,"ha":848,"o":"m 753 -274 l 562 -274 l 562 367 q 554 503 562 464 q 517 566 546 542 q 444 591 488 591 q 350 560 390 591 q 298 482 310 529 q 287 326 287 434 l 287 0 l 96 0 l 96 721 l 273 721 l 273 615 q 511 737 367 737 q 652 701 594 737 q 731 609 710 665 q 753 447 753 553 l 753 -274 m 666 899 l 547 899 l 359 1102 l 572 1102 l 666 899 m 350 876 l 317 814 q 212 886 241 845 q 184 1007 184 926 l 184 1102 l 340 1102 l 340 972 l 268 972 q 289 909 268 930 q 350 876 304 895 "},"ۉ":{"x_min":4,"x_max":627,"ha":627,"o":"m 627 245 q 527 14 627 128 q 332 -99 428 -99 q 209 -63 276 -99 q 4 78 142 -27 l 32 118 q 152 52 105 68 q 240 39 191 39 q 370 75 306 39 q 528 216 446 119 q 480 212 499 212 q 374 255 413 212 q 335 374 335 299 q 381 570 335 476 q 497 673 432 673 q 589 599 551 673 q 627 420 627 525 l 627 245 m 546 384 q 468 493 527 493 q 435 476 448 493 q 423 440 423 459 q 449 399 423 415 q 520 384 476 384 l 546 384 m 585 769 l 506 769 l 460 850 l 415 769 l 336 769 l 428 925 l 492 925 l 585 769 "},"ٙ":{"x_min":-134,"x_max":133,"ha":0,"o":"m 133 925 q 77 882 122 897 q 20 882 56 882 l -134 882 q -85 925 -122 911 q -52 925 -72 925 l 133 925 "},"ﭬ":{"x_min":-47,"x_max":423,"ha":423,"o":"m 423 199 l -47 199 l -47 383 l 359 383 q 355 466 359 441 q 333 533 350 505 q 274 469 311 491 q 196 447 238 447 q 105 482 142 447 q 68 573 68 518 q 116 763 68 653 q 225 884 170 884 q 359 760 296 884 q 423 497 423 636 l 423 199 m 275 654 q 243 698 257 686 q 212 711 229 711 q 176 692 192 711 q 160 650 160 674 q 172 624 160 634 q 204 614 185 614 q 236 623 220 614 q 275 654 252 632 m 195 1101 l 156 1036 l 68 1060 l 104 1126 l 195 1101 m 314 1067 l 275 1002 l 187 1026 l 223 1092 l 314 1067 m 167 1008 l 128 943 l 40 967 l 76 1033 l 167 1008 "},"ԋ":{"x_min":92,"x_max":1205,"ha":1285,"o":"m 1205 381 q 1182 183 1205 255 q 1064 30 1150 81 q 883 -16 987 -16 q 607 101 688 -16 q 556 286 556 176 l 556 303 l 283 303 l 283 0 l 92 0 l 92 721 l 283 721 l 283 457 l 556 457 l 556 721 l 747 721 l 747 349 q 767 207 747 253 q 880 139 797 139 q 993 208 963 139 q 1014 351 1014 254 l 1014 456 l 1205 456 l 1205 381 "},"Ɲ":{"x_min":-56,"x_max":892,"ha":1003,"o":"m 892 0 l 691 0 l 289 652 l 289 22 q 257 -200 289 -136 q 72 -292 211 -292 q -56 -271 19 -292 l -22 -108 q 24 -115 7 -115 q 98 -64 84 -115 q 103 33 103 -47 l 103 995 l 298 995 l 706 328 l 706 995 l 892 995 l 892 0 "},"ﻯ":{"x_min":102,"x_max":798,"ha":895,"o":"m 798 528 q 790 466 798 490 q 758 402 783 442 q 727 464 740 449 q 691 479 715 479 q 590 437 654 479 q 527 367 527 396 q 552 347 527 353 q 609 343 571 343 q 629 343 619 343 q 649 343 639 343 q 747 328 723 343 q 769 278 769 315 q 741 138 769 205 q 643 17 707 53 q 475 -55 562 -27 q 313 -83 388 -83 q 102 106 102 -83 q 125 270 102 201 q 237 480 152 347 l 269 459 q 193 309 218 374 q 168 193 168 243 q 312 66 168 66 q 415 75 366 66 q 514 102 464 85 q 589 132 547 114 q 660 164 656 162 q 691 192 691 180 q 658 201 691 199 q 611 203 625 203 q 472 232 507 203 q 444 322 444 257 q 464 401 444 354 q 516 495 484 448 q 615 603 566 566 q 712 640 665 640 q 774 609 751 640 q 798 528 798 578 "},"ﮦ":{"x_min":60,"x_max":422,"ha":476,"o":"m 422 452 q 415 370 422 412 q 398 302 409 328 q 305 211 379 250 q 175 175 236 175 q 91 211 122 175 q 60 309 60 248 q 75 418 60 364 q 133 553 91 472 l 109 569 q 140 645 120 600 q 175 720 159 689 l 241 680 q 324 623 285 654 q 401 544 380 581 q 422 452 422 507 m 322 398 q 274 452 322 411 q 181 522 227 493 q 138 408 138 453 q 156 370 138 386 q 199 355 174 355 q 277 370 233 355 q 322 398 322 386 "},"ɏ":{"x_min":10,"x_max":751,"ha":773,"o":"m 751 397 l 632 397 l 451 -98 q 351 -247 412 -203 q 181 -292 289 -292 q 72 -280 125 -292 l 56 -131 q 136 -140 100 -140 q 284 -2 245 -140 l 132 397 l 10 397 l 10 524 l 84 524 l 10 721 l 212 721 l 279 524 l 488 524 l 552 721 l 751 721 l 678 524 l 751 524 l 751 397 m 446 397 l 322 397 l 385 209 l 446 397 "},"k":{"x_min":93,"x_max":759.5,"ha":773,"o":"m 93 0 l 93 995 l 284 995 l 284 467 l 506 721 l 741 721 l 495 457 l 759 0 l 553 0 l 372 323 l 284 230 l 284 0 l 93 0 "},"ȇ":{"x_min":44,"x_max":717.171875,"ha":773,"o":"m 517 229 l 707 197 q 591 38 670 92 q 393 -16 512 -16 q 115 106 205 -16 q 44 355 44 205 q 137 635 44 534 q 374 737 231 737 q 628 630 535 737 q 717 305 721 524 l 239 305 q 285 173 241 220 q 395 126 329 126 q 470 150 440 126 q 517 229 501 174 m 528 422 q 485 547 525 504 q 385 591 444 591 q 282 545 323 591 q 242 422 241 500 l 528 422 m 597 814 l 504 814 q 385 912 494 912 q 267 814 276 912 l 174 814 q 238 958 182 905 q 385 1012 293 1012 q 533 959 477 1012 q 597 814 588 906 "},"ί":{"x_min":98,"x_max":405,"ha":386,"o":"m 100 0 l 100 721 l 291 721 l 291 0 l 100 0 m 98 814 l 192 1017 l 405 1017 l 219 814 l 98 814 "},"Ù":{"x_min":100,"x_max":892,"ha":1003,"o":"m 100 995 l 301 995 l 301 456 q 308 290 301 328 q 369 191 321 228 q 501 155 417 155 q 630 189 586 155 q 682 275 673 224 q 691 444 691 326 l 691 995 l 892 995 l 892 472 q 875 219 892 293 q 815 94 859 145 q 698 13 772 43 q 507 -17 625 -17 q 292 15 365 -17 q 175 101 218 48 q 119 211 133 154 q 100 464 100 297 l 100 995 m 614 1085 l 495 1085 l 307 1288 l 520 1288 l 614 1085 "},"ᵗ":{"x_min":6,"x_max":294,"ha":301,"o":"m 294 329 q 192 311 249 311 q 87 352 117 311 q 70 402 75 369 q 66 492 66 426 l 66 704 l 6 704 l 6 808 l 66 808 l 66 904 l 195 980 l 195 808 l 283 808 l 283 704 l 195 704 l 195 508 q 209 423 195 433 q 230 417 218 417 q 282 429 249 417 l 294 329 "},"ὓ":{"x_min":80,"x_max":728,"ha":808,"o":"m 80 721 l 271 721 l 271 351 q 308 179 271 219 q 404 139 345 139 q 504 185 472 139 q 537 351 537 232 l 537 721 l 728 721 l 728 382 q 696 156 728 237 q 587 30 664 76 q 406 -16 511 -16 q 217 32 294 -16 q 110 160 140 80 q 80 382 80 240 l 80 721 m 645 899 l 526 899 l 338 1102 l 551 1102 l 645 899 m 329 876 l 296 814 q 191 886 220 845 q 163 1007 163 926 l 163 1102 l 319 1102 l 319 972 l 247 972 q 268 909 247 930 q 329 876 283 895 "},"Ҷ":{"x_min":85,"x_max":953,"ha":976,"o":"m 953 -217 l 786 -217 l 786 0 l 669 0 l 669 399 q 433 345 545 345 q 85 658 85 345 l 85 995 l 286 995 l 286 756 q 288 636 286 653 q 344 537 298 568 q 468 510 386 510 q 669 564 595 510 l 669 995 l 870 995 l 870 167 l 953 167 l 953 -217 "},"ﭏ":{"x_min":44,"x_max":825,"ha":843,"o":"m 208 556 l 44 556 l 44 995 l 234 995 l 234 720 l 317 720 l 525 425 q 588 601 577 464 l 598 720 l 775 720 l 766 632 q 714 415 752 480 q 609 306 675 350 l 825 0 l 600 0 l 350 355 q 290 143 302 308 l 280 0 l 96 0 l 109 152 q 162 375 123 308 q 261 481 201 443 l 208 556 "},"ﮮ":{"x_min":48.125,"x_max":1128,"ha":1128,"o":"m 1128 129 l 956 -35 l 163 -35 q 67 -25 84 -35 q 48 7 49 -14 q 65 179 46 67 q 105 322 84 294 q 211 390 118 339 q 332 455 252 412 q 455 576 360 471 q 495 623 475 599 q 548 652 524 652 q 608 493 608 652 q 601 383 608 414 q 518 468 560 468 q 401 360 463 468 q 356 296 386 331 q 219 225 323 278 q 138 168 138 183 q 201 149 138 149 l 1128 149 l 1128 129 "},"Ẹ":{"x_min":102,"x_max":857,"ha":926,"o":"m 102 0 l 102 995 l 838 995 l 838 827 l 303 827 l 303 606 l 801 606 l 801 438 l 303 438 l 303 168 l 857 168 l 857 0 l 102 0 m 398 -272 l 398 -81 l 589 -81 l 589 -272 l 398 -272 "},"≠":{"x_min":33,"x_max":728,"ha":762,"o":"m 285 428 l 332 553 l 33 553 l 33 728 l 397 728 l 497 998 l 640 998 l 539 728 l 728 728 l 728 553 l 473 553 l 427 428 l 728 428 l 728 252 l 361 252 l 260 -17 l 120 -17 l 220 252 l 33 252 l 33 428 l 285 428 "},"ƀ":{"x_min":19,"x_max":794,"ha":848,"o":"m 794 367 q 723 106 794 211 q 493 -16 642 -16 q 269 106 356 -16 l 269 0 l 92 0 l 92 797 l 19 797 l 19 924 l 92 924 l 92 995 l 283 995 l 283 924 l 490 924 l 490 797 l 283 797 l 283 636 q 491 737 370 737 q 722 624 641 737 q 794 367 794 524 m 599 358 q 440 591 599 591 q 315 521 357 591 q 282 376 282 465 q 317 210 282 264 q 447 135 366 135 q 568 210 528 135 q 599 358 599 269 "},"ɼ":{"x_min":92,"x_max":559,"ha":541,"o":"m 559 701 l 500 534 q 410 566 451 566 q 299 464 327 566 q 283 222 283 405 l 283 -274 l 92 -274 l 92 721 l 269 721 l 269 618 q 335 702 305 677 q 433 737 376 737 q 559 701 498 737 "},"ﺢ":{"x_min":33,"x_max":782,"ha":776,"o":"m 776 199 l 670 199 q 507 233 550 199 q 464 363 464 268 q 469 445 464 406 q 480 509 471 459 q 230 385 325 473 q 133 179 133 294 q 249 -29 133 43 q 585 -103 365 -103 q 769 -91 649 -103 l 782 -113 l 524 -277 l 458 -279 q 152 -178 260 -279 q 45 108 45 -77 q 109 370 45 250 q 275 546 174 491 l 260 546 q 156 534 197 546 q 33 480 115 522 q 279 732 63 732 q 375 724 304 732 q 500 712 445 716 q 703 705 603 705 l 662 541 q 593 536 622 541 q 525 522 555 528 q 521 492 523 509 q 520 467 520 476 q 551 401 520 419 q 669 383 583 383 l 776 383 l 776 199 "},"╤":{"x_min":-15.59375,"x_max":999.015625,"ha":984,"o":"m 999 491 l -15 491 l -15 609 l 999 609 l 999 491 m 432 233 l -15 233 l -15 352 l 999 352 l 999 233 l 550 233 l 550 -421 l 432 -421 l 432 233 "},"ᵸ":{"x_min":34,"x_max":476,"ha":510,"o":"m 476 321 l 347 321 l 347 526 l 163 526 l 163 321 l 34 321 l 34 808 l 163 808 l 163 630 l 347 630 l 347 808 l 476 808 l 476 321 "},"ﻌ":{"x_min":-47,"x_max":501,"ha":501,"o":"m 501 199 l 400 199 q 306 220 347 199 q 240 290 265 242 q 125 213 196 236 q 24 199 79 199 l -47 199 l -47 383 l 24 383 q 103 388 80 383 q 164 414 125 394 q 129 472 144 454 q 91 493 111 493 q 77 488 83 493 q 63 469 71 483 l 33 473 q 75 648 33 595 q 209 701 117 701 q 357 664 303 701 q 411 562 411 627 q 396 496 411 528 q 343 410 382 464 q 369 390 352 397 q 400 383 385 383 l 501 383 l 501 199 "},"ﮔ":{"x_min":-47,"x_max":501,"ha":501,"o":"m 501 199 l -47 199 l -47 383 l 393 383 q 341 438 366 414 q 286 484 321 457 q 210 544 248 514 l 188 520 q 116 592 128 579 q 83 681 83 631 q 92 777 83 749 q 150 847 106 816 q 234 896 189 874 q 327 938 269 914 q 442 983 354 949 l 442 822 q 385 804 438 822 q 279 766 318 782 q 223 731 223 743 q 271 678 223 725 q 381 562 336 615 q 501 388 455 474 l 501 199 m 442 1198 l 442 1047 q 189 942 296 993 q 34 858 91 896 l 34 962 q 114 1024 57 985 q 257 1110 182 1070 q 442 1198 350 1161 "},"ϴ":{"x_min":58,"x_max":1022,"ha":1080,"o":"m 1022 495 q 903 131 1022 270 q 555 -17 776 -17 q 119 216 243 -17 q 58 490 58 332 q 177 865 58 728 q 538 1011 304 1011 q 897 866 769 1011 q 1022 495 1022 728 m 809 581 q 540 839 775 839 q 352 766 423 839 q 270 581 285 699 l 809 581 m 809 413 l 270 413 q 344 239 285 301 q 540 155 424 155 q 735 238 655 155 q 809 413 793 300 "},"ʔ":{"x_min":45,"x_max":715,"ha":773,"o":"m 715 634 q 652 395 715 490 q 463 268 585 295 l 463 0 l 272 0 l 272 430 q 360 414 312 414 q 520 647 520 414 q 363 861 520 861 q 233 748 252 861 l 45 781 q 365 1011 112 1011 q 626 905 533 1011 q 715 634 715 804 "},"ᾞ":{"x_min":-7.671875,"x_max":1304,"ha":1410,"o":"m 509 0 l 509 995 l 710 995 l 710 603 l 1103 603 l 1103 995 l 1304 995 l 1304 0 l 1103 0 l 1103 435 l 710 435 l 710 0 l 509 0 m 462 1228 q 341 1057 460 1057 q 295 1061 316 1057 q 211 1092 279 1065 q 126 1114 156 1114 q 80 1054 81 1114 l -7 1054 q -7 1078 -7 1069 q 21 1182 -7 1142 q 115 1227 54 1227 q 234 1193 158 1227 q 318 1169 289 1169 q 374 1228 366 1169 l 462 1228 m 316 916 q 287 795 316 835 q 182 723 258 754 l 150 785 q 210 818 195 804 q 231 881 231 839 l 160 881 l 160 1011 l 316 1011 l 316 916 m 1002 -276 l 811 -276 l 845 -86 l 967 -86 l 1002 -276 "},"∕":{"x_min":-232.5,"x_max":463.328125,"ha":232,"o":"m -124 -37 l -232 -37 l 355 1006 l 463 1006 l -124 -37 "},"Ᾰ":{"x_min":0,"x_max":998,"ha":1003,"o":"m 998 0 l 779 0 l 693 226 l 295 226 l 212 0 l 0 0 l 387 995 l 599 995 l 998 0 m 628 394 l 491 763 l 356 394 l 628 394 m 613 1283 l 706 1283 q 641 1137 697 1190 q 494 1085 584 1085 q 347 1137 404 1085 q 282 1283 291 1190 l 375 1283 q 409 1209 380 1234 q 494 1185 438 1185 q 579 1209 550 1185 q 613 1283 608 1234 "},"҄":{"x_min":-227,"x_max":229,"ha":0,"o":"m 229 839 l 171 839 q 149 903 171 878 q 87 932 125 932 q -16 885 68 932 q -149 839 -100 839 l -227 839 l -227 964 l -149 964 q -41 997 -112 964 q 72 1030 28 1030 q 186 976 143 1030 q 229 839 229 923 "},"ۢ":{"x_min":-113,"x_max":114,"ha":0,"o":"m 114 956 l 71 956 q -10 949 33 956 q -78 923 -78 941 q -45 785 -45 822 q -66 720 -45 748 q -82 809 -69 763 q -102 879 -86 825 q -113 922 -113 910 q -105 959 -113 938 q -89 993 -97 980 q 24 1034 -70 1023 q -20 1070 -1 1070 q -36 1064 -29 1070 q -60 1035 -42 1058 l -76 1043 q 4 1145 -46 1145 q 114 1044 46 1145 l 114 956 "},"ݞ":{"x_min":35,"x_max":743,"ha":751,"o":"m 743 -124 l 486 -282 l 417 -284 q 131 -202 228 -284 q 35 34 35 -121 q 61 213 35 136 q 157 366 91 300 q 97 455 123 404 q 72 538 72 506 q 101 653 72 577 q 158 762 130 730 q 228 808 181 791 q 328 826 274 826 q 465 791 402 826 q 572 693 528 757 q 533 693 551 693 q 494 696 515 694 q 268 673 354 696 q 182 614 182 651 q 211 557 182 586 q 325 489 247 523 q 469 546 419 530 q 625 586 519 562 q 595 499 606 526 q 560 419 583 468 q 233 282 354 370 q 113 95 113 194 q 216 -46 113 2 q 588 -104 335 -104 l 604 -104 q 663 -102 644 -104 q 731 -97 682 -101 l 743 -124 m 423 1199 l 352 1068 l 253 1118 l 196 1008 l 73 1077 l 147 1216 l 243 1161 l 297 1269 l 423 1199 m 399 990 l 329 852 l 204 917 l 271 1058 l 399 990 "},"Ϋ":{"x_min":-2.5,"x_max":928.5,"ha":927,"o":"m 362 0 l 362 418 l -2 995 l 232 995 l 467 600 l 697 995 l 928 995 l 563 417 l 563 0 l 362 0 m 224 1085 l 224 1249 l 388 1249 l 388 1085 l 224 1085 m 517 1085 l 517 1249 l 681 1249 l 681 1085 l 517 1085 "},"ː":{"x_min":137,"x_max":330,"ha":463,"o":"m 330 721 l 269 529 l 197 529 l 137 721 l 330 721 m 330 0 l 137 0 l 197 192 l 269 192 l 330 0 "},"ɋ":{"x_min":62,"x_max":920.234375,"ha":848,"o":"m 920 -271 q 787 -292 844 -292 q 588 -171 626 -292 q 570 19 570 -112 l 570 88 q 357 -16 489 -16 q 155 76 235 -16 q 62 368 62 184 q 136 623 62 521 q 367 737 219 737 q 585 614 504 737 l 585 721 l 761 721 l 761 34 q 767 -72 761 -54 q 839 -115 782 -115 q 887 -108 856 -115 l 920 -271 m 576 369 q 542 517 576 459 q 418 588 502 588 q 290 512 332 588 q 257 358 257 453 q 288 208 257 266 q 411 135 327 135 q 540 214 495 135 q 576 369 576 278 "},"҆":{"x_min":-79,"x_max":87,"ha":0,"o":"m 87 916 q 58 795 87 835 q -46 723 29 754 l -79 785 q -18 818 -33 804 q 2 881 2 839 l -69 881 l -69 1011 l 87 1011 l 87 916 "},"ö":{"x_min":56,"x_max":798,"ha":848,"o":"m 56 370 q 102 554 56 465 q 235 690 149 643 q 426 737 320 737 q 693 630 589 737 q 798 362 798 524 q 692 91 798 199 q 427 -16 587 -16 q 239 28 328 -16 q 102 160 149 73 q 56 370 56 246 m 251 360 q 301 196 251 253 q 426 139 352 139 q 551 196 501 139 q 602 361 602 253 q 551 524 602 467 q 426 582 501 582 q 301 524 352 582 q 251 360 251 467 m 203 814 l 203 978 l 367 978 l 367 814 l 203 814 m 496 814 l 496 978 l 660 978 l 660 814 l 496 814 "},"╧":{"x_min":-15.59375,"x_max":999.015625,"ha":984,"o":"m 999 491 l -15 491 l -15 609 l 432 609 l 432 1264 l 550 1264 l 550 609 l 999 609 l 999 491 m 999 233 l -15 233 l -15 352 l 999 352 l 999 233 "},"ẉ":{"x_min":6,"x_max":1080,"ha":1081,"o":"m 234 0 l 6 721 l 191 721 l 326 248 l 450 721 l 634 721 l 754 248 l 892 721 l 1080 721 l 848 0 l 665 0 l 541 463 l 419 0 l 234 0 m 447 -272 l 447 -81 l 638 -81 l 638 -272 l 447 -272 "},"Ȧ":{"x_min":0,"x_max":998,"ha":1003,"o":"m 998 0 l 779 0 l 693 226 l 295 226 l 212 0 l 0 0 l 387 995 l 599 995 l 998 0 m 628 394 l 491 763 l 356 394 l 628 394 m 401 1085 l 401 1265 l 588 1265 l 588 1085 l 401 1085 "},"Ḽ":{"x_min":106,"x_max":806,"ha":848,"o":"m 106 0 l 106 986 l 307 986 l 307 168 l 806 168 l 806 0 l 106 0 m 650 -274 l 497 -274 l 418 -173 l 346 -274 l 192 -274 l 334 -75 l 509 -75 l 650 -274 "},"ڂ":{"x_min":35,"x_max":781,"ha":802,"o":"m 781 -121 l 519 -282 q 163 -189 277 -282 q 47 108 47 -94 q 102 356 47 248 q 279 549 158 463 q 136 525 198 549 q 35 480 114 516 q 274 732 67 732 q 377 725 306 732 q 502 714 448 718 q 706 708 605 708 l 665 541 q 268 415 405 508 q 132 179 132 323 q 244 -28 132 43 q 567 -100 356 -100 q 670 -94 573 -100 q 767 -91 723 -91 l 781 -121 m 417 1120 l 349 980 l 222 1047 l 291 1186 l 417 1120 m 381 1006 l 507 940 l 439 800 l 312 867 l 381 1006 "},"8":{"x_min":56,"x_max":711,"ha":773,"o":"m 222 535 q 114 621 148 566 q 81 741 81 676 q 158 925 81 852 q 380 998 236 998 q 600 925 522 998 q 679 741 679 852 q 642 618 679 672 q 541 535 606 564 q 667 438 624 502 q 711 291 711 375 q 623 68 711 154 q 388 -18 535 -18 q 162 53 253 -18 q 56 283 56 137 q 96 431 56 364 q 222 535 136 499 m 261 728 q 293 638 261 670 q 379 607 325 607 q 467 639 434 607 q 500 728 500 671 q 467 814 500 782 q 381 847 435 847 q 293 814 326 847 q 261 728 261 781 m 244 301 q 284 179 244 223 q 385 135 324 135 q 483 177 444 135 q 522 299 522 219 q 482 411 522 369 q 382 454 443 454 q 278 405 312 454 q 244 301 244 357 "},"ﻱ":{"x_min":102,"x_max":798,"ha":895,"o":"m 798 528 q 790 466 798 490 q 758 402 783 442 q 727 464 740 449 q 691 479 715 479 q 590 437 654 479 q 527 367 527 396 q 552 347 527 353 q 609 343 571 343 q 629 343 619 343 q 649 343 639 343 q 747 328 723 343 q 769 278 769 315 q 741 138 769 205 q 643 17 707 53 q 475 -55 562 -27 q 313 -83 388 -83 q 102 106 102 -83 q 125 270 102 201 q 237 480 152 347 l 269 459 q 193 309 218 374 q 168 193 168 243 q 312 66 168 66 q 415 75 366 66 q 514 102 464 85 q 589 132 547 114 q 660 164 656 162 q 691 192 691 180 q 658 201 691 199 q 611 203 625 203 q 472 232 507 203 q 444 322 444 257 q 464 401 444 354 q 516 495 484 448 q 615 603 566 566 q 712 640 665 640 q 774 609 751 640 q 798 528 798 578 m 619 -140 l 568 -233 l 464 -180 l 414 -270 l 310 -214 l 361 -121 l 463 -173 l 513 -86 l 619 -140 "},"ѯ":{"x_min":45,"x_max":683,"ha":690,"o":"m 683 -274 l 519 -274 q 474 -223 519 -223 q 397 -257 472 -223 q 271 -292 321 -292 q 107 -236 166 -292 q 45 -75 45 -178 q 329 131 45 131 q 447 205 447 131 q 325 296 447 296 l 293 296 l 293 420 q 427 514 427 420 q 399 581 427 557 q 328 606 371 606 q 206 512 243 606 l 45 546 q 152 692 69 641 q 224 722 184 711 l 112 964 l 231 964 l 331 737 l 410 892 q 530 972 449 972 q 634 916 601 972 l 573 859 q 543 882 562 882 q 506 850 521 882 l 441 722 q 517 688 483 710 q 605 527 605 632 q 476 365 605 426 q 636 189 636 321 q 323 0 636 0 q 264 -18 288 0 q 240 -71 240 -37 q 303 -143 240 -143 q 402 -111 332 -143 q 515 -79 473 -79 q 683 -274 683 -79 "},"ƿ":{"x_min":94,"x_max":796,"ha":848,"o":"m 796 405 q 708 142 796 257 q 507 -28 641 54 q 285 -155 396 -91 l 285 -274 l 94 -274 l 94 721 l 272 721 l 272 614 q 366 701 303 666 q 496 737 429 737 q 723 640 644 737 q 796 405 796 551 m 602 403 q 444 586 602 586 q 322 514 367 586 q 285 372 285 452 l 285 0 q 503 160 460 116 q 602 403 602 261 "},"ﺅ":{"x_min":4,"x_max":627,"ha":627,"o":"m 627 245 q 527 14 627 128 q 332 -99 428 -99 q 209 -63 276 -99 q 4 78 142 -27 l 32 118 q 152 52 105 68 q 240 39 191 39 q 370 75 306 39 q 528 216 446 119 q 480 212 499 212 q 374 255 413 212 q 335 374 335 299 q 381 570 335 476 q 497 673 432 673 q 589 599 551 673 q 627 420 627 525 l 627 245 m 546 384 q 468 493 527 493 q 435 476 448 493 q 423 440 423 459 q 449 399 423 415 q 520 384 476 384 l 546 384 m 372 811 q 355 779 365 789 q 332 767 348 771 l 186 722 q 209 755 199 746 q 245 774 219 765 q 217 797 225 786 q 209 817 209 807 q 214 837 209 826 q 228 859 219 849 q 316 919 272 919 q 337 910 329 919 q 345 888 345 901 q 341 869 345 877 q 329 846 338 861 q 283 863 295 863 q 258 856 271 863 q 244 846 250 852 q 276 819 244 837 q 323 801 308 801 q 372 811 331 801 "},"ħ":{"x_min":16,"x_max":755,"ha":848,"o":"m 289 924 l 488 924 l 488 797 l 289 797 l 289 629 q 512 737 380 737 q 655 698 596 737 q 734 601 713 660 q 755 422 755 542 l 755 0 l 564 0 l 564 380 q 556 513 564 478 q 519 569 548 548 q 445 591 491 591 q 329 540 369 591 q 289 360 289 490 l 289 0 l 98 0 l 98 797 l 16 797 l 16 924 l 98 924 l 98 995 l 289 995 l 289 924 "},"ᶜ":{"x_min":34,"x_max":494,"ha":528,"o":"m 494 486 q 268 311 453 311 q 93 382 156 311 q 34 564 34 450 q 93 748 34 680 q 270 820 156 820 q 487 665 441 820 l 360 642 q 271 719 347 719 q 167 574 167 719 q 274 416 167 416 q 334 436 310 416 q 367 508 357 457 l 494 486 "},"ﻝ":{"x_min":24,"x_max":627,"ha":627,"o":"m 627 215 q 518 30 627 111 q 270 -50 409 -50 q 89 8 154 -50 q 24 172 24 67 q 48 344 24 270 q 156 547 76 426 l 199 518 q 124 380 146 439 q 102 264 102 322 q 147 169 102 203 q 277 136 193 136 q 471 182 396 136 q 546 302 546 228 q 546 323 546 315 q 546 334 546 330 q 541 392 546 361 q 517 524 536 424 q 458 846 488 685 l 425 871 q 487 1075 425 937 l 518 1060 q 516 1038 516 1050 q 543 993 516 1010 q 622 949 585 970 q 606 866 614 891 q 575 791 599 841 l 555 799 q 574 683 555 789 q 607 501 594 578 q 627 367 627 391 l 627 215 "},"ἵ":{"x_min":-10,"x_max":472,"ha":386,"o":"m 100 0 l 100 721 l 291 721 l 291 0 l 100 0 m 472 1102 l 284 899 l 165 899 l 259 1102 l 472 1102 m 156 876 l 123 814 q 18 886 47 845 q -10 1007 -10 926 l -10 1102 l 146 1102 l 146 972 l 74 972 q 95 909 74 930 q 156 876 110 895 "},"˙":{"x_min":139,"x_max":326,"ha":463,"o":"m 139 831 l 139 1011 l 326 1011 l 326 831 l 139 831 "},"„":{"x_min":70,"x_max":598,"ha":695,"o":"m 407 191 l 598 191 l 598 54 q 583 -76 598 -28 q 529 -161 568 -123 q 428 -222 489 -200 l 391 -143 q 474 -90 448 -124 q 500 0 499 -56 l 407 0 l 407 191 m 86 191 l 277 191 l 277 54 q 262 -76 277 -28 q 208 -161 248 -123 q 107 -222 168 -200 l 70 -143 q 152 -90 128 -124 q 179 0 177 -56 l 86 0 l 86 191 "},"ӷ":{"x_min":92,"x_max":579,"ha":579,"o":"m 579 567 l 283 567 l 283 154 l 358 154 l 358 -190 l 204 -190 l 204 0 l 92 0 l 92 721 l 579 721 l 579 567 "},"δ":{"x_min":54,"x_max":791,"ha":842,"o":"m 121 995 l 729 995 l 729 837 l 389 837 q 584 691 447 783 q 708 591 671 632 q 768 486 746 549 q 791 355 791 423 q 697 93 791 202 q 424 -16 603 -16 q 228 29 301 -16 q 104 162 155 74 q 54 362 54 250 q 128 590 54 492 q 320 709 203 689 q 218 784 245 763 l 121 860 l 121 995 m 238 340 q 291 184 238 239 q 420 130 344 130 q 552 187 497 130 q 607 347 607 244 q 553 508 607 451 q 425 565 500 565 q 288 502 338 565 q 238 340 238 439 "},"ﯝ":{"x_min":4,"x_max":692,"ha":627,"o":"m 627 245 q 527 14 627 128 q 332 -99 428 -99 q 209 -63 276 -99 q 4 78 142 -27 l 32 118 q 152 52 105 68 q 240 39 191 39 q 370 75 306 39 q 528 216 446 119 q 480 212 499 212 q 374 255 413 212 q 335 374 335 299 q 381 570 335 476 q 497 673 432 673 q 589 599 551 673 q 627 420 627 525 l 627 245 m 546 384 q 468 493 527 493 q 435 476 448 493 q 423 440 423 459 q 449 399 423 415 q 520 384 476 384 l 546 384 m 692 857 q 674 827 684 837 q 651 815 666 819 l 505 770 q 528 803 518 794 q 565 820 538 813 q 537 843 545 832 q 529 863 529 853 q 534 883 529 872 q 548 905 539 894 q 636 965 592 965 q 657 956 649 965 q 665 934 665 947 q 661 915 665 923 q 649 892 658 907 q 603 909 615 909 q 578 902 591 909 q 564 892 570 898 q 596 865 564 883 q 643 847 628 847 q 692 857 651 847 m 460 829 q 457 805 460 817 q 453 781 455 793 l 397 814 q 351 765 363 777 q 267 717 301 717 l 218 717 q 301 771 253 733 q 367 832 345 806 q 335 859 346 845 q 322 898 322 877 q 348 976 322 942 q 404 1011 374 1011 q 436 992 422 1011 q 451 946 451 973 q 447 919 451 933 q 430 868 443 905 q 452 850 440 858 q 460 829 460 842 m 409 905 q 396 939 409 923 q 371 955 383 955 q 360 950 364 955 q 357 940 357 945 q 373 909 357 925 l 403 886 q 409 905 409 900 "},"٢":{"x_min":176,"x_max":582,"ha":780,"o":"m 582 861 q 545 718 582 766 q 423 651 509 671 q 456 513 448 563 q 465 403 465 464 q 460 319 465 364 q 445 199 456 274 l 407 199 q 399 315 407 266 q 378 408 392 364 q 342 503 375 419 q 278 645 310 588 q 176 801 247 701 l 241 997 q 331 895 293 923 q 423 867 370 867 q 539 992 539 867 l 578 992 q 580 924 578 951 q 582 861 582 897 "},"מּ":{"x_min":38,"x_max":790,"ha":875,"o":"m 252 566 q 512 728 359 728 q 714 626 639 728 q 790 298 790 525 l 790 0 l 423 0 l 423 164 l 599 164 l 599 308 q 575 507 599 450 q 492 564 551 564 q 389 496 430 564 q 315 242 349 428 l 272 0 l 71 0 l 104 156 q 158 361 134 295 l 38 720 l 210 720 l 252 566 m 468 403 q 495 396 482 403 q 516 376 508 389 q 525 346 525 363 q 517 316 525 329 q 497 296 510 303 q 468 289 484 289 q 439 296 451 289 q 418 316 426 303 q 411 346 411 329 q 427 386 411 369 q 468 403 443 403 "},"ᵪ":{"x_min":0,"x_max":526,"ha":526,"o":"m 526 -262 l 378 -262 l 260 -30 l 139 -262 l 0 -262 l 185 77 l 10 410 l 153 410 l 260 185 l 378 410 l 513 410 l 338 77 l 526 -262 "},"ᶪ":{"x_min":34,"x_max":221,"ha":228,"o":"m 221 294 q 197 169 221 205 q 98 123 166 123 q 34 131 65 123 l 49 202 q 88 196 75 196 q 133 232 123 196 q 138 296 138 249 l 138 322 l 50 322 l 50 995 l 179 995 l 179 393 l 221 393 l 221 294 "},"˞":{"x_min":-21.03125,"x_max":406,"ha":463,"o":"m 406 294 q 226 251 319 251 q 46 398 78 251 l 0 388 l -21 525 l 143 557 l 159 466 q 247 383 173 383 q 382 427 306 383 l 406 294 "},"ǥ":{"x_min":24,"x_max":821,"ha":848,"o":"m 821 -62 l 748 -62 q 650 -238 727 -185 q 417 -292 573 -292 q 81 -101 81 -292 l 299 -101 q 409 -146 307 -146 q 560 -62 538 -146 l 24 -62 l 24 0 l 568 0 l 568 150 q 352 34 482 34 q 128 138 208 34 q 57 378 57 232 q 128 629 57 532 q 360 737 209 737 q 580 619 493 737 l 580 721 l 759 721 l 759 74 q 756 0 759 36 l 821 0 l 821 -62 m 571 384 q 408 591 571 591 q 252 388 252 591 q 405 188 252 188 q 533 247 490 188 q 571 384 571 297 "},"⅍":{"x_min":0,"x_max":1389,"ha":1389,"o":"m 1389 179 q 1302 27 1389 80 q 1123 -16 1229 -16 q 844 163 890 -16 l 999 187 q 1123 95 1019 95 q 1234 158 1234 95 q 1171 208 1234 193 q 935 283 983 250 q 866 414 866 330 q 945 556 866 509 q 1111 594 1010 594 q 1271 564 1213 594 q 1369 439 1343 528 l 1223 412 q 1113 483 1203 483 q 1009 434 1009 483 q 1024 406 1009 418 q 1171 361 1046 389 q 1341 293 1293 333 q 1389 179 1389 253 m 1119 995 l 529 -37 l 422 -37 l 1011 995 l 1119 995 m 662 412 l 495 412 l 444 544 l 211 544 l 163 412 l 0 412 l 227 995 l 429 995 l 662 412 m 397 669 l 326 858 l 257 669 l 397 669 "},"р":{"x_min":94,"x_max":797,"ha":848,"o":"m 94 721 l 272 721 l 272 615 q 365 703 306 669 q 496 737 424 737 q 709 638 622 737 q 797 364 797 540 q 708 84 797 184 q 495 -16 620 -16 q 387 7 435 -16 q 285 89 338 31 l 285 -274 l 94 -274 l 94 721 m 282 372 q 330 192 282 250 q 447 135 378 135 q 558 188 514 135 q 603 362 603 241 q 557 531 603 476 q 444 586 511 586 q 328 532 374 586 q 282 372 282 478 "},"Ö":{"x_min":60,"x_max":1024,"ha":1080,"o":"m 60 490 q 105 745 60 642 q 197 882 139 821 q 326 971 256 942 q 540 1011 419 1011 q 892 874 760 1011 q 1024 495 1024 738 q 893 118 1024 254 q 543 -17 762 -17 q 190 118 321 -17 q 60 490 60 253 m 267 497 q 344 242 267 329 q 543 155 422 155 q 740 241 663 155 q 817 500 817 327 q 742 755 817 671 q 543 839 667 839 q 342 754 418 839 q 267 497 267 669 m 309 1085 l 309 1249 l 473 1249 l 473 1085 l 309 1085 m 601 1085 l 601 1249 l 765 1249 l 765 1085 l 601 1085 "},"֞":{"x_min":-231,"x_max":231,"ha":0,"o":"m 231 1019 q 108 979 154 1019 q 60 862 60 938 q 62 816 60 828 l 2 816 q 0 843 0 832 q 231 1080 0 1080 l 231 1019 m 0 1019 q -122 979 -76 1019 q -171 862 -171 938 q -168 816 -171 828 l -228 816 q -231 843 -231 832 q 0 1080 -231 1080 l 0 1019 "},"؂":{"x_min":47,"x_max":1007,"ha":1055,"o":"m 1007 -288 l 364 -288 q 197 -272 269 -288 q 76 -195 100 -251 q 47 -9 47 -125 q 84 96 47 45 q 188 179 123 151 q 271 193 233 198 q 344 148 328 184 q 366 39 364 101 q 366 -104 366 -2 l 1007 -104 l 1007 -288 m 306 -46 q 309 -22 309 -34 q 265 50 309 32 q 240 55 253 55 q 142 -5 195 55 q 117 -63 108 -43 q 212 -97 127 -87 q 289 -104 257 -103 q 306 -46 298 -77 "},"Θ":{"x_min":58,"x_max":1022,"ha":1080,"o":"m 58 490 q 185 872 58 733 q 538 1011 312 1011 q 893 870 765 1011 q 1022 495 1022 730 q 893 122 1022 261 q 555 -17 765 -17 q 284 41 388 -17 q 119 215 180 99 q 58 490 58 332 m 265 497 q 345 239 265 324 q 541 155 425 155 q 735 238 656 155 q 815 499 815 322 q 741 752 815 666 q 541 839 668 839 q 338 751 412 839 q 265 497 265 664 m 379 413 l 379 581 l 702 581 l 702 413 l 379 413 "},"Ř":{"x_min":102,"x_max":996,"ha":1003,"o":"m 102 0 l 102 995 l 524 995 q 755 968 683 995 q 871 872 828 941 q 915 715 915 804 q 849 530 915 603 q 653 438 783 457 q 760 355 718 400 q 874 193 802 309 l 996 0 l 755 0 l 611 216 q 505 362 533 332 q 444 403 476 392 q 343 415 412 415 l 303 415 l 303 0 l 102 0 m 303 574 l 451 574 q 631 586 595 574 q 687 628 667 598 q 708 703 708 658 q 681 784 708 753 q 605 823 654 815 q 459 827 581 827 l 303 827 l 303 574 m 245 1284 l 399 1284 l 471 1183 l 550 1284 l 703 1284 l 562 1085 l 387 1085 l 245 1284 "},"ﭰ":{"x_min":-47,"x_max":423,"ha":423,"o":"m 423 199 l -47 199 l -47 383 l 359 383 q 355 466 359 441 q 333 533 350 505 q 274 469 311 491 q 196 447 238 447 q 105 482 142 447 q 68 573 68 518 q 116 763 68 653 q 225 884 170 884 q 359 760 296 884 q 423 497 423 636 l 423 199 m 275 654 q 243 698 257 686 q 212 711 229 711 q 176 692 192 711 q 160 650 160 674 q 172 624 160 634 q 204 614 185 614 q 236 623 220 614 q 275 654 252 632 m 342 1042 l 305 971 l 208 1000 l 245 1072 l 342 1042 m 201 980 l 164 909 l 67 938 l 104 1010 l 201 980 m 274 1171 l 237 1100 l 140 1129 l 177 1201 l 274 1171 m 133 1109 l 96 1038 l -1 1067 l 36 1139 l 133 1109 "},"ϙ":{"x_min":56,"x_max":798,"ha":848,"o":"m 798 362 q 693 91 798 199 q 524 -5 621 18 l 524 -274 l 333 -274 l 333 -5 q 239 28 285 5 q 56 370 56 120 q 102 555 56 469 q 236 690 151 644 q 426 737 321 737 q 694 631 590 737 q 798 362 798 526 m 603 361 q 561 513 603 453 q 427 582 514 582 q 292 512 339 582 q 251 360 251 452 q 292 208 251 268 q 427 139 339 139 q 562 208 515 139 q 603 361 603 269 "},"͂":{"x_min":-234.671875,"x_max":235,"ha":0,"o":"m 235 991 q 114 820 233 820 q 68 824 89 820 q -15 855 52 828 q -100 877 -70 877 q -147 817 -145 877 l -234 817 q -234 841 -234 832 q -205 945 -234 905 q -111 990 -172 990 q 7 956 -68 990 q 91 932 62 932 q 147 991 139 932 l 235 991 "},"ᾝ":{"x_min":1,"x_max":1304,"ha":1410,"o":"m 509 0 l 509 995 l 710 995 l 710 603 l 1103 603 l 1103 995 l 1304 995 l 1304 0 l 1103 0 l 1103 435 l 710 435 l 710 0 l 509 0 m 483 1011 l 295 808 l 176 808 l 270 1011 l 483 1011 m 167 785 l 134 723 q 29 795 58 754 q 1 916 1 835 l 1 1011 l 157 1011 l 157 881 l 85 881 q 106 818 85 839 q 167 785 121 804 m 1002 -276 l 811 -276 l 845 -86 l 967 -86 l 1002 -276 "},"ṅ":{"x_min":98,"x_max":754,"ha":848,"o":"m 754 0 l 563 0 l 563 367 q 550 518 563 484 q 511 572 538 553 q 445 591 484 591 q 357 563 396 591 q 303 491 318 536 q 289 326 289 447 l 289 0 l 98 0 l 98 721 l 275 721 l 275 615 q 512 737 369 737 q 627 714 575 737 q 706 656 679 691 q 743 576 733 620 q 754 447 754 531 l 754 0 m 339 814 l 339 994 l 526 994 l 526 814 l 339 814 "},"ᶼ":{"x_min":34,"x_max":576,"ha":502,"o":"m 576 136 q 487 123 525 123 q 352 204 377 123 q 340 321 340 240 l 34 321 l 34 421 l 283 704 q 224 702 247 702 l 52 702 l 52 808 l 454 808 l 454 717 l 201 430 l 268 434 l 468 434 l 468 328 q 472 256 468 269 q 521 227 482 227 q 553 231 533 227 l 576 136 "},"и":{"x_min":95,"x_max":759,"ha":854,"o":"m 95 721 l 278 721 l 278 267 l 572 721 l 759 721 l 759 0 l 576 0 l 576 459 l 278 0 l 95 0 l 95 721 "},"א":{"x_min":61,"x_max":791,"ha":809,"o":"m 575 306 l 791 0 l 568 0 l 317 356 q 256 143 269 309 l 246 0 l 62 0 l 75 152 q 128 376 89 308 q 228 481 168 444 l 61 720 l 283 720 l 491 425 q 554 601 543 464 l 564 720 l 741 720 l 732 632 q 680 415 718 480 q 575 306 641 350 "},"³":{"x_min":27,"x_max":435,"ha":463,"o":"m 27 640 l 152 654 q 177 598 157 616 q 228 581 196 581 q 282 601 262 581 q 303 654 303 621 q 283 702 303 683 q 232 722 263 722 q 170 711 211 722 l 186 811 q 241 818 221 811 q 270 838 261 826 q 279 864 279 849 q 264 896 279 884 q 222 909 250 909 q 177 893 194 909 q 155 842 160 878 l 34 859 q 84 959 51 929 q 225 1006 136 1006 q 359 964 310 1006 q 409 868 409 922 q 394 820 409 842 q 343 770 375 790 q 411 722 388 754 q 435 648 435 690 q 377 534 435 584 q 227 484 320 484 q 88 526 141 484 q 27 640 36 569 "},"Ṧ":{"x_min":50,"x_max":858,"ha":926,"o":"m 50 324 l 245 343 q 316 198 262 244 q 461 152 370 152 q 607 193 558 152 q 657 289 657 234 q 636 349 657 324 q 564 392 615 374 q 403 435 528 404 q 177 533 242 475 q 86 733 86 615 q 129 875 86 809 q 253 976 172 941 q 448 1011 334 1011 q 730 928 636 1011 q 830 710 825 846 l 629 701 q 573 811 616 777 q 446 845 531 845 q 309 809 359 845 q 278 747 278 785 q 307 686 278 711 q 492 620 345 654 q 708 548 638 585 q 818 447 778 511 q 858 289 858 383 q 810 129 858 203 q 676 18 763 54 q 460 -18 589 -18 q 170 69 271 -18 q 50 324 69 156 m 505 1146 l 410 1146 l 410 1250 l 505 1250 l 505 1146 m 639 1134 l 529 1014 l 387 1014 l 278 1134 l 405 1134 l 458 1067 l 512 1134 l 639 1134 "},"Ӿ":{"x_min":0,"x_max":924,"ha":926,"o":"m 924 0 l 683 0 l 462 337 l 241 0 l 0 0 l 297 455 l 113 455 l 113 581 l 300 581 l 32 995 l 265 995 l 462 697 l 659 995 l 893 995 l 627 581 l 812 581 l 812 455 l 622 455 l 924 0 "},"ن":{"x_min":42,"x_max":751,"ha":751,"o":"m 528 765 l 446 614 l 287 696 l 369 850 l 528 765 m 751 231 q 732 81 751 138 q 672 -9 714 25 q 550 -65 631 -43 q 384 -88 470 -88 q 131 -28 220 -88 q 42 142 42 31 q 70 314 42 236 q 192 538 101 400 l 233 509 q 145 343 166 395 q 125 237 125 292 q 201 121 125 166 q 401 76 277 76 q 606 122 523 76 q 690 237 690 169 q 675 320 690 279 q 613 452 660 361 l 672 636 q 730 517 719 549 q 751 367 751 458 l 751 231 "},"͘":{"x_min":174,"x_max":288,"ha":0,"o":"m 288 859 q 271 818 288 834 q 231 802 255 802 q 190 818 207 802 q 174 859 174 835 q 190 899 174 883 q 231 916 206 916 q 271 899 255 916 q 288 859 288 883 "},"˱":{"x_min":136,"x_max":327,"ha":463,"o":"m 327 -285 l 136 -162 l 136 -126 l 327 -4 l 327 -81 l 211 -144 l 327 -208 l 327 -285 "},"ᶣ":{"x_min":34,"x_max":477,"ha":511,"o":"m 477 321 l 348 321 l 348 569 q 199 496 285 496 q 65 555 106 496 q 34 708 34 599 l 34 995 l 163 995 l 163 736 q 164 666 163 676 q 242 595 173 595 q 336 657 313 595 q 348 750 348 688 l 348 995 l 477 995 l 477 321 "},"˨":{"x_min":102,"x_max":430,"ha":532,"o":"m 430 0 l 324 0 l 324 222 l 102 222 l 102 328 l 324 328 l 324 994 l 430 994 l 430 0 "},"؛":{"x_min":109,"x_max":327,"ha":443,"o":"m 327 514 q 299 449 327 478 q 230 421 272 421 q 143 469 178 421 q 109 591 109 518 q 168 768 109 692 q 256 847 197 805 l 278 810 q 217 746 238 773 q 180 661 180 698 q 253 608 180 625 q 327 514 327 592 m 309 267 q 286 212 309 235 q 230 189 263 189 q 174 212 198 189 q 150 267 150 235 q 173 322 150 299 q 230 346 197 346 q 286 323 264 346 q 309 267 309 301 "},"ḥ":{"x_min":98,"x_max":754,"ha":848,"o":"m 289 995 l 289 628 q 509 737 381 737 q 627 712 575 737 q 707 650 680 688 q 744 565 734 612 q 754 422 754 519 l 754 0 l 563 0 l 563 380 q 552 524 563 493 q 513 573 541 555 q 445 591 486 591 q 360 567 397 591 q 306 498 323 544 q 289 360 289 451 l 289 0 l 98 0 l 98 995 l 289 995 m 331 -272 l 331 -81 l 522 -81 l 522 -272 l 331 -272 "},"Ἅ":{"x_min":0,"x_max":1201,"ha":1207,"o":"m 1201 0 l 982 0 l 896 226 l 498 226 l 415 0 l 203 0 l 590 995 l 802 995 l 1201 0 m 831 394 l 694 763 l 559 394 l 831 394 m 482 1011 l 294 808 l 175 808 l 269 1011 l 482 1011 m 166 785 l 133 723 q 28 795 57 754 q 0 916 0 835 l 0 1011 l 156 1011 l 156 881 l 84 881 q 105 818 84 839 q 166 785 120 804 "},"Ρ":{"x_min":102,"x_max":862,"ha":926,"o":"m 102 0 l 102 995 l 423 995 q 661 980 606 995 q 804 882 746 957 q 862 688 862 807 q 828 534 862 597 q 744 436 795 472 q 640 389 693 400 q 433 375 569 375 l 303 375 l 303 0 l 102 0 m 303 827 l 303 543 l 412 543 q 570 558 530 543 q 632 607 609 574 q 655 685 655 641 q 623 775 655 740 q 543 820 591 811 q 399 827 507 827 l 303 827 "},"ῌ":{"x_min":102,"x_max":897,"ha":1003,"o":"m 102 0 l 102 995 l 303 995 l 303 603 l 696 603 l 696 995 l 897 995 l 897 0 l 696 0 l 696 435 l 303 435 l 303 0 l 102 0 m 595 -276 l 404 -276 l 438 -86 l 560 -86 l 595 -276 "},"Ṙ":{"x_min":102,"x_max":996,"ha":1003,"o":"m 102 0 l 102 995 l 524 995 q 755 968 683 995 q 871 872 828 941 q 915 715 915 804 q 849 530 915 603 q 653 438 783 457 q 760 355 718 400 q 874 193 802 309 l 996 0 l 755 0 l 611 216 q 505 362 533 332 q 444 403 476 392 q 343 415 412 415 l 303 415 l 303 0 l 102 0 m 303 574 l 451 574 q 631 586 595 574 q 687 628 667 598 q 708 703 708 658 q 681 784 708 753 q 605 823 654 815 q 459 827 581 827 l 303 827 l 303 574 m 357 1085 l 357 1265 l 544 1265 l 544 1085 l 357 1085 "},"ª":{"x_min":25,"x_max":480,"ha":514,"o":"m 172 849 l 44 875 q 106 976 59 941 q 249 1011 153 1011 q 400 984 349 1011 q 449 924 433 967 q 460 819 460 897 l 460 657 q 464 563 460 587 q 480 516 468 539 l 351 516 q 336 564 342 533 q 189 504 276 504 q 68 545 111 504 q 25 650 25 586 q 46 728 25 696 q 109 778 67 760 q 237 810 139 791 q 322 832 290 821 q 321 847 322 842 q 309 890 320 880 q 252 905 292 905 q 199 893 217 905 q 172 849 186 884 m 322 742 q 279 728 306 733 q 192 704 205 712 q 165 660 165 687 q 183 622 165 639 q 231 606 201 606 q 296 634 270 606 q 322 715 322 662 l 322 742 "},"Ἓ":{"x_min":1,"x_max":1264,"ha":1333,"o":"m 509 0 l 509 995 l 1245 995 l 1245 827 l 710 827 l 710 606 l 1208 606 l 1208 438 l 710 438 l 710 168 l 1264 168 l 1264 0 l 509 0 m 483 808 l 364 808 l 176 1011 l 389 1011 l 483 808 m 167 785 l 134 723 q 29 795 58 754 q 1 916 1 835 l 1 1011 l 157 1011 l 157 881 l 85 881 q 106 818 85 839 q 167 785 121 804 "},"ᴄ":{"x_min":58,"x_max":738,"ha":773,"o":"m 728 508 l 540 474 q 496 558 530 530 q 409 587 463 587 q 295 537 338 587 q 253 373 253 488 q 296 191 253 244 q 412 139 339 139 q 501 169 467 139 q 551 276 536 200 l 738 244 q 626 49 708 115 q 404 -16 543 -16 q 151 83 245 -16 q 58 359 58 183 q 152 637 58 538 q 407 737 246 737 q 616 680 538 737 q 728 508 694 623 "},"ﻅ":{"x_min":-47,"x_max":727,"ha":727,"o":"m 622 926 l 540 775 l 381 857 l 463 1011 l 622 926 m 727 199 l -47 199 l -47 383 l 42 383 q 134 439 59 383 q 207 496 159 457 q 200 637 207 579 q 181 757 194 695 q 144 905 177 772 l 105 929 q 130 1031 120 1000 q 170 1129 141 1062 l 201 1116 q 198 1099 201 1112 q 265 1043 198 1075 q 333 1015 288 1032 q 311 916 326 962 q 284 844 304 893 l 260 852 q 287 709 280 755 q 295 628 295 664 l 295 620 q 293 589 295 600 q 288 554 292 578 q 359 606 323 580 q 457 668 414 645 q 544 700 514 700 q 672 658 624 700 q 727 523 727 611 l 727 199 m 632 452 q 581 497 632 476 q 493 518 531 518 q 393 489 449 518 q 231 383 337 460 l 408 383 q 632 452 632 383 "},"ᶕ":{"x_min":55,"x_max":1001,"ha":910,"o":"m 529 298 l 244 298 q 279 181 246 227 q 385 130 317 130 q 493 179 453 130 q 529 298 529 225 m 1001 -279 q 905 -292 954 -292 q 758 -224 803 -292 q 723 -39 723 -171 l 723 300 q 645 98 710 181 q 397 -16 555 -16 q 130 106 218 -16 q 55 398 55 213 l 55 415 l 532 415 q 492 541 529 492 q 376 595 450 595 q 255 492 284 595 l 65 523 q 378 737 139 737 q 655 614 566 737 q 725 415 714 532 l 846 415 l 846 -36 q 852 -132 846 -109 q 920 -185 867 -185 q 977 -175 941 -185 l 1001 -279 "},"š":{"x_min":33,"x_max":706,"ha":773,"o":"m 33 206 l 224 235 q 273 150 236 179 q 378 122 311 122 q 489 149 452 122 q 515 199 515 168 q 501 235 515 221 q 437 261 487 249 q 144 353 206 311 q 59 515 59 412 q 133 673 59 609 q 362 737 207 737 q 582 688 510 737 q 682 546 654 640 l 502 513 q 458 577 490 555 q 365 600 425 600 q 257 578 290 600 q 236 540 236 564 q 255 505 236 519 q 433 452 280 486 q 646 367 585 417 q 706 225 706 316 q 623 55 706 126 q 378 -16 540 -16 q 145 43 231 -16 q 33 206 59 103 m 146 1013 l 300 1013 l 372 912 l 451 1013 l 604 1013 l 463 814 l 288 814 l 146 1013 "},"ڸ":{"x_min":24,"x_max":627,"ha":627,"o":"m 627 215 q 518 30 627 111 q 270 -50 409 -50 q 89 8 154 -50 q 24 172 24 67 q 48 344 24 270 q 156 547 76 426 l 199 518 q 124 380 146 439 q 102 264 102 322 q 147 169 102 203 q 277 136 193 136 q 471 182 396 136 q 546 302 546 228 q 546 323 546 315 q 546 334 546 330 q 541 392 546 361 q 517 524 536 424 q 458 846 488 685 l 425 871 q 487 1075 425 937 l 518 1060 q 516 1038 516 1050 q 543 993 516 1010 q 622 949 585 970 q 606 866 614 891 q 575 791 599 841 l 555 799 q 574 683 555 789 q 607 501 594 578 q 627 367 627 391 l 627 215 m 422 -118 l 399 -166 l 330 -146 l 353 -99 l 422 -118 m 399 -186 l 376 -234 l 307 -214 l 330 -167 l 399 -186 m 314 -153 l 291 -201 l 222 -181 l 245 -134 l 314 -153 "},"⁪":{"x_min":-158,"x_max":159,"ha":0,"o":"m -158 715 l -24 715 l -24 910 l -158 910 l -158 958 l 159 958 l 159 910 l 25 910 l 25 715 l 159 715 l 159 667 l 25 667 l 25 -187 l -24 -187 l -24 667 l -158 667 l -158 715 "},"Ƕ":{"x_min":102,"x_max":1354,"ha":1434,"o":"m 1354 382 q 1032 -16 1354 -16 q 751 100 826 -16 q 695 382 695 186 l 695 435 l 303 435 l 303 0 l 102 0 l 102 995 l 303 995 l 303 603 l 695 603 l 695 995 l 896 995 l 896 352 q 912 208 896 249 q 1029 139 940 139 q 1142 208 1112 139 q 1163 351 1163 255 l 1163 721 l 1354 721 l 1354 382 "},"ﮊ":{"x_min":7,"x_max":620,"ha":601,"o":"m 601 183 q 553 73 601 141 q 442 -44 506 5 q 321 -100 371 -100 q 193 -66 261 -100 q 7 49 133 -37 l 35 92 q 133 37 96 51 q 214 23 171 23 q 308 49 261 23 q 435 147 354 75 q 548 302 548 247 q 526 373 548 329 q 467 456 502 423 l 504 640 q 575 530 550 592 q 601 390 601 469 l 601 183 m 489 1063 l 421 923 l 294 990 l 363 1129 l 489 1063 m 620 903 l 545 765 l 449 819 l 394 712 l 269 781 l 339 913 l 440 862 l 496 973 l 620 903 "},"1":{"x_min":110,"x_max":547,"ha":773,"o":"m 547 0 l 356 0 l 356 717 q 110 573 251 619 l 110 746 q 272 838 184 770 q 392 998 359 906 l 547 998 l 547 0 "},"ҍ":{"x_min":19,"x_max":799,"ha":854,"o":"m 799 209 q 512 0 799 0 l 104 0 l 104 797 l 19 797 l 19 924 l 104 924 l 104 995 l 295 995 l 295 924 l 384 924 l 384 797 l 295 797 l 295 421 l 486 421 q 635 410 588 421 q 759 334 716 392 q 799 209 799 281 m 602 212 q 536 294 602 274 q 418 304 502 304 l 295 304 l 295 121 l 472 121 q 602 212 602 121 "},"בֿ":{"x_min":44,"x_max":769,"ha":800,"o":"m 639 164 l 769 164 l 769 0 l 53 0 l 53 164 l 448 164 l 448 354 q 397 521 448 472 q 222 570 346 570 q 58 556 148 570 l 44 706 q 255 728 149 728 q 546 646 453 728 q 639 388 639 565 l 639 164 m 205 848 l 205 919 l 478 919 l 478 848 l 205 848 "},"צ":{"x_min":7,"x_max":643,"ha":711,"o":"m 643 720 l 636 608 l 631 545 q 620 483 629 514 q 592 421 611 452 q 542 364 572 390 q 471 315 513 337 l 619 84 l 619 0 l 48 0 l 48 164 l 368 164 l 7 720 l 212 720 l 391 439 q 436 474 425 449 q 452 605 447 498 l 459 720 l 643 720 "},"ᵈ":{"x_min":34,"x_max":509,"ha":543,"o":"m 509 321 l 390 321 l 390 393 q 237 310 331 310 q 82 392 139 310 q 34 566 34 463 q 82 741 34 673 q 239 819 136 819 q 380 751 320 819 l 380 994 l 509 994 l 509 321 m 381 562 q 273 720 381 720 q 189 673 218 720 q 166 575 166 634 q 187 462 166 497 q 274 412 218 412 q 358 462 329 412 q 381 562 381 502 "},"˕":{"x_min":113,"x_max":350,"ha":463,"o":"m 350 275 l 267 275 l 267 121 l 196 121 l 196 275 l 113 275 l 113 346 l 350 346 l 350 275 "},"ɩ":{"x_min":73,"x_max":387,"ha":386,"o":"m 387 0 q 277 -16 335 -16 q 99 82 143 -16 q 73 296 73 142 l 73 721 l 264 721 l 264 310 q 270 203 264 221 q 331 161 285 161 q 387 165 354 161 l 387 0 "},"ǒ":{"x_min":56,"x_max":798,"ha":848,"o":"m 56 370 q 102 554 56 465 q 235 690 149 643 q 426 737 320 737 q 693 630 589 737 q 798 362 798 524 q 692 91 798 199 q 427 -16 587 -16 q 239 28 328 -16 q 102 160 149 73 q 56 370 56 246 m 251 360 q 301 196 251 253 q 426 139 352 139 q 551 196 501 139 q 602 361 602 253 q 551 524 602 467 q 426 582 501 582 q 301 524 352 582 q 251 360 251 467 m 196 1013 l 350 1013 l 422 912 l 501 1013 l 654 1013 l 513 814 l 338 814 l 196 1013 "},"ӡ":{"x_min":23,"x_max":703,"ha":731,"o":"m 703 63 q 615 -192 703 -97 q 356 -292 523 -292 q 23 -31 82 -292 l 210 0 q 347 -137 235 -137 q 507 72 507 -137 q 462 197 507 150 q 323 250 413 250 l 256 250 l 256 362 l 455 567 q 367 563 401 563 l 86 563 l 86 721 l 682 721 l 682 586 l 470 362 q 618 290 556 349 q 703 63 703 210 "},"ḽ":{"x_min":-35,"x_max":423,"ha":386,"o":"m 100 0 l 100 995 l 291 995 l 291 0 l 100 0 m 423 -274 l 270 -274 l 191 -173 l 119 -274 l -35 -274 l 107 -75 l 282 -75 l 423 -274 "},"ī":{"x_min":-25,"x_max":412,"ha":386,"o":"m 100 0 l 100 721 l 291 721 l 291 0 l 100 0 m -25 814 l -25 939 l 412 939 l 412 814 l -25 814 "},"ϯ":{"x_min":27,"x_max":583,"ha":610,"o":"m 583 612 l 403 612 l 403 0 l 143 68 l 143 109 l 212 109 l 212 612 l 133 612 l 66 512 l 27 512 l 27 737 l 212 737 l 212 994 l 472 926 l 472 885 l 403 885 l 403 737 l 583 737 l 583 612 "},"̢":{"x_min":0,"x_max":350,"ha":0,"o":"m 350 -271 q 217 -292 274 -292 q 18 -171 56 -292 q 0 22 0 -113 l 0 68 l 191 68 l 191 33 q 191 -40 191 -34 q 222 -102 195 -83 q 269 -115 240 -115 q 316 -108 286 -115 l 350 -271 "},"ӹ":{"x_min":101,"x_max":1095,"ha":1186,"o":"m 101 721 l 292 721 l 292 422 l 483 422 q 654 406 595 422 q 755 336 714 390 q 796 209 796 282 q 724 52 796 105 q 508 0 652 0 l 101 0 l 101 721 m 292 121 l 469 121 q 569 142 538 121 q 601 213 601 164 q 560 285 601 266 q 415 305 520 305 l 292 305 l 292 121 m 904 721 l 1095 721 l 1095 0 l 904 0 l 904 721 m 332 814 l 332 978 l 496 978 l 496 814 l 332 814 m 625 814 l 625 978 l 789 978 l 789 814 l 625 814 "},"ʲ":{"x_min":-20,"x_max":216,"ha":270,"o":"m 216 875 l 87 875 l 87 994 l 216 994 l 216 875 m 216 335 q 210 230 216 260 q 157 144 199 170 q 68 123 123 123 q -20 137 32 123 l 2 247 q 34 243 22 243 q 82 271 72 243 q 87 343 87 283 l 87 808 l 216 808 l 216 335 "},"Ễ":{"x_min":102,"x_max":857,"ha":926,"o":"m 102 0 l 102 995 l 838 995 l 838 827 l 303 827 l 303 606 l 801 606 l 801 438 l 303 438 l 303 168 l 857 168 l 857 0 l 102 0 m 489 1078 l 415 1028 l 281 1028 l 429 1116 l 549 1116 l 698 1028 l 564 1028 l 489 1078 m 263 1139 q 300 1218 262 1184 q 400 1253 339 1253 q 515 1223 442 1253 q 591 1207 567 1207 q 641 1254 632 1207 l 717 1254 q 583 1141 712 1141 q 471 1171 541 1141 q 390 1191 411 1191 q 339 1139 347 1191 l 263 1139 "},"ˣ":{"x_min":0,"x_max":509,"ha":509,"o":"m 509 321 l 350 321 l 250 462 l 151 321 l 0 321 l 174 570 l 7 808 l 164 808 l 253 682 l 341 808 l 493 808 l 329 574 l 509 321 "},"ŏ":{"x_min":56,"x_max":798,"ha":848,"o":"m 56 370 q 102 554 56 465 q 235 690 149 643 q 426 737 320 737 q 693 630 589 737 q 798 362 798 524 q 692 91 798 199 q 427 -16 587 -16 q 239 28 328 -16 q 102 160 149 73 q 56 370 56 246 m 251 360 q 301 196 251 253 q 426 139 352 139 q 551 196 501 139 q 602 361 602 253 q 551 524 602 467 q 426 582 501 582 q 301 524 352 582 q 251 360 251 467 m 542 1012 l 635 1012 q 570 866 626 919 q 423 814 513 814 q 276 866 333 814 q 211 1012 220 919 l 304 1012 q 338 938 309 963 q 423 914 367 914 q 508 938 479 914 q 542 1012 537 963 "},"ý":{"x_min":10,"x_max":751,"ha":773,"o":"m 10 721 l 213 721 l 385 209 l 554 721 l 751 721 l 496 26 l 451 -98 q 403 -194 426 -161 q 351 -248 380 -227 q 278 -280 321 -268 q 180 -292 235 -292 q 73 -280 125 -292 l 56 -131 q 136 -140 100 -140 q 235 -101 203 -140 q 284 -2 267 -62 l 10 721 m 288 814 l 382 1017 l 595 1017 l 409 814 l 288 814 "},"ﭥ":{"x_min":-47,"x_max":409,"ha":377,"o":"m 377 199 l -47 199 l -47 383 l 309 383 q 281 461 301 429 q 234 522 271 478 l 288 684 q 358 563 339 626 q 377 376 377 500 l 377 199 m 319 1103 l 248 972 l 149 1022 l 92 912 l -31 981 l 43 1120 l 139 1065 l 193 1173 l 319 1103 m 133 940 l 229 885 l 283 993 l 409 923 l 338 792 l 239 842 l 182 732 l 59 801 l 133 940 "},"╝":{"x_min":-15.59375,"x_max":679.578125,"ha":984,"o":"m 560 1264 l 679 1264 l 679 233 l -15 233 l -15 352 l 560 352 l 560 1264 m 303 609 l 303 1264 l 421 1264 l 421 491 l -15 491 l -15 609 l 303 609 "},"Ί":{"x_min":0,"x_max":567,"ha":657,"o":"m 366 0 l 366 995 l 567 995 l 567 0 l 366 0 m 0 808 l 94 1011 l 307 1011 l 121 808 l 0 808 "},"ӛ":{"x_min":54.859375,"x_max":728,"ha":773,"o":"m 728 365 q 645 98 728 203 q 397 -16 555 -16 q 126 113 214 -16 q 55 416 51 224 l 533 416 q 492 541 530 492 q 376 595 450 595 q 255 492 284 595 l 65 523 q 378 737 139 737 q 656 614 567 737 q 728 365 728 516 m 529 299 l 244 299 q 279 182 246 228 q 386 130 318 130 q 494 181 455 130 q 529 299 530 227 m 139 814 l 139 978 l 303 978 l 303 814 l 139 814 m 432 814 l 432 978 l 596 978 l 596 814 l 432 814 "},"ἒ":{"x_min":54,"x_max":643,"ha":659,"o":"m 448 445 l 448 297 q 290 278 332 297 q 249 212 249 259 q 278 156 249 178 q 347 135 307 135 q 517 202 418 135 l 643 77 q 336 -16 486 -16 q 134 43 215 -16 q 54 196 54 103 q 181 373 54 318 q 81 530 81 428 q 145 676 81 615 q 351 737 210 737 q 613 664 508 737 l 500 543 q 365 582 431 582 q 293 563 317 582 q 270 519 270 545 q 448 445 270 445 m 579 899 l 460 899 l 272 1102 l 485 1102 l 579 899 m 253 1007 q 224 886 253 926 q 119 814 195 845 l 87 876 q 147 909 132 895 q 168 972 168 930 l 97 972 l 97 1102 l 253 1102 l 253 1007 "}," ":{"x_min":0,"x_max":0,"ha":347,"o":"m 0 0 l 0 0 "},"‴":{"x_min":-46,"x_max":712,"ha":665,"o":"m -46 642 l -43 826 l -7 995 l 200 995 l 164 826 l 93 642 l -46 642 m 210 642 l 213 826 l 249 995 l 456 995 l 420 826 l 349 642 l 210 642 m 466 642 l 469 826 l 505 995 l 712 995 l 676 826 l 605 642 l 466 642 "},"ἑ":{"x_min":54,"x_max":643,"ha":659,"o":"m 448 445 l 448 297 q 290 278 332 297 q 249 212 249 259 q 278 156 249 178 q 347 135 307 135 q 517 202 418 135 l 643 77 q 336 -16 486 -16 q 134 43 215 -16 q 54 196 54 103 q 181 373 54 318 q 81 530 81 428 q 145 676 81 615 q 351 737 210 737 q 613 664 508 737 l 500 543 q 365 582 431 582 q 293 563 317 582 q 270 519 270 545 q 448 445 270 445 m 425 876 l 392 814 q 287 886 316 845 q 259 1007 259 926 l 259 1102 l 415 1102 l 415 972 l 343 972 q 364 909 343 930 q 425 876 379 895 "},"ᴝ":{"x_min":55,"x_max":791,"ha":848,"o":"m 791 263 q 669 49 791 104 q 510 24 612 24 l 55 24 l 55 215 l 385 215 q 513 215 503 215 q 625 263 596 223 q 645 334 645 290 q 619 419 645 380 q 552 474 594 459 q 357 489 512 489 l 55 489 l 55 680 l 775 680 l 775 503 l 666 503 q 791 263 791 418 "},"Ь":{"x_min":105,"x_max":934,"ha":998,"o":"m 105 995 l 306 995 l 306 597 l 574 597 q 848 508 763 597 q 934 295 934 419 q 882 122 934 193 q 764 25 830 50 q 574 0 698 0 l 105 0 l 105 995 m 306 167 l 501 167 q 632 176 596 167 q 698 217 669 185 q 727 297 727 250 q 677 398 727 366 q 510 430 628 430 l 306 430 l 306 167 "},"ƽ":{"x_min":20,"x_max":640,"ha":690,"o":"m 640 210 q 537 32 640 92 q 335 -16 454 -16 q 20 186 77 -16 l 194 218 q 333 112 236 112 q 413 136 379 112 q 451 213 451 164 q 329 324 451 324 l 120 324 l 120 567 l 20 567 l 20 721 l 595 721 l 595 567 l 311 567 l 311 446 l 373 446 q 554 398 485 446 q 640 210 640 337 "},"̅":{"x_min":-398,"x_max":394,"ha":0,"o":"m 394 1053 l -398 1053 l -398 1177 l 394 1177 l 394 1053 "},"ؔ":{"x_min":-211,"x_max":211.46875,"ha":0,"o":"m 211 1126 q 139 1008 211 1008 q 94 1024 119 1008 q 36 983 74 993 q -204 967 -16 969 l -211 981 l -6 1028 q 70 1086 50 1047 q 87 1146 74 1092 l 101 1151 q 109 1110 106 1118 q 137 1089 118 1089 q 178 1123 163 1089 q 190 1180 190 1150 l 204 1185 q 211 1126 211 1149 "},"̸":{"x_min":-194,"x_max":195,"ha":0,"o":"m 195 1011 l -53 -17 l -194 -17 l 52 1011 l 195 1011 "},"ᾯ":{"x_min":-7.671875,"x_max":1318,"ha":1385,"o":"m 337 0 l 337 168 l 530 168 q 353 567 353 353 q 479 882 353 754 q 827 1011 606 1011 q 1174 883 1046 1011 q 1302 567 1302 756 q 1124 168 1302 353 l 1318 168 l 1318 0 l 863 0 l 863 161 q 1036 299 977 203 q 1095 518 1095 394 q 1027 742 1095 646 q 827 839 959 839 q 627 743 695 839 q 560 518 560 648 q 618 298 560 393 q 792 161 677 203 l 792 0 l 337 0 m 462 1228 q 341 1057 460 1057 q 295 1061 316 1057 q 211 1092 279 1065 q 126 1114 156 1114 q 80 1054 81 1114 l -7 1054 q -7 1078 -7 1069 q 21 1182 -7 1142 q 115 1227 54 1227 q 234 1193 158 1227 q 318 1169 289 1169 q 374 1228 366 1169 l 462 1228 m 316 785 l 283 723 q 178 795 207 754 q 150 916 150 835 l 150 1011 l 306 1011 l 306 881 l 234 881 q 255 818 234 839 q 316 785 270 804 m 923 -276 l 732 -276 l 766 -86 l 888 -86 l 923 -276 "},"¤":{"x_min":30,"x_max":737,"ha":773,"o":"m 120 638 l 30 727 l 143 848 l 235 755 q 307 784 270 774 q 382 794 344 794 q 458 784 421 794 q 531 755 495 774 l 622 846 l 736 731 l 646 641 q 674 569 665 606 q 684 493 684 532 q 674 418 684 454 q 646 346 665 381 l 737 256 l 624 139 l 531 232 q 460 202 497 212 q 383 193 423 193 q 308 202 345 193 q 237 231 272 212 l 149 142 l 33 256 l 122 346 q 92 418 102 381 q 83 493 83 455 q 92 568 83 532 q 120 638 101 604 m 246 493 q 286 396 246 436 q 383 356 327 356 q 480 396 440 356 q 521 493 521 436 q 480 590 521 550 q 383 631 440 631 q 286 590 326 631 q 246 493 246 550 "},"ﮂ":{"x_min":71,"x_max":476,"ha":476,"o":"m 476 199 l 168 199 q 100 217 123 199 q 71 293 71 240 q 74 357 71 322 q 83 427 77 391 l 109 428 q 133 393 114 404 q 178 383 151 383 l 412 383 q 357 542 396 482 q 269 628 325 592 l 317 840 q 442 670 405 774 q 476 416 476 574 l 476 199 m 459 79 l 388 -52 l 289 -1 l 232 -112 l 109 -42 l 183 96 l 279 41 l 333 149 l 459 79 "},"p":{"x_min":94,"x_max":797,"ha":848,"o":"m 94 721 l 272 721 l 272 615 q 365 703 306 669 q 496 737 424 737 q 709 638 622 737 q 797 364 797 540 q 708 84 797 184 q 495 -16 620 -16 q 387 7 435 -16 q 285 89 338 31 l 285 -274 l 94 -274 l 94 721 m 282 372 q 330 192 282 250 q 447 135 378 135 q 558 188 514 135 q 603 362 603 241 q 557 531 603 476 q 444 586 511 586 q 328 532 374 586 q 282 372 282 478 "},"ﬞ":{"x_min":-212,"x_max":211,"ha":0,"o":"m 118 1046 l 211 1046 q 146 900 202 953 q 0 848 89 848 q -147 900 -90 848 q -212 1046 -203 953 l -119 1046 q -85 972 -114 997 q 0 948 -56 948 q 84 972 55 948 q 118 1046 113 997 "},"Ἤ":{"x_min":-9,"x_max":1304,"ha":1410,"o":"m 509 0 l 509 995 l 710 995 l 710 603 l 1103 603 l 1103 995 l 1304 995 l 1304 0 l 1103 0 l 1103 435 l 710 435 l 710 0 l 509 0 m 483 1011 l 295 808 l 176 808 l 270 1011 l 483 1011 m 157 916 q 128 795 157 835 q 23 723 99 754 l -9 785 q 51 818 36 804 q 72 881 72 839 l 1 881 l 1 1011 l 157 1011 l 157 916 "},"Ѹ":{"x_min":60,"x_max":1534,"ha":1556,"o":"m 1534 721 l 1233 -97 q 1133 -247 1195 -203 q 963 -292 1071 -292 q 855 -280 908 -292 l 839 -131 q 919 -140 883 -140 q 1067 -1 1028 -140 l 813 721 l 1015 721 l 1167 208 l 1336 721 l 1534 721 m 793 496 q 707 125 793 257 q 426 -19 613 -19 q 145 125 239 -19 q 60 496 60 257 q 145 867 60 735 q 426 1012 239 1012 q 707 867 613 1012 q 793 496 793 735 m 590 496 q 542 753 590 661 q 426 838 498 838 q 310 753 354 838 q 263 496 263 661 q 310 239 263 331 q 426 155 354 155 q 542 239 498 155 q 590 496 590 331 "},"ٷ":{"x_min":4,"x_max":692,"ha":627,"o":"m 627 245 q 527 14 627 128 q 332 -99 428 -99 q 209 -63 276 -99 q 4 78 142 -27 l 32 118 q 152 52 105 68 q 240 39 191 39 q 370 75 306 39 q 528 216 446 119 q 480 212 499 212 q 374 255 413 212 q 335 374 335 299 q 381 570 335 476 q 497 673 432 673 q 589 599 551 673 q 627 420 627 525 l 627 245 m 546 384 q 468 493 527 493 q 435 476 448 493 q 423 440 423 459 q 449 399 423 415 q 520 384 476 384 l 546 384 m 692 857 q 674 827 684 837 q 651 815 666 819 l 505 770 q 528 803 518 794 q 565 820 538 813 q 537 843 545 832 q 529 863 529 853 q 534 883 529 872 q 548 905 539 894 q 636 965 592 965 q 657 956 649 965 q 665 934 665 947 q 661 915 665 923 q 649 892 658 907 q 603 909 615 909 q 578 902 591 909 q 564 892 570 898 q 596 865 564 883 q 643 847 628 847 q 692 857 651 847 m 460 829 q 457 805 460 817 q 453 781 455 793 l 397 814 q 351 765 363 777 q 267 717 301 717 l 218 717 q 301 771 253 733 q 367 832 345 806 q 335 859 346 845 q 322 898 322 877 q 348 976 322 942 q 404 1011 374 1011 q 436 992 422 1011 q 451 946 451 973 q 447 919 451 933 q 430 868 443 905 q 452 850 440 858 q 460 829 460 842 m 409 905 q 396 939 409 923 q 371 955 383 955 q 360 950 364 955 q 357 940 357 945 q 373 909 357 925 l 403 886 q 409 905 409 900 "},"ۂ":{"x_min":18,"x_max":539,"ha":539,"o":"m 539 199 l 490 199 q 405 222 441 199 q 338 282 378 238 q 301 324 319 303 q 253 348 276 348 q 135 245 200 348 q 57 95 112 208 l 18 118 q 294 523 180 523 q 390 457 333 523 q 498 383 454 383 l 539 383 l 539 199 m 347 721 q 329 691 339 701 q 306 679 321 683 l 160 634 q 183 667 173 658 q 220 684 193 677 q 192 707 200 696 q 184 727 184 717 q 189 747 184 736 q 203 769 194 758 q 291 829 247 829 q 312 820 304 829 q 320 798 320 811 q 316 779 320 787 q 304 756 313 771 q 258 773 270 773 q 233 766 246 773 q 219 756 225 762 q 251 729 219 747 q 298 711 283 711 q 347 721 306 711 "},"ⱡ":{"x_min":19,"x_max":372,"ha":386,"o":"m 372 307 l 291 307 l 291 0 l 100 0 l 100 307 l 19 307 l 19 434 l 100 434 l 100 561 l 19 561 l 19 688 l 100 688 l 100 995 l 291 995 l 291 688 l 372 688 l 372 561 l 291 561 l 291 434 l 372 434 l 372 307 "},"ﭩ":{"x_min":-47,"x_max":377,"ha":377,"o":"m 377 199 l -47 199 l -47 383 l 309 383 q 281 461 301 429 q 234 522 271 478 l 288 684 q 358 563 339 626 q 377 376 377 500 l 377 199 m 377 720 l 8 720 l 8 808 l 51 808 q 94 834 59 808 q 129 861 109 845 q 116 985 129 930 q 99 1056 116 988 l 80 1067 q 111 1163 90 1115 l 126 1156 q 125 1148 125 1152 q 157 1121 125 1137 q 189 1108 164 1118 q 178 1061 185 1082 q 165 1027 175 1051 l 154 1031 q 171 924 171 953 l 171 920 q 167 889 171 906 q 248 944 194 909 q 289 959 275 959 q 377 874 377 959 l 377 720 m 332 840 q 307 867 332 859 q 266 872 293 872 q 140 808 225 872 l 225 808 q 332 840 332 808 "},"►":{"x_min":195.328125,"x_max":1179.421875,"ha":1375,"o":"m 195 961 l 1179 470 l 195 -21 l 195 961 "},"Ӭ":{"x_min":59,"x_max":928,"ha":988,"o":"m 404 579 l 716 579 q 641 763 703 690 q 473 837 579 837 q 338 792 393 837 q 261 674 283 747 l 62 719 q 196 931 92 851 q 467 1011 300 1011 q 806 866 684 1011 q 928 491 928 722 q 871 221 928 334 q 715 45 814 107 q 477 -17 616 -17 q 59 303 137 -17 l 260 365 q 337 204 275 256 q 483 153 398 153 q 634 214 572 153 q 716 412 697 276 l 404 412 l 404 579 m 221 1085 l 221 1249 l 385 1249 l 385 1085 l 221 1085 m 514 1085 l 514 1249 l 678 1249 l 678 1085 l 514 1085 "},"῭":{"x_min":-8,"x_max":655,"ha":646,"o":"m 655 808 l 491 808 l 491 972 l 655 972 l 655 808 m 446 808 l 324 808 l 171 1011 l 374 1011 l 446 808 m 156 808 l -8 808 l -8 972 l 156 972 l 156 808 "},"ђ":{"x_min":-1,"x_max":754,"ha":848,"o":"m 289 916 l 522 916 l 522 816 l 289 816 l 289 629 q 390 710 335 683 q 511 737 446 737 q 656 698 598 737 q 734 600 714 659 q 754 422 754 541 l 754 -34 q 708 -228 754 -165 q 553 -292 663 -292 q 406 -269 495 -292 l 433 -129 q 506 -142 484 -142 q 551 -124 540 -142 q 563 -53 563 -107 l 563 380 q 555 513 563 477 q 519 569 547 548 q 444 591 490 591 q 328 541 368 591 q 289 360 289 491 l 289 0 l 98 0 l 98 816 l -1 816 l -1 916 l 98 916 l 98 995 l 289 995 l 289 916 "},"ϕ":{"x_min":55,"x_max":986,"ha":1041,"o":"m 986 370 q 802 28 986 119 q 616 -16 713 -16 l 616 -274 l 425 -274 l 425 -16 q 238 28 329 -16 q 55 370 55 120 q 101 555 55 469 q 235 690 150 644 q 425 737 320 737 l 425 995 l 616 995 l 616 737 q 939 554 842 737 q 986 370 986 465 m 791 360 q 750 512 791 451 q 616 582 702 582 l 616 139 q 750 208 702 139 q 791 360 791 269 m 425 139 l 425 582 q 290 512 338 582 q 250 360 250 451 q 290 208 250 269 q 425 139 338 139 "},"y":{"x_min":10,"x_max":751,"ha":773,"o":"m 10 721 l 213 721 l 385 209 l 554 721 l 751 721 l 496 26 l 451 -98 q 403 -194 426 -161 q 351 -248 380 -227 q 278 -280 321 -268 q 180 -292 235 -292 q 73 -280 125 -292 l 56 -131 q 136 -140 100 -140 q 235 -101 203 -140 q 284 -2 267 -62 l 10 721 "},"ⱨ":{"x_min":99,"x_max":829,"ha":848,"o":"m 829 -190 l 675 -190 l 675 0 l 563 0 l 563 380 q 560 485 563 466 q 514 573 551 548 q 445 591 487 591 q 307 498 341 591 q 290 360 290 451 l 290 0 l 99 0 l 99 995 l 290 995 l 290 629 q 509 737 381 737 q 708 650 647 737 q 754 422 754 584 l 754 154 l 829 154 l 829 -190 "},"‗":{"x_min":-13,"x_max":779,"ha":767,"o":"m -13 -275 l -13 -151 l 779 -151 l 779 -275 l -13 -275 m -13 -523 l -13 -399 l 779 -399 l 779 -523 l -13 -523 "},"ﱢ":{"x_min":48,"x_max":294,"ha":0,"o":"m 294 1232 q 276 1149 294 1181 q 222 1114 256 1114 q 199 1118 209 1114 q 176 1130 189 1122 q 150 1094 162 1107 q 104 1073 128 1073 q 62 1092 76 1073 q 48 1145 48 1111 q 53 1181 48 1162 q 66 1217 56 1194 l 80 1224 q 78 1205 80 1217 q 77 1185 77 1193 q 83 1159 77 1170 q 101 1148 89 1148 q 148 1185 130 1148 q 169 1252 156 1202 l 183 1257 q 191 1216 188 1223 q 219 1195 199 1195 q 259 1229 244 1195 q 272 1286 272 1256 l 286 1291 q 291 1261 288 1278 q 294 1232 294 1244 m 284 1088 q 249 1026 284 1056 q 52 948 188 1001 q 81 1004 52 977 q 284 1088 138 1027 "},"ﬦ":{"x_min":92,"x_max":967,"ha":1052,"o":"m 967 0 l 92 0 l 92 706 q 458 728 242 728 q 824 659 704 728 q 967 388 967 578 l 967 0 m 777 164 l 777 377 q 482 570 777 570 q 283 562 344 570 l 283 164 l 777 164 "},"ḓ":{"x_min":57,"x_max":760,"ha":848,"o":"m 760 0 l 583 0 l 583 105 q 478 14 538 44 q 357 -16 418 -16 q 145 84 233 -16 q 57 363 57 184 q 143 641 57 546 q 360 737 229 737 q 569 636 480 737 l 569 995 l 760 995 l 760 0 m 252 376 q 283 209 252 261 q 412 135 329 135 q 523 190 477 135 q 570 357 570 246 q 525 536 570 481 q 411 591 480 591 q 297 537 343 591 q 252 376 252 483 m 636 -274 l 483 -274 l 404 -173 l 332 -274 l 178 -274 l 320 -75 l 495 -75 l 636 -274 "},"ƅ":{"x_min":7,"x_max":794,"ha":848,"o":"m 794 367 q 723 106 794 211 q 493 -16 642 -16 q 269 106 356 -16 l 269 0 l 92 0 l 92 737 l 7 842 l 7 864 l 245 995 l 283 995 l 283 636 q 491 737 370 737 q 722 624 641 737 q 794 367 794 524 m 599 358 q 440 591 599 591 q 315 521 357 591 q 282 376 282 465 q 317 210 282 264 q 447 135 366 135 q 568 210 528 135 q 599 358 599 269 "},"ë":{"x_min":44,"x_max":717.171875,"ha":773,"o":"m 517 229 l 707 197 q 591 38 670 92 q 393 -16 512 -16 q 115 106 205 -16 q 44 355 44 205 q 137 635 44 534 q 374 737 231 737 q 628 630 535 737 q 717 305 721 524 l 239 305 q 285 173 241 220 q 395 126 329 126 q 470 150 440 126 q 517 229 501 174 m 528 422 q 485 547 525 504 q 385 591 444 591 q 282 545 323 591 q 242 422 241 500 l 528 422 m 157 814 l 157 978 l 321 978 l 321 814 l 157 814 m 449 814 l 449 978 l 613 978 l 613 814 l 449 814 "},"б":{"x_min":62,"x_max":799,"ha":858,"o":"m 640 1017 l 770 1017 q 724 886 763 931 q 532 842 685 842 q 495 843 513 842 l 471 843 q 323 822 380 843 q 229 745 266 802 q 192 559 193 687 q 300 678 234 639 q 460 718 367 718 q 700 607 602 718 q 799 352 799 497 q 695 92 799 201 q 425 -16 592 -16 q 223 38 310 -16 q 99 189 136 93 q 62 504 62 284 q 157 876 62 763 q 490 990 252 990 l 586 990 q 640 1017 626 990 m 256 354 q 305 199 256 256 q 425 142 354 142 q 551 201 502 142 q 601 354 601 260 q 551 508 601 449 q 427 567 501 567 q 306 509 356 567 q 256 354 256 451 "},"Ẏ":{"x_min":-2.5,"x_max":928.5,"ha":927,"o":"m 362 0 l 362 418 l -2 995 l 232 995 l 467 600 l 697 995 l 928 995 l 563 417 l 563 0 l 362 0 m 369 1085 l 369 1265 l 556 1265 l 556 1085 l 369 1085 "},"ṝ":{"x_min":92,"x_max":559,"ha":541,"o":"m 283 0 l 92 0 l 92 721 l 269 721 l 269 618 q 350 714 314 691 q 433 737 387 737 q 559 701 498 737 l 499 534 q 410 566 451 566 q 342 543 370 566 q 298 464 314 521 q 283 222 283 406 l 283 0 m 188 -272 l 188 -81 l 379 -81 l 379 -272 l 188 -272 m 95 814 l 95 939 l 532 939 l 532 814 l 95 814 "},"ӌ":{"x_min":77,"x_max":716,"ha":806,"o":"m 716 0 l 604 0 l 604 -190 l 450 -190 l 450 154 l 525 154 l 525 287 q 355 258 413 258 q 209 290 276 258 q 102 392 131 327 q 77 548 77 451 l 77 721 l 270 721 l 270 548 q 277 470 270 494 q 324 411 289 432 q 411 390 359 390 q 525 413 462 390 l 525 721 l 716 721 l 716 0 "},"☻":{"x_min":298.421875,"x_max":1163.15625,"ha":1462,"o":"m 1163 351 q 1036 45 1163 172 q 731 -80 910 -80 q 425 45 552 -80 q 298 351 298 172 q 425 657 298 531 q 731 784 552 784 q 1036 657 910 784 q 1163 351 1163 531 m 619 440 q 603 479 619 463 q 564 495 588 495 q 526 479 542 495 q 510 440 510 463 q 526 402 510 418 q 564 385 542 385 q 603 402 588 385 q 619 440 619 418 m 951 440 q 935 479 951 463 q 896 495 919 495 q 857 479 874 495 q 841 440 841 463 q 857 402 841 418 q 896 385 874 385 q 935 402 919 385 q 951 440 951 418 m 531 212 q 615 113 565 147 q 731 80 664 80 q 846 113 796 80 q 930 212 896 147 l 887 236 q 731 139 834 139 q 573 236 627 139 l 531 212 "},"ﮛ":{"x_min":28,"x_max":1221,"ha":1221,"o":"m 536 383 q 646 386 609 383 q 736 407 705 391 q 773 461 773 425 q 750 506 773 479 q 699 549 727 534 l 675 525 q 610 588 623 574 q 572 681 572 631 q 581 777 572 749 q 639 847 595 816 q 739 901 676 873 q 863 952 790 924 q 994 1002 928 976 l 994 841 l 921 818 q 785 771 838 792 q 712 731 712 743 q 712 717 712 721 q 726 685 712 701 q 805 616 745 663 q 928 505 849 581 q 1028 418 995 441 q 1123 383 1078 383 l 1221 383 l 1221 199 l 1128 199 q 1015 243 1078 199 q 911 337 965 278 q 837 428 883 368 q 762 259 837 315 q 506 199 682 199 l 296 199 q 85 249 150 199 q 28 387 28 293 q 47 511 28 450 q 113 656 66 572 l 154 627 q 119 549 127 575 q 112 496 112 524 q 160 407 112 431 q 344 383 208 383 l 536 383 m 994 1217 l 994 1066 q 741 961 848 1012 q 586 877 643 915 l 586 981 q 666 1043 609 1004 q 809 1129 734 1089 q 994 1217 902 1180 m 837 1208 l 800 1137 l 703 1166 l 740 1238 l 837 1208 m 696 1146 l 659 1075 l 562 1104 l 599 1176 l 696 1146 "},"ʋ":{"x_min":98,"x_max":746,"ha":808,"o":"m 746 496 q 394 -16 746 -16 q 98 331 98 -16 l 98 721 l 289 721 l 289 300 q 395 139 289 139 q 535 274 499 139 q 555 496 555 349 q 477 591 555 591 q 390 580 436 591 l 365 712 q 524 737 442 737 q 746 496 746 737 "},"┼":{"x_min":-15.59375,"x_max":999.015625,"ha":984,"o":"m 432 362 l -15 362 l -15 480 l 432 480 l 432 1264 l 550 1264 l 550 480 l 999 480 l 999 362 l 550 362 l 550 -421 l 432 -421 l 432 362 "},"₰":{"x_min":0,"x_max":773,"ha":773,"o":"m 773 792 q 574 374 773 690 l 680 2 q 689 -53 689 -29 q 609 -241 689 -179 q 428 -292 542 -292 q 282 -279 346 -292 l 282 -110 q 396 -137 342 -137 q 492 -43 491 -137 q 487 -12 492 -27 l 438 160 l 332 -9 l 247 56 l 214 0 l 0 0 l 197 326 l 276 265 l 367 411 l 273 745 q 269 795 269 762 q 336 948 269 889 q 526 1012 406 1012 q 715 946 650 1012 q 773 792 773 887 m 578 792 q 521 857 578 857 q 463 791 463 857 q 467 747 463 762 l 502 626 q 578 792 578 747 "},"ﻓ":{"x_min":-47,"x_max":423,"ha":423,"o":"m 325 1094 l 243 943 l 84 1025 l 171 1179 l 325 1094 m 423 199 l -47 199 l -47 383 l 359 383 q 355 466 359 441 q 333 533 350 505 q 274 469 311 491 q 196 447 238 447 q 105 482 142 447 q 68 573 68 518 q 116 763 68 653 q 225 884 170 884 q 359 760 296 884 q 423 497 423 636 l 423 199 m 275 654 q 243 698 257 686 q 212 711 229 711 q 176 692 192 711 q 160 650 160 674 q 172 624 160 634 q 204 614 185 614 q 236 623 220 614 q 275 654 252 632 "},"ц":{"x_min":93,"x_max":822,"ha":854,"o":"m 93 721 l 284 721 l 284 154 l 556 154 l 556 721 l 747 721 l 747 154 l 822 154 l 822 -190 l 668 -190 l 668 0 l 93 0 l 93 721 "},"w":{"x_min":6,"x_max":1080,"ha":1081,"o":"m 234 0 l 6 721 l 191 721 l 326 248 l 450 721 l 634 721 l 754 248 l 892 721 l 1080 721 l 848 0 l 665 0 l 541 463 l 419 0 l 234 0 "},"о":{"x_min":56,"x_max":798,"ha":848,"o":"m 56 370 q 102 554 56 465 q 235 690 149 643 q 426 737 320 737 q 693 630 589 737 q 798 362 798 524 q 692 91 798 199 q 427 -16 587 -16 q 239 28 328 -16 q 102 160 149 73 q 56 370 56 246 m 251 360 q 301 196 251 253 q 426 139 352 139 q 551 196 501 139 q 602 361 602 253 q 551 524 602 467 q 426 582 501 582 q 301 524 352 582 q 251 360 251 467 "},"᷅":{"x_min":-203.40625,"x_max":213,"ha":0,"o":"m 213 832 l -19 832 l -203 932 l -160 1019 l 0 932 l 213 932 l 213 832 "},"Д":{"x_min":-4,"x_max":956,"ha":990,"o":"m 181 995 l 869 995 l 869 167 l 956 167 l 956 -217 l 789 -217 l 789 0 l 163 0 l 163 -217 l -4 -217 l -4 167 l 80 167 q 161 463 141 294 q 181 889 181 631 l 181 995 m 372 828 q 290 167 372 374 l 668 167 l 668 828 l 372 828 "},"אּ":{"x_min":61,"x_max":791,"ha":809,"o":"m 575 306 l 791 0 l 568 0 l 317 356 q 256 143 269 309 l 246 0 l 62 0 l 75 152 q 128 376 89 308 q 228 481 168 444 l 61 720 l 283 720 l 491 425 q 554 601 543 464 l 564 720 l 741 720 l 732 632 q 680 415 718 480 q 575 306 641 350 m 370 164 q 410 147 393 164 q 427 107 427 131 q 419 78 427 90 q 399 57 412 65 q 370 50 386 50 q 340 57 353 50 q 320 78 327 65 q 313 107 313 90 q 329 147 313 131 q 370 164 345 164 "},"ﭴ":{"x_min":-47,"x_max":727,"ha":727,"o":"m 727 199 l -47 199 l -47 383 l 434 383 q 283 504 352 467 q 162 538 221 538 q 130 536 144 538 q 88 529 115 534 q 171 654 125 614 q 275 695 216 695 q 361 673 319 695 q 453 603 402 651 q 569 485 494 565 q 646 411 619 428 q 727 383 673 394 l 727 199 m 416 83 l 348 -57 l 221 10 l 290 149 l 416 83 m 380 -31 l 506 -96 l 438 -237 l 311 -169 l 380 -31 "},"Ḯ":{"x_min":18,"x_max":382,"ha":386,"o":"m 95 0 l 95 995 l 296 995 l 296 0 l 95 0 m 382 1251 l 224 1130 l 123 1130 l 214 1251 l 382 1251 m 375 1015 l 280 1015 l 280 1118 l 375 1118 l 375 1015 m 113 1015 l 18 1015 l 18 1118 l 113 1118 l 113 1015 "},"Ӂ":{"x_min":16,"x_max":1240,"ha":1256,"o":"m 726 995 l 726 571 q 801 608 776 575 q 873 760 827 641 q 995 958 932 915 q 1200 1000 1057 1000 q 1230 1001 1207 1000 l 1230 852 l 1200 852 q 1111 837 1139 852 q 1065 791 1082 822 q 1012 662 1047 759 q 973 576 994 611 q 897 511 951 542 q 1008 434 964 492 q 1104 272 1052 377 l 1240 0 l 1003 0 l 884 256 q 872 277 882 262 q 848 324 867 287 q 786 415 810 395 q 726 435 761 435 l 726 0 l 530 0 l 530 435 q 470 415 495 435 q 408 324 445 396 q 383 277 387 283 q 371 256 377 267 l 252 0 l 16 0 l 151 272 q 246 432 201 373 q 359 511 290 492 q 283 576 304 542 q 243 662 262 610 q 191 789 209 757 q 145 837 174 821 q 51 852 116 852 q 26 852 43 852 l 26 1001 q 55 1000 48 1000 q 262 957 201 1000 q 382 760 323 914 q 454 607 428 640 q 530 571 479 575 l 530 995 l 726 995 m 748 1283 l 841 1283 q 776 1137 832 1190 q 629 1085 719 1085 q 482 1137 539 1085 q 417 1283 426 1190 l 510 1283 q 544 1209 515 1234 q 629 1185 573 1185 q 714 1209 685 1185 q 748 1283 743 1234 "},"Ḁ":{"x_min":0,"x_max":998,"ha":1003,"o":"m 998 0 l 779 0 l 693 226 l 295 226 l 212 0 l 0 0 l 387 995 l 599 995 l 998 0 m 628 394 l 491 763 l 356 394 l 628 394 m 594 -159 q 555 -253 594 -214 q 461 -292 516 -292 q 367 -252 406 -292 q 328 -159 328 -213 q 366 -64 328 -103 q 461 -26 405 -26 q 555 -64 517 -26 q 594 -159 594 -102 m 521 -159 q 503 -116 521 -134 q 461 -99 485 -99 q 418 -116 436 -99 q 401 -159 401 -134 q 418 -201 401 -183 q 461 -219 436 -219 q 503 -201 485 -219 q 521 -159 521 -183 "},"͌":{"x_min":-234.671875,"x_max":235,"ha":0,"o":"m 235 1178 q 114 1007 233 1007 q 68 1011 89 1007 q -15 1042 52 1015 q -100 1064 -70 1064 q -147 1004 -145 1064 l -234 1004 q -234 1028 -234 1019 q -205 1132 -234 1092 q -111 1177 -172 1177 q 7 1143 -68 1177 q 91 1119 62 1119 q 147 1178 139 1119 l 235 1178 m 235 991 q 114 820 233 820 q 68 824 89 820 q -15 855 52 828 q -100 877 -70 877 q -147 817 -145 877 l -234 817 q -234 841 -234 832 q -205 945 -234 905 q -111 990 -172 990 q 7 956 -68 990 q 91 932 62 932 q 147 991 139 932 l 235 991 "},"Ĵ":{"x_min":24,"x_max":789,"ha":773,"o":"m 459 995 l 660 995 l 660 365 q 638 175 660 241 q 532 35 609 88 q 330 -17 455 -17 q 104 65 183 -17 q 24 307 24 147 l 213 329 q 238 208 216 243 q 336 155 270 155 q 431 193 403 155 q 459 352 459 231 l 459 995 m 331 1085 l 473 1284 l 648 1284 l 789 1085 l 636 1085 l 557 1186 l 485 1085 l 331 1085 "},"Ҕ":{"x_min":106,"x_max":891,"ha":976,"o":"m 891 237 q 813 -129 891 -4 q 472 -292 712 -292 q 106 -85 187 -292 l 307 -54 q 350 -107 315 -83 q 462 -137 395 -137 q 690 190 690 -137 q 501 485 690 485 q 307 430 403 485 l 307 0 l 106 0 l 106 995 l 779 995 l 779 828 l 307 828 l 307 595 q 536 650 418 650 q 794 538 697 650 q 891 237 891 426 "},"٦":{"x_min":144,"x_max":592,"ha":780,"o":"m 592 427 l 556 208 q 434 338 462 272 q 406 545 406 404 q 410 646 406 598 q 418 726 415 694 q 344 713 373 717 q 290 710 314 710 q 180 730 211 710 q 144 819 144 754 q 147 948 144 849 q 149 997 147 966 l 182 997 q 213 933 190 947 q 314 920 236 920 q 378 923 350 920 q 495 944 406 927 q 472 841 477 876 q 467 756 467 807 q 487 588 467 648 q 592 427 513 512 "},"г":{"x_min":92,"x_max":579,"ha":579,"o":"m 92 721 l 579 721 l 579 567 l 283 567 l 283 0 l 92 0 l 92 721 "},"ấ":{"x_min":50,"x_max":726,"ha":773,"o":"m 243 501 l 70 532 q 170 686 99 636 q 382 737 241 737 q 572 706 510 737 q 660 630 635 676 q 686 459 686 583 l 683 236 q 692 96 683 141 q 726 0 701 51 l 537 0 q 518 56 529 18 q 511 78 513 73 q 407 7 463 31 q 289 -16 352 -16 q 114 44 178 -16 q 50 196 50 104 q 79 305 50 257 q 160 378 108 353 q 312 423 213 404 q 498 470 446 448 l 498 489 q 470 567 498 544 q 368 591 443 591 q 289 571 317 591 q 243 501 260 551 m 498 346 q 382 316 461 333 q 278 283 302 299 q 241 216 241 257 q 270 147 241 176 q 346 118 300 118 q 445 151 398 118 q 490 215 479 177 q 498 308 498 239 l 498 346 m 173 812 l 315 1011 l 490 1011 l 631 812 l 478 812 l 399 913 l 327 812 l 173 812 m 312 1048 l 400 1239 l 613 1239 l 433 1048 l 312 1048 "},"ݧ":{"x_min":42,"x_max":751,"ha":751,"o":"m 528 765 l 446 614 l 287 696 l 369 850 l 528 765 m 751 231 q 732 81 751 138 q 672 -9 714 25 q 550 -65 631 -43 q 384 -88 470 -88 q 131 -28 220 -88 q 42 142 42 31 q 70 314 42 236 q 192 538 101 400 l 233 509 q 145 343 166 395 q 125 237 125 292 q 201 121 125 166 q 401 76 277 76 q 606 122 523 76 q 690 237 690 169 q 675 320 690 279 q 613 452 660 361 l 672 636 q 730 517 719 549 q 751 367 751 458 l 751 231 m 551 -151 l 514 -223 l 417 -193 l 454 -122 l 551 -151 m 410 -213 l 373 -285 l 276 -255 l 313 -184 l 410 -213 "},"Ŀ":{"x_min":106,"x_max":806,"ha":848,"o":"m 106 0 l 106 986 l 307 986 l 307 168 l 806 168 l 806 0 l 106 0 m 527 494 l 527 685 l 718 685 l 718 494 l 527 494 "},"ﺀ":{"x_min":85,"x_max":586,"ha":651,"o":"m 586 461 l 532 305 q 359 246 426 279 q 244 169 296 216 q 144 64 210 139 l 104 78 q 127 169 104 123 q 189 261 144 204 q 105 354 125 325 q 85 412 85 383 q 137 544 85 450 q 227 673 189 638 q 315 708 264 708 q 400 687 363 708 q 480 614 436 667 l 389 464 q 329 516 357 499 q 276 533 301 533 q 238 521 255 533 q 222 493 222 509 q 250 448 222 471 q 345 390 278 425 q 473 443 431 431 q 586 461 516 454 "},"ᾙ":{"x_min":1,"x_max":1033,"ha":1139,"o":"m 238 0 l 238 995 l 439 995 l 439 603 l 832 603 l 832 995 l 1033 995 l 1033 0 l 832 0 l 832 435 l 439 435 l 439 0 l 238 0 m 167 785 l 134 723 q 29 795 58 754 q 1 916 1 835 l 1 1011 l 157 1011 l 157 881 l 85 881 q 106 818 85 839 q 167 785 121 804 m 731 -276 l 540 -276 l 574 -86 l 696 -86 l 731 -276 "},"ئ":{"x_min":102,"x_max":798,"ha":895,"o":"m 798 528 q 790 466 798 490 q 758 402 783 442 q 727 464 740 449 q 691 479 715 479 q 590 437 654 479 q 527 367 527 396 q 552 347 527 353 q 609 343 571 343 q 629 343 619 343 q 649 343 639 343 q 747 328 723 343 q 769 278 769 315 q 741 138 769 205 q 643 17 707 53 q 475 -55 562 -27 q 313 -83 388 -83 q 102 106 102 -83 q 125 270 102 201 q 237 480 152 347 l 269 459 q 193 309 218 374 q 168 193 168 243 q 312 66 168 66 q 415 75 366 66 q 514 102 464 85 q 589 132 547 114 q 660 164 656 162 q 691 192 691 180 q 658 201 691 199 q 611 203 625 203 q 472 232 507 203 q 444 322 444 257 q 464 401 444 354 q 516 495 484 448 q 615 603 566 566 q 712 640 665 640 q 774 609 751 640 q 798 528 798 578 m 312 651 q 295 619 305 629 q 272 607 288 611 l 126 562 q 149 595 139 586 q 185 614 159 605 q 157 637 165 626 q 149 657 149 647 q 154 677 149 666 q 168 699 159 689 q 256 759 212 759 q 277 750 269 759 q 285 728 285 741 q 281 709 285 717 q 269 686 278 701 q 223 703 235 703 q 198 696 211 703 q 184 686 190 692 q 216 659 184 677 q 263 641 248 641 q 312 651 271 641 "},"ᵳ":{"x_min":-42.6875,"x_max":559,"ha":541,"o":"m 559 701 l 500 534 q 410 566 451 566 q 283 365 283 566 l 283 330 q 339 389 331 330 l 426 389 q 306 218 424 218 q 283 220 295 218 l 283 0 l 92 0 l 92 278 q 45 216 46 278 l -42 216 q -42 230 -42 222 q -7 350 -42 309 q 92 388 23 387 q 406 737 101 737 q 559 701 493 737 "},"ʟ":{"x_min":92,"x_max":578,"ha":628,"o":"m 578 0 l 92 0 l 92 721 l 283 721 l 283 154 l 578 154 l 578 0 "},"Ǟ":{"x_min":0,"x_max":998,"ha":1003,"o":"m 998 0 l 779 0 l 693 226 l 295 226 l 212 0 l 0 0 l 387 995 l 599 995 l 998 0 m 628 394 l 491 763 l 356 394 l 628 394 m 670 1167 l 319 1167 l 319 1250 l 670 1250 l 670 1167 m 673 1014 l 578 1014 l 578 1117 l 673 1117 l 673 1014 m 411 1014 l 316 1014 l 316 1117 l 411 1117 l 411 1014 "},"ۧ":{"x_min":-257,"x_max":258,"ha":0,"o":"m 258 798 l 175 720 l -201 720 q -257 740 -257 720 q -248 822 -257 768 q -228 890 -239 876 q -178 923 -221 899 q -120 953 -159 933 q -62 1011 -107 960 q -18 1047 -29 1047 q 10 971 10 1047 q 7 919 10 933 q -32 959 -12 959 q -88 907 -59 959 q -109 877 -95 894 l -175 844 q -214 816 -214 824 q -183 808 -214 808 l 258 808 l 258 798 "},"Җ":{"x_min":16,"x_max":1240,"ha":1255,"o":"m 1240 -217 l 1073 -217 l 1073 0 l 1004 0 l 884 257 q 873 278 882 262 q 848 325 867 289 q 802 400 819 381 q 726 436 770 436 l 726 0 l 530 0 l 530 436 q 454 400 485 436 q 408 325 437 381 q 382 278 388 287 q 371 257 376 267 l 251 0 l 16 0 l 151 273 q 232 415 202 375 q 359 512 288 492 q 243 664 281 556 q 207 760 211 751 q 146 838 180 819 q 51 854 117 854 q 26 853 43 854 l 26 1002 q 55 1001 48 1001 q 268 952 205 1001 q 382 761 326 908 q 432 642 421 661 q 530 572 470 576 l 530 995 l 726 995 l 726 572 q 823 641 786 576 q 873 761 834 659 q 987 951 929 907 q 1200 1001 1050 1001 q 1230 1002 1207 1001 l 1230 853 l 1200 854 q 1065 792 1101 856 q 1012 664 1047 761 q 971 575 991 602 q 897 512 947 540 q 1024 416 968 491 q 1104 273 1053 375 l 1157 167 l 1240 167 l 1240 -217 "},"€":{"x_min":-22,"x_max":730,"ha":773,"o":"m 730 969 l 689 781 q 521 839 631 839 q 341 759 410 839 q 287 648 303 715 l 661 648 l 639 543 l 273 543 q 273 502 273 527 q 274 453 273 478 l 620 453 l 598 348 l 288 348 q 340 234 305 275 q 517 155 408 155 q 725 235 647 155 l 725 27 q 519 -17 636 -17 q 193 118 321 -17 q 78 348 106 210 l -22 348 l 0 453 l 66 453 q 66 487 66 469 q 67 543 66 519 l -22 543 l 0 648 l 80 648 q 194 873 109 783 q 531 1011 322 1011 q 730 969 645 1011 "},"ﮑ":{"x_min":-47,"x_max":753,"ha":753,"o":"m -47 199 l -47 383 l 68 383 q 178 386 141 383 q 268 407 237 391 q 305 461 305 425 q 282 506 305 479 q 231 549 259 534 l 207 525 q 142 588 155 574 q 104 681 104 631 q 113 777 104 749 q 171 847 127 816 q 271 901 208 873 q 395 952 322 924 q 526 1002 460 976 l 526 841 l 453 818 q 317 771 370 792 q 244 731 244 743 q 244 717 244 721 q 258 685 244 701 q 337 616 277 663 q 460 505 381 581 q 560 418 527 441 q 655 383 610 383 l 753 383 l 753 199 l 660 199 q 547 243 610 199 q 443 337 497 278 q 369 428 415 368 q 294 259 369 315 q 38 199 214 199 l -47 199 "},"Ἀ":{"x_min":0,"x_max":998,"ha":1003,"o":"m 998 0 l 779 0 l 693 226 l 295 226 l 212 0 l 0 0 l 387 995 l 599 995 l 998 0 m 628 394 l 491 763 l 356 394 l 628 394 m 248 916 q 219 795 248 835 q 114 723 190 754 l 82 785 q 142 818 127 804 q 163 881 163 839 l 92 881 l 92 1011 l 248 1011 l 248 916 "},"С":{"x_min":66,"x_max":932,"ha":1003,"o":"m 737 367 l 932 305 q 783 62 887 141 q 519 -17 679 -17 q 193 118 320 -17 q 66 488 66 253 q 194 873 66 736 q 531 1011 322 1011 q 827 902 713 1011 q 929 719 895 838 l 730 672 q 656 794 712 749 q 520 839 600 839 q 341 759 410 839 q 273 503 273 680 q 340 234 273 314 q 516 155 408 155 q 654 206 596 155 q 737 367 711 257 "},"└":{"x_min":432.703125,"x_max":999.703125,"ha":984,"o":"m 432 362 l 432 1264 l 551 1264 l 551 480 l 999 480 l 999 362 l 432 362 "},"Ӓ":{"x_min":0,"x_max":998,"ha":1003,"o":"m 998 0 l 779 0 l 693 226 l 295 226 l 212 0 l 0 0 l 387 995 l 599 995 l 998 0 m 628 394 l 491 763 l 356 394 l 628 394 m 265 1085 l 265 1249 l 429 1249 l 429 1085 l 265 1085 m 558 1085 l 558 1249 l 722 1249 l 722 1085 l 558 1085 "},"ᵄ":{"x_min":33,"x_max":490,"ha":524,"o":"m 490 675 q 415 552 490 588 q 312 521 377 534 q 187 490 222 504 l 187 477 q 210 421 187 436 q 274 409 229 409 q 360 470 338 409 l 477 449 q 265 311 438 311 q 77 383 118 311 q 61 497 61 414 l 61 648 q 56 743 61 719 q 33 808 50 773 l 160 808 q 172 770 167 789 q 177 755 174 763 q 328 819 242 819 q 442 782 398 819 q 490 675 490 743 m 362 661 q 340 709 362 690 q 289 728 319 728 q 223 705 253 728 q 192 662 199 688 q 187 599 187 644 l 187 574 q 336 616 249 586 q 362 661 362 633 "},"Ὕ":{"x_min":0,"x_max":1456.5,"ha":1455,"o":"m 890 0 l 890 418 l 525 995 l 760 995 l 995 600 l 1225 995 l 1456 995 l 1091 417 l 1091 0 l 890 0 m 482 1011 l 294 808 l 175 808 l 269 1011 l 482 1011 m 166 785 l 133 723 q 28 795 57 754 q 0 916 0 835 l 0 1011 l 156 1011 l 156 881 l 84 881 q 105 818 84 839 q 166 785 120 804 "},"ẳ":{"x_min":50,"x_max":726,"ha":773,"o":"m 243 501 l 70 532 q 170 686 99 636 q 382 737 241 737 q 572 706 510 737 q 660 630 635 676 q 686 459 686 583 l 683 236 q 692 96 683 141 q 726 0 701 51 l 537 0 q 518 56 529 18 q 511 78 513 73 q 407 7 463 31 q 289 -16 352 -16 q 114 44 178 -16 q 50 196 50 104 q 79 305 50 257 q 160 378 108 353 q 312 423 213 404 q 498 470 446 448 l 498 489 q 470 567 498 544 q 368 591 443 591 q 289 571 317 591 q 243 501 260 551 m 498 346 q 382 316 461 333 q 278 283 302 299 q 241 216 241 257 q 270 147 241 176 q 346 118 300 118 q 445 151 398 118 q 490 215 479 177 q 498 308 498 239 l 498 346 m 521 1011 l 614 1011 q 549 865 605 918 q 402 813 492 813 q 255 865 312 813 q 191 1011 199 918 l 284 1011 q 317 937 288 962 q 402 913 347 913 q 487 937 458 913 q 521 1011 516 962 m 348 1107 q 397 1114 386 1111 q 434 1145 433 1123 q 415 1171 434 1160 q 324 1187 386 1187 q 261 1184 303 1187 l 253 1253 q 351 1258 279 1258 q 487 1230 434 1257 q 547 1151 545 1202 q 424 1066 549 1081 l 424 1032 l 348 1032 l 348 1107 "},"ڍ":{"x_min":71,"x_max":476,"ha":476,"o":"m 476 199 l 168 199 q 100 217 123 199 q 71 293 71 240 q 74 357 71 322 q 83 427 77 391 l 109 428 q 133 393 114 404 q 178 383 151 383 l 412 383 q 357 542 396 482 q 269 628 325 592 l 317 840 q 442 670 405 774 q 476 416 476 574 l 476 199 m 459 79 l 388 -52 l 289 -1 l 232 -112 l 109 -42 l 183 96 l 279 41 l 333 149 l 459 79 "},"♣":{"x_min":37.296875,"x_max":873.546875,"ha":912,"o":"m 744 0 l 169 0 l 174 23 q 323 69 286 46 q 413 172 378 104 q 448 315 448 240 q 447 346 448 326 q 346 223 406 262 q 225 185 287 185 q 92 240 147 185 q 37 375 37 295 q 87 507 37 453 q 201 561 137 561 q 311 526 242 561 q 275 598 283 574 q 266 650 266 622 q 320 781 266 727 q 453 834 373 834 q 588 781 533 834 q 642 653 642 727 q 596 526 642 593 q 664 557 653 554 q 706 562 682 562 q 823 509 773 562 q 873 377 873 456 q 818 241 873 296 q 687 185 764 185 q 599 206 644 185 q 521 261 554 227 q 462 346 497 286 q 495 176 465 238 q 588 71 525 113 q 739 23 630 44 l 744 0 "},"ᴹ":{"x_min":34,"x_max":684,"ha":718,"o":"m 684 321 l 558 321 l 558 851 l 424 321 l 293 321 l 160 851 l 160 321 l 34 321 l 34 995 l 237 995 l 359 535 l 479 995 l 684 995 l 684 321 "},"¶":{"x_min":-1,"x_max":767,"ha":773,"o":"m 431 -273 l 266 -273 l 266 437 q 68 519 137 446 q -1 713 -1 593 q 26 844 -1 785 q 101 938 54 904 q 212 986 149 973 q 361 995 250 995 l 767 995 l 767 818 l 690 818 l 690 -273 l 529 -273 l 529 818 l 431 818 l 431 -273 "},"ﻔ":{"x_min":-47,"x_max":450,"ha":450,"o":"m 385 998 l 303 847 l 144 929 l 226 1083 l 385 998 m 450 199 l -47 199 l -47 383 l 74 383 q 133 380 105 383 q 303 361 208 371 q 162 420 202 383 q 122 528 122 457 q 170 718 122 633 q 279 803 218 803 q 398 684 347 803 q 450 398 450 566 l 450 199 m 358 480 q 303 571 333 538 q 243 604 273 604 q 220 595 230 604 q 210 574 210 586 q 253 517 210 544 q 358 480 297 489 "},"Ụ":{"x_min":100,"x_max":892,"ha":1003,"o":"m 100 995 l 301 995 l 301 456 q 308 290 301 328 q 369 191 321 228 q 501 155 417 155 q 630 189 586 155 q 682 275 673 224 q 691 444 691 326 l 691 995 l 892 995 l 892 472 q 875 219 892 293 q 815 94 859 145 q 698 13 772 43 q 507 -17 625 -17 q 292 15 365 -17 q 175 101 218 48 q 119 211 133 154 q 100 464 100 297 l 100 995 m 404 -272 l 404 -81 l 595 -81 l 595 -272 l 404 -272 "},"­":{"x_min":78,"x_max":453,"ha":463,"o":"m 78 265 l 78 456 l 453 456 l 453 265 l 78 265 "},"خ":{"x_min":35,"x_max":781,"ha":802,"o":"m 482 951 l 400 800 l 241 882 l 322 1036 l 482 951 m 781 -121 l 519 -282 q 163 -189 277 -282 q 47 108 47 -94 q 102 356 47 248 q 279 549 158 463 q 136 525 198 549 q 35 480 114 516 q 274 732 67 732 q 377 725 306 732 q 502 714 448 718 q 706 708 605 708 l 665 541 q 268 415 405 508 q 132 179 132 323 q 244 -28 132 43 q 567 -100 356 -100 q 670 -94 573 -100 q 767 -91 723 -91 l 781 -121 "},"ḳ":{"x_min":93,"x_max":759.5,"ha":773,"o":"m 93 0 l 93 995 l 284 995 l 284 467 l 506 721 l 741 721 l 495 457 l 759 0 l 553 0 l 372 323 l 284 230 l 284 0 l 93 0 m 303 -272 l 303 -81 l 494 -81 l 494 -272 l 303 -272 "},"ѫ":{"x_min":80,"x_max":966,"ha":1047,"o":"m 966 0 l 775 0 l 775 29 q 767 136 775 102 q 712 225 754 195 q 619 257 677 251 l 619 0 l 428 0 l 428 257 q 284 157 311 247 q 271 29 271 112 l 271 0 l 80 0 l 80 29 q 101 213 80 148 q 215 353 132 301 q 348 403 270 387 l 149 721 l 893 721 l 696 403 q 833 351 780 386 q 944 211 916 295 q 966 29 966 149 l 966 0 m 607 563 l 439 563 l 520 403 l 607 563 "},"Ѝ":{"x_min":104,"x_max":894,"ha":998,"o":"m 104 995 l 292 995 l 292 332 l 694 995 l 894 995 l 894 0 l 706 0 l 706 649 l 305 0 l 104 0 l 104 995 m 578 1085 l 459 1085 l 271 1288 l 484 1288 l 578 1085 "},"̯":{"x_min":-212,"x_max":211,"ha":0,"o":"m 211 -274 l 118 -274 q 0 -176 108 -176 q -119 -274 -109 -176 l -212 -274 q -147 -129 -203 -182 q 0 -76 -92 -76 q 147 -128 91 -76 q 211 -274 202 -181 "},"ᶹ":{"x_min":34,"x_max":472,"ha":506,"o":"m 472 657 q 234 311 472 311 q 34 545 34 311 l 34 808 l 163 808 l 163 525 q 234 416 163 416 q 330 507 305 416 q 343 656 343 556 q 291 720 343 720 q 232 712 263 720 l 215 802 q 322 819 267 819 q 472 657 472 819 "},"ǲ":{"x_min":100,"x_max":1669,"ha":1698,"o":"m 100 995 l 467 995 q 656 976 591 995 q 806 884 743 950 q 901 723 868 818 q 934 488 934 627 q 903 276 934 365 q 796 100 866 167 q 655 21 744 49 q 477 0 589 0 l 100 0 l 100 995 m 301 827 l 301 168 l 451 168 q 572 177 535 168 q 653 218 621 189 q 706 314 686 248 q 727 497 727 381 q 706 674 727 612 q 649 770 686 736 q 556 817 612 805 q 391 827 514 827 l 301 827 m 1026 0 l 1026 150 l 1295 459 q 1394 567 1362 535 q 1306 564 1360 565 l 1052 563 l 1052 721 l 1648 721 l 1648 586 l 1372 268 l 1276 164 q 1374 168 1355 168 l 1669 168 l 1669 0 l 1026 0 "},"͞":{"x_min":-117,"x_max":675,"ha":0,"o":"m 675 839 l -117 839 l -117 963 l 675 963 l 675 839 "},"Ƨ":{"x_min":68,"x_max":876,"ha":926,"o":"m 876 323 q 465 -18 836 -18 q 115 129 209 -18 q 68 289 68 203 q 217 549 68 470 q 432 617 265 574 q 618 687 582 656 q 648 747 648 712 q 616 809 648 786 q 479 845 566 845 q 355 813 397 845 q 297 701 310 779 l 96 709 q 214 943 101 865 q 477 1011 313 1011 q 797 876 709 1011 q 840 733 840 810 q 748 533 840 615 q 522 435 683 475 q 361 392 395 404 q 269 288 269 359 q 335 182 269 219 q 464 152 388 152 q 681 342 647 152 l 876 323 "},"У":{"x_min":-0.5,"x_max":864.5,"ha":864,"o":"m 0 995 l 225 995 l 456 479 l 654 995 l 864 995 l 528 239 q 416 52 473 116 q 269 -12 359 -12 q 130 0 180 -12 l 130 148 q 207 146 172 146 q 307 171 277 146 q 365 281 337 197 l 0 995 "},"ᾢ":{"x_min":54,"x_max":1121,"ha":1172,"o":"m 156 721 l 338 721 q 249 341 249 535 q 288 182 249 229 q 382 135 328 135 q 447 158 419 135 q 483 214 475 181 q 492 318 492 248 l 492 537 l 683 537 l 683 318 q 690 216 683 251 q 727 158 698 181 q 792 135 756 135 q 887 184 849 135 q 926 348 926 234 q 902 529 926 425 q 837 721 879 633 l 1019 721 q 1088 548 1056 657 q 1121 347 1121 438 q 1036 86 1121 188 q 816 -16 952 -16 q 587 135 652 -16 q 358 -16 522 -16 q 137 86 221 -16 q 54 347 54 188 q 86 548 54 438 q 156 721 118 657 m 829 899 l 710 899 l 522 1102 l 735 1102 l 829 899 m 503 1007 q 474 886 503 926 q 369 814 445 845 l 337 876 q 397 909 382 895 q 418 972 418 930 l 347 972 l 347 1102 l 503 1102 l 503 1007 m 680 -276 l 489 -276 l 523 -86 l 645 -86 l 680 -276 "},"ү":{"x_min":12,"x_max":760,"ha":773,"o":"m 760 721 l 485 0 l 485 -274 l 294 -274 l 294 0 l 12 721 l 212 721 l 386 211 l 564 721 l 760 721 "},"ڱ":{"x_min":28,"x_max":1051,"ha":1051,"o":"m 296 199 q 85 249 150 199 q 28 387 28 293 q 47 511 28 450 q 113 656 66 572 l 154 627 q 119 549 127 575 q 112 496 112 524 q 160 407 112 431 q 343 383 208 383 l 943 383 q 891 438 916 414 q 836 484 871 457 q 760 544 798 514 l 738 520 q 666 592 678 579 q 633 681 633 631 q 642 777 633 749 q 700 847 656 816 q 784 896 739 874 q 877 938 819 914 q 992 983 904 949 l 992 822 q 935 804 988 822 q 829 766 868 782 q 773 731 773 743 q 821 678 773 725 q 931 562 886 615 q 1051 388 1005 474 l 1051 199 l 296 199 m 992 1198 l 992 1047 q 739 942 846 993 q 584 858 641 896 l 584 962 q 664 1024 607 985 q 807 1110 732 1070 q 992 1198 900 1161 m 864 1208 l 827 1137 l 730 1166 l 767 1238 l 864 1208 m 723 1146 l 686 1075 l 589 1104 l 626 1176 l 723 1146 "},"Ί":{"x_min":-47,"x_max":560,"ha":658,"o":"m 359 0 l 359 995 l 560 995 l 560 0 l 359 0 m -47 819 l 61 995 l 315 995 l 91 819 l -47 819 "},"͢":{"x_min":-117,"x_max":662,"ha":0,"o":"m 662 -157 l 574 -276 l 574 -193 l -117 -193 l -117 -122 l 574 -122 l 574 -39 l 662 -157 "},"ᴎ":{"x_min":95,"x_max":759,"ha":854,"o":"m 95 721 l 278 721 l 278 267 l 572 721 l 759 721 l 759 0 l 576 0 l 576 459 l 278 0 l 95 0 l 95 721 "},"⅓":{"x_min":62,"x_max":1136,"ha":1158,"o":"m 336 493 l 207 493 l 207 840 q 62 774 143 796 l 62 879 q 170 931 126 897 q 231 1006 215 966 l 336 1006 l 336 493 m 338 -37 l 230 -37 l 819 1006 l 927 1006 l 338 -37 m 728 120 l 853 134 q 929 61 863 61 q 1004 134 1004 61 q 984 182 1004 163 q 933 201 964 201 q 871 190 912 201 l 887 290 q 971 316 951 288 q 980 343 980 327 q 923 388 980 388 q 856 322 866 388 l 735 339 q 785 439 752 409 q 926 485 837 485 q 1060 443 1008 485 q 1110 346 1110 403 q 1095 299 1110 321 q 1044 249 1076 268 q 1136 127 1136 216 q 1078 13 1136 60 q 928 -37 1019 -37 q 790 5 843 -37 q 728 120 737 47 "},"Ģ":{"x_min":66,"x_max":996,"ha":1080,"o":"m 599 -16 q 704 -136 704 -45 q 637 -244 704 -205 q 469 -283 571 -283 q 335 -272 379 -283 l 335 -192 q 460 -200 402 -200 q 575 -136 575 -200 q 554 -97 575 -114 q 488 -80 533 -80 q 400 -93 446 -80 l 416 -26 q 485 -11 442 -16 q 172 158 279 17 q 66 500 66 299 q 125 765 66 648 q 294 946 184 882 q 559 1011 405 1011 q 983 718 917 1011 l 784 681 q 702 798 762 757 q 562 839 642 839 q 349 754 425 839 q 273 509 273 669 q 346 251 273 347 q 557 156 419 156 q 793 240 685 156 l 793 365 l 563 365 l 563 533 l 996 533 l 996 138 q 827 35 941 83 q 599 -16 714 -11 "},"ᾇ":{"x_min":54,"x_max":808,"ha":854,"o":"m 645 721 l 808 721 q 743 519 769 642 q 718 348 718 397 q 741 183 718 285 q 801 0 765 81 l 641 0 q 628 37 637 13 q 604 119 614 78 q 366 -16 521 -16 q 137 102 221 -16 q 54 378 54 220 q 137 632 54 528 q 368 737 220 737 q 605 596 515 737 q 645 721 617 646 m 249 358 q 291 197 249 259 q 401 135 333 135 q 507 189 466 135 q 549 358 549 244 q 504 528 549 470 q 398 586 460 586 q 291 526 333 586 q 249 358 249 466 m 602 1280 q 481 1109 600 1109 q 435 1113 456 1109 q 351 1144 419 1117 q 266 1166 296 1166 q 220 1106 221 1166 l 133 1106 q 132 1130 132 1121 q 161 1234 132 1194 q 255 1279 194 1279 q 374 1245 298 1279 q 458 1221 429 1221 q 514 1280 506 1221 l 602 1280 m 456 837 l 423 775 q 318 847 347 806 q 290 968 290 887 l 290 1063 l 446 1063 l 446 933 l 374 933 q 395 870 374 891 q 456 837 410 856 m 463 -276 l 272 -276 l 306 -86 l 428 -86 l 463 -276 "},"؟":{"x_min":45,"x_max":453,"ha":495,"o":"m 453 819 q 428 745 453 777 q 357 710 400 710 q 301 732 323 710 q 279 784 279 754 q 316 853 279 830 q 353 891 353 876 q 331 928 353 914 q 274 943 309 943 q 202 918 230 943 q 174 857 174 893 q 202 772 174 824 q 254 671 245 694 q 283 517 283 600 q 276 417 283 472 l 235 418 q 235 436 235 430 l 239 472 q 188 554 239 510 q 95 640 103 630 q 45 775 45 700 q 106 927 45 867 q 257 988 167 988 q 395 941 338 988 q 453 819 453 895 m 329 274 q 304 214 329 239 q 243 190 279 190 q 185 215 210 190 q 161 274 161 240 q 185 334 161 309 q 246 359 210 359 q 305 333 281 359 q 329 274 329 308 "},"ǌ":{"x_min":98,"x_max":1134,"ha":1234,"o":"m 754 0 l 563 0 l 563 367 q 550 518 563 484 q 511 572 538 553 q 445 591 484 591 q 357 563 396 591 q 303 491 318 536 q 289 326 289 447 l 289 0 l 98 0 l 98 721 l 275 721 l 275 615 q 512 737 369 737 q 627 714 575 737 q 706 656 679 691 q 743 576 733 620 q 754 447 754 531 l 754 0 m 943 819 l 943 995 l 1134 995 l 1134 819 l 943 819 m 1134 721 l 1134 22 q 1116 -171 1134 -114 q 1046 -260 1098 -228 q 916 -292 995 -292 q 854 -286 887 -292 q 784 -271 821 -281 l 817 -108 q 842 -113 831 -111 q 864 -115 854 -115 q 912 -102 893 -115 q 936 -72 930 -89 q 943 33 943 -54 l 943 721 l 1134 721 "},"ớ":{"x_min":56,"x_max":988,"ha":988,"o":"m 251 360 q 301 196 251 256 q 427 139 350 139 q 552 196 504 139 q 603 361 603 256 q 552 524 603 465 q 427 582 504 582 q 301 524 350 582 q 251 360 251 464 m 797 721 l 988 721 l 988 584 q 973 453 988 500 q 919 368 958 405 q 795 299 873 324 q 693 91 778 177 q 428 -16 588 -16 q 239 28 325 -16 q 102 161 148 76 q 56 370 56 246 q 102 554 56 468 q 236 690 151 644 q 426 737 321 737 q 694 631 590 737 q 798 393 788 534 q 890 530 887 428 l 797 530 l 797 721 m 340 814 l 434 1017 l 647 1017 l 461 814 l 340 814 "},"ٿ":{"x_min":39,"x_max":902,"ha":902,"o":"m 902 199 l 333 199 q 224 201 251 199 q 166 215 197 204 q 74 293 110 234 q 39 423 39 351 q 41 473 39 451 q 52 525 44 495 q 78 599 64 569 q 129 680 92 629 l 167 653 q 127 567 137 599 q 117 506 117 536 q 141 436 117 467 q 206 395 166 405 q 268 386 230 389 q 348 383 306 383 l 838 383 q 806 456 819 434 q 761 522 792 482 l 822 680 q 888 547 873 607 q 902 391 902 494 l 902 199 m 591 1018 l 520 887 l 421 937 l 364 827 l 241 896 l 315 1035 l 411 980 l 465 1088 l 591 1018 m 405 855 l 501 800 l 555 908 l 681 838 l 610 707 l 511 757 l 454 647 l 331 716 l 405 855 "},"á":{"x_min":50,"x_max":726,"ha":773,"o":"m 243 501 l 70 532 q 170 686 99 636 q 382 737 241 737 q 572 706 510 737 q 660 630 635 676 q 686 459 686 583 l 683 236 q 692 96 683 141 q 726 0 701 51 l 537 0 q 518 56 529 18 q 511 78 513 73 q 407 7 463 31 q 289 -16 352 -16 q 114 44 178 -16 q 50 196 50 104 q 79 305 50 257 q 160 378 108 353 q 312 423 213 404 q 498 470 446 448 l 498 489 q 470 567 498 544 q 368 591 443 591 q 289 571 317 591 q 243 501 260 551 m 498 346 q 382 316 461 333 q 278 283 302 299 q 241 216 241 257 q 270 147 241 176 q 346 118 300 118 q 445 151 398 118 q 490 215 479 177 q 498 308 498 239 l 498 346 m 261 814 l 355 1017 l 568 1017 l 382 814 l 261 814 "},"ﯼ":{"x_min":102,"x_max":798,"ha":895,"o":"m 798 528 q 790 466 798 490 q 758 402 783 442 q 727 464 740 449 q 691 479 715 479 q 590 437 654 479 q 527 367 527 396 q 552 347 527 353 q 609 343 571 343 q 629 343 619 343 q 649 343 639 343 q 747 328 723 343 q 769 278 769 315 q 741 138 769 205 q 643 17 707 53 q 475 -55 562 -27 q 313 -83 388 -83 q 102 106 102 -83 q 125 270 102 201 q 237 480 152 347 l 269 459 q 193 309 218 374 q 168 193 168 243 q 312 66 168 66 q 415 75 366 66 q 514 102 464 85 q 589 132 547 114 q 660 164 656 162 q 691 192 691 180 q 658 201 691 199 q 611 203 625 203 q 472 232 507 203 q 444 322 444 257 q 464 401 444 354 q 516 495 484 448 q 615 603 566 566 q 712 640 665 640 q 774 609 751 640 q 798 528 798 578 "},"ӆ":{"x_min":17,"x_max":885,"ha":882,"o":"m 885 154 l 760 -190 l 606 -190 l 686 0 l 598 0 l 598 566 l 340 566 l 340 242 q 248 3 340 44 q 137 -12 213 -12 q 17 0 91 -12 l 17 140 q 55 138 29 140 q 94 137 81 137 q 151 201 142 137 q 151 304 151 211 l 151 721 l 789 721 l 789 154 l 885 154 "},"ᵡ":{"x_min":0,"x_max":526,"ha":526,"o":"m 526 136 l 378 136 l 260 367 l 139 136 l 0 136 l 185 475 l 10 808 l 153 808 l 260 583 l 378 808 l 513 808 l 338 475 l 526 136 "},"K":{"x_min":104,"x_max":1000.5,"ha":1003,"o":"m 104 0 l 104 995 l 305 995 l 305 553 l 710 995 l 980 995 l 605 607 l 1000 0 l 740 0 l 466 467 l 305 300 l 305 0 l 104 0 "},"Y":{"x_min":-2.5,"x_max":928.5,"ha":927,"o":"m 362 0 l 362 418 l -2 995 l 232 995 l 467 600 l 697 995 l 928 995 l 563 417 l 563 0 l 362 0 "},"E":{"x_min":102,"x_max":857,"ha":926,"o":"m 102 0 l 102 995 l 838 995 l 838 827 l 303 827 l 303 606 l 801 606 l 801 438 l 303 438 l 303 168 l 857 168 l 857 0 l 102 0 "},"Ƥ":{"x_min":20,"x_max":1022,"ha":1086,"o":"m 1022 688 q 904 436 1022 518 q 800 389 852 400 q 592 375 731 375 l 462 375 l 462 0 l 261 0 l 261 827 q 193 815 212 827 q 167 752 167 799 q 177 664 167 710 l 44 639 q 20 798 20 716 q 260 995 20 995 l 582 995 q 821 980 764 995 q 972 871 918 954 q 1022 688 1022 794 m 815 685 q 784 774 815 738 q 702 820 754 810 q 558 827 666 827 l 462 827 l 462 543 l 571 543 q 691 549 659 543 q 792 607 761 562 q 815 685 815 640 "},"Ï":{"x_min":-18.609375,"x_max":438,"ha":386,"o":"m 95 0 l 95 995 l 296 995 l 296 0 l 95 0 m -18 1085 l -18 1249 l 145 1249 l 145 1085 l -18 1085 m 274 1085 l 274 1249 l 438 1249 l 438 1085 l 274 1085 "},"ῶ":{"x_min":54,"x_max":1121,"ha":1172,"o":"m 156 721 l 338 721 q 249 341 249 535 q 288 182 249 229 q 382 135 328 135 q 447 158 419 135 q 483 214 475 181 q 492 318 492 248 l 492 537 l 683 537 l 683 318 q 690 216 683 251 q 727 158 698 181 q 792 135 756 135 q 887 184 849 135 q 926 348 926 234 q 902 529 926 425 q 837 721 879 633 l 1019 721 q 1088 548 1056 657 q 1121 347 1121 438 q 1036 86 1121 188 q 816 -16 952 -16 q 587 135 652 -16 q 358 -16 522 -16 q 137 86 221 -16 q 54 347 54 188 q 86 548 54 438 q 156 721 118 657 m 440 814 l 353 814 q 353 838 353 829 q 387 947 353 909 q 476 986 422 986 q 520 980 500 986 q 594 951 540 975 q 679 928 648 928 q 715 941 700 928 q 734 987 729 955 l 822 987 q 787 855 821 895 q 701 816 754 816 q 656 820 678 816 q 578 848 640 824 q 487 873 515 873 q 453 859 465 873 q 440 814 441 846 "},"ứ":{"x_min":96,"x_max":1006,"ha":1006,"o":"m 815 721 l 1006 721 l 1006 584 q 991 453 1006 500 q 937 368 976 405 q 751 290 877 310 l 751 0 l 574 0 l 574 107 q 335 -16 489 -16 q 121 105 176 -16 q 96 264 96 163 l 96 721 l 287 721 l 287 390 q 297 204 287 247 q 335 150 305 172 q 405 130 363 130 q 492 156 453 130 q 545 222 531 182 q 560 417 560 262 l 560 721 l 751 721 l 751 367 q 883 437 845 385 q 908 530 906 468 l 815 530 l 815 721 m 322 814 l 416 1017 l 629 1017 l 443 814 l 322 814 "},"ȴ":{"x_min":59.265625,"x_max":686,"ha":693,"o":"m 686 -77 q 627 -226 686 -168 q 440 -292 561 -292 q 238 -226 329 -292 q 191 -292 220 -249 l 59 -193 q 133 -98 89 -151 q 100 81 100 -29 l 100 995 l 291 995 l 291 54 q 466 143 375 143 q 631 77 571 143 q 686 -77 686 16 m 523 -78 q 461 -22 523 -22 q 360 -97 427 -22 q 448 -137 404 -137 q 523 -78 523 -137 "},"Ɖ":{"x_min":-1,"x_max":934,"ha":1003,"o":"m 102 995 l 467 995 q 658 975 593 995 q 808 881 746 948 q 902 720 871 815 q 934 485 934 625 q 899 263 934 362 q 796 99 864 164 q 656 21 744 49 q 478 0 590 0 l 102 0 l 102 434 l -1 434 l -1 560 l 102 560 l 102 995 m 303 827 l 303 560 l 515 560 l 515 434 l 303 434 l 303 168 l 452 168 q 596 184 552 168 q 684 258 654 204 q 727 493 727 335 q 709 665 727 605 q 656 763 691 726 q 565 816 621 801 q 393 827 522 827 l 303 827 "},"ⱴ":{"x_min":27,"x_max":755,"ha":773,"o":"m 755 721 l 453 0 l 279 0 l 134 350 l 63 320 l 27 413 l 95 443 l 76 498 q 64 562 64 530 q 110 683 64 635 q 254 737 162 737 q 384 690 338 737 q 424 581 424 648 q 292 412 424 461 l 365 209 l 559 721 l 755 721 m 322 576 q 308 615 322 597 q 275 633 295 633 q 232 592 232 633 q 240 555 232 577 l 258 503 q 322 576 322 529 "},"ᶈ":{"x_min":94,"x_max":796,"ha":848,"o":"m 602 362 q 568 512 602 453 q 444 586 527 586 q 318 518 361 586 q 283 372 283 461 q 317 214 283 277 q 447 135 360 135 q 602 362 602 135 m 796 364 q 724 104 796 201 l 724 -38 q 689 -224 724 -171 q 542 -292 644 -292 q 447 -279 493 -292 l 470 -175 q 527 -185 506 -185 q 595 -132 580 -185 q 602 -36 602 -108 l 602 5 q 494 -16 552 -16 q 285 88 382 -16 l 285 -274 l 94 -274 l 94 721 l 272 721 l 272 614 q 496 737 349 737 q 723 619 641 737 q 796 364 796 516 "},"ᴇ":{"x_min":95,"x_max":645,"ha":695,"o":"m 645 0 l 95 0 l 95 721 l 631 721 l 631 566 l 288 566 l 288 454 l 604 454 l 604 301 l 288 301 l 288 155 l 645 155 l 645 0 "},"ݘ":{"x_min":35,"x_max":781,"ha":802,"o":"m 781 -121 l 519 -282 q 163 -189 277 -282 q 47 108 47 -94 q 102 356 47 248 q 279 549 158 463 q 136 525 198 549 q 35 480 114 516 q 274 732 67 732 q 377 725 306 732 q 502 714 448 718 q 706 708 605 708 l 665 541 q 268 415 405 508 q 132 179 132 323 q 244 -28 132 43 q 567 -100 356 -100 q 670 -94 573 -100 q 767 -91 723 -91 l 781 -121 m 519 334 l 451 194 l 324 261 l 393 400 l 519 334 m 650 174 l 575 35 l 480 90 l 425 -17 l 300 52 l 370 183 l 470 133 l 526 243 l 650 174 "},"ể":{"x_min":44,"x_max":717.171875,"ha":773,"o":"m 517 229 l 707 197 q 591 38 670 92 q 393 -16 512 -16 q 115 106 205 -16 q 44 355 44 205 q 137 635 44 534 q 374 737 231 737 q 628 630 535 737 q 717 305 721 524 l 239 305 q 285 173 241 220 q 395 126 329 126 q 470 150 440 126 q 517 229 501 174 m 528 422 q 485 547 525 504 q 385 591 444 591 q 282 545 323 591 q 242 422 241 500 l 528 422 m 150 812 l 292 1011 l 467 1011 l 608 812 l 455 812 l 376 913 l 304 812 l 150 812 m 342 1107 q 391 1114 380 1111 q 428 1145 427 1123 q 409 1171 428 1160 q 318 1187 380 1187 q 255 1184 297 1187 l 247 1253 q 345 1258 273 1258 q 481 1230 428 1257 q 541 1151 539 1202 q 418 1066 543 1081 l 418 1032 l 342 1032 l 342 1107 "},"ͦ":{"x_min":-252,"x_max":250,"ha":0,"o":"m 250 566 q 179 383 250 456 q 0 311 109 311 q -220 429 -156 311 q -252 572 -252 487 q -220 697 -252 638 q -130 789 -187 758 q -1 820 -74 820 q 179 748 108 820 q 250 566 250 677 m 118 566 q 90 668 118 628 q 0 715 59 715 q -92 668 -60 715 q -120 565 -120 628 q -92 462 -120 502 q 0 416 -60 416 q 90 462 59 416 q 118 566 118 502 "},"ϋ":{"x_min":80,"x_max":728,"ha":808,"o":"m 80 721 l 271 721 l 271 351 q 308 179 271 219 q 404 139 345 139 q 504 185 472 139 q 537 351 537 232 l 537 721 l 728 721 l 728 382 q 696 156 728 237 q 587 30 664 76 q 406 -16 511 -16 q 217 32 294 -16 q 110 160 140 80 q 80 382 80 240 l 80 721 m 176 814 l 176 978 l 340 978 l 340 814 l 176 814 m 469 814 l 469 978 l 633 978 l 633 814 l 469 814 "},"ﺙ":{"x_min":41,"x_max":902,"ha":902,"o":"m 530 999 l 462 859 l 335 926 l 404 1065 l 530 999 m 661 839 l 586 701 l 491 755 l 436 648 l 311 717 l 381 849 l 481 798 l 537 909 l 661 839 m 902 199 l 328 199 q 192 209 237 199 q 112 249 148 220 q 59 325 78 279 q 41 427 41 371 q 60 545 41 491 q 130 680 80 600 l 168 656 q 129 566 139 597 q 119 508 119 536 q 172 412 119 442 q 345 383 226 383 l 837 383 q 809 455 822 431 q 761 525 796 480 l 820 682 q 858 622 847 644 q 881 561 870 601 q 897 486 893 522 q 902 378 902 449 l 902 199 "},"ἶ":{"x_min":-49.671875,"x_max":420,"ha":386,"o":"m 100 0 l 100 721 l 291 721 l 291 0 l 100 0 m 420 1280 q 299 1109 418 1109 q 253 1113 274 1109 q 169 1144 237 1117 q 84 1166 114 1166 q 38 1106 39 1166 l -49 1106 q -49 1130 -49 1121 q -20 1234 -49 1194 q 73 1279 12 1279 q 192 1245 116 1279 q 276 1221 247 1221 q 332 1280 324 1221 l 420 1280 m 274 968 q 245 847 274 887 q 140 775 216 806 l 108 837 q 168 870 153 856 q 189 933 189 891 l 118 933 l 118 1063 l 274 1063 l 274 968 "},"ן":{"x_min":92,"x_max":287,"ha":379,"o":"m 287 720 l 287 -276 l 92 -276 l 92 720 l 287 720 "},"b":{"x_min":92,"x_max":794,"ha":848,"o":"m 92 0 l 92 995 l 283 995 l 283 636 q 491 737 370 737 q 708 641 622 737 q 794 367 794 546 q 706 83 794 183 q 493 -16 618 -16 q 372 14 432 -16 q 269 105 312 45 l 269 0 l 92 0 m 282 376 q 317 210 282 264 q 447 135 366 135 q 554 188 510 135 q 599 358 599 242 q 554 536 599 481 q 440 591 509 591 q 327 537 372 591 q 282 376 282 484 "},"ﬂ":{"x_min":21,"x_max":747,"ha":848,"o":"m 21 721 l 127 721 l 127 775 q 146 910 127 865 q 217 982 165 954 q 348 1011 269 1011 q 508 987 430 1011 l 482 854 q 395 865 437 865 q 335 845 353 865 q 318 771 318 826 l 318 721 l 460 721 l 460 571 l 318 571 l 318 0 l 127 0 l 127 571 l 21 571 l 21 721 m 556 0 l 556 995 l 747 995 l 747 0 l 556 0 "},"ɢ":{"x_min":56,"x_max":764,"ha":814,"o":"m 764 96 q 634 17 715 48 q 444 -16 544 -16 q 156 89 260 -16 q 56 359 56 190 q 160 632 56 527 q 436 737 265 737 q 764 527 682 737 l 575 489 q 535 546 564 520 q 435 580 494 580 q 300 522 350 580 q 251 364 251 464 q 297 202 251 262 q 434 141 346 141 q 573 170 511 141 l 573 245 l 445 245 l 445 399 l 764 399 l 764 96 "},"Ʈ":{"x_min":31,"x_max":820,"ha":848,"o":"m 820 827 l 526 827 l 526 31 q 531 -66 526 -47 q 604 -115 545 -115 q 651 -108 621 -115 l 685 -271 q 552 -292 609 -292 q 353 -194 400 -292 q 325 22 325 -136 l 325 827 l 31 827 l 31 995 l 820 995 l 820 827 "},"Ὢ":{"x_min":-10,"x_max":1413,"ha":1480,"o":"m 432 0 l 432 168 l 625 168 q 448 567 448 353 q 574 882 448 754 q 922 1011 701 1011 q 1269 883 1141 1011 q 1397 567 1397 756 q 1219 168 1397 353 l 1413 168 l 1413 0 l 958 0 l 958 161 q 1131 299 1072 203 q 1190 518 1190 394 q 1122 742 1190 646 q 922 839 1054 839 q 722 743 790 839 q 655 518 655 648 q 713 298 655 393 q 887 161 772 203 l 887 0 l 432 0 m 482 808 l 363 808 l 175 1011 l 388 1011 l 482 808 m 156 916 q 127 795 156 835 q 22 723 98 754 l -10 785 q 50 818 35 804 q 71 881 71 839 l 0 881 l 0 1011 l 156 1011 l 156 916 "},"Ḡ":{"x_min":66,"x_max":996,"ha":1080,"o":"m 563 365 l 563 533 l 996 533 l 996 137 q 813 29 932 76 q 570 -17 693 -17 q 298 48 414 -17 q 124 235 182 113 q 66 500 66 357 q 131 776 66 655 q 321 961 196 897 q 559 1011 417 1011 q 849 933 744 1011 q 983 718 953 855 l 784 681 q 704 796 762 754 q 560 839 646 839 q 350 755 428 839 q 273 508 273 672 q 351 243 273 331 q 557 155 430 155 q 684 179 620 155 q 793 239 747 204 l 793 365 l 563 365 m 344 1085 l 344 1210 l 781 1210 l 781 1085 l 344 1085 "},"ﭢ":{"x_min":39,"x_max":902,"ha":902,"o":"m 902 199 l 333 199 q 224 201 251 199 q 166 215 197 204 q 74 293 110 234 q 39 423 39 351 q 41 473 39 451 q 52 525 44 495 q 78 599 64 569 q 129 680 92 629 l 167 653 q 127 567 137 599 q 117 506 117 536 q 141 436 117 467 q 206 395 166 405 q 268 386 230 389 q 348 383 306 383 l 838 383 q 806 456 819 434 q 761 522 792 482 l 822 680 q 888 547 873 607 q 902 391 902 494 l 902 199 m 591 1018 l 520 887 l 421 937 l 364 827 l 241 896 l 315 1035 l 411 980 l 465 1088 l 591 1018 m 405 855 l 501 800 l 555 908 l 681 838 l 610 707 l 511 757 l 454 647 l 331 716 l 405 855 "},"‬":{"x_min":-158,"x_max":159,"ha":0,"o":"m 159 667 l 25 667 l 25 -187 l -24 -187 l -24 667 l -158 667 l -158 958 l 159 958 l 159 667 "},"ȭ":{"x_min":56,"x_max":798,"ha":848,"o":"m 56 370 q 102 554 56 465 q 235 690 149 643 q 426 737 320 737 q 693 630 589 737 q 798 362 798 524 q 692 91 798 199 q 427 -16 587 -16 q 239 28 328 -16 q 102 160 149 73 q 56 370 56 246 m 251 360 q 301 196 251 253 q 426 139 352 139 q 551 196 501 139 q 602 361 602 253 q 551 524 602 467 q 426 582 501 582 q 301 524 352 582 q 251 360 251 467 m 277 818 l 190 818 q 190 842 190 833 q 224 951 190 913 q 313 990 259 990 q 357 984 337 990 q 431 955 377 979 q 516 932 485 932 q 552 945 537 932 q 571 991 566 959 l 659 991 q 624 859 658 899 q 538 820 591 820 q 493 824 515 820 q 415 852 477 828 q 324 877 352 877 q 290 863 302 877 q 277 818 278 850 m 210 1078 l 210 1203 l 647 1203 l 647 1078 l 210 1078 "},"Ŋ":{"x_min":106,"x_max":938,"ha":1004,"o":"m 106 995 l 305 995 l 305 853 q 626 1011 445 1011 q 807 948 737 1011 q 907 781 877 886 q 938 489 938 675 q 908 172 938 264 q 818 31 879 81 q 651 -18 757 -18 q 455 29 537 -18 l 515 177 q 623 151 577 151 q 704 213 680 151 q 729 452 729 276 q 677 767 729 700 q 537 835 626 835 q 401 790 460 835 q 323 692 341 745 q 305 543 305 640 l 305 0 l 106 0 l 106 995 "},"ُ":{"x_min":49,"x_max":291,"ha":0,"o":"m 291 1060 q 288 1036 291 1048 q 284 1012 286 1024 l 228 1045 q 182 996 194 1008 q 98 948 132 948 l 49 948 q 132 1002 84 964 q 198 1063 176 1037 q 166 1090 177 1076 q 153 1129 153 1108 q 179 1207 153 1173 q 235 1242 205 1242 q 267 1223 253 1242 q 282 1177 282 1204 q 278 1150 282 1164 q 261 1099 274 1136 q 283 1081 271 1089 q 291 1060 291 1073 m 240 1136 q 227 1170 240 1154 q 202 1186 214 1186 q 191 1181 195 1186 q 188 1171 188 1176 q 204 1140 188 1156 l 234 1117 q 240 1136 240 1131 "},"ﻴ":{"x_min":-47,"x_max":377,"ha":377,"o":"m 377 199 l -47 199 l -47 383 l 309 383 q 281 461 301 429 q 234 522 271 478 l 288 684 q 358 563 339 626 q 377 376 377 500 l 377 199 m 366 79 l 291 -59 l 196 -4 l 141 -112 l 16 -42 l 86 89 l 186 38 l 242 149 l 366 79 "},"۾":{"x_min":22,"x_max":501,"ha":501,"o":"m 501 198 l 412 199 q 192 178 288 199 q 97 129 97 157 q 144 -22 123 48 q 165 -157 165 -93 q 155 -231 165 -203 q 121 -294 146 -260 q 88 -106 113 -204 q 43 39 79 -71 q 22 130 22 107 q 39 209 22 162 q 72 278 53 248 q 148 331 94 311 q 313 363 202 351 q 217 439 258 439 q 184 425 200 439 q 133 366 168 411 l 101 382 q 174 542 130 486 q 270 598 218 598 q 371 545 316 598 q 501 383 427 493 l 501 198 m 313 76 l 313 -201 l 232 -201 l 232 76 l 313 76 m 475 76 l 475 -201 l 394 -201 l 394 76 l 475 76 "},"Ẋ":{"x_min":0.5,"x_max":923.5,"ha":926,"o":"m 0 0 l 343 518 l 32 995 l 266 995 l 462 698 l 658 995 l 892 995 l 581 519 l 923 0 l 681 0 l 461 337 l 241 0 l 0 0 m 369 1085 l 369 1265 l 556 1265 l 556 1085 l 369 1085 "},"ď":{"x_min":54,"x_max":998,"ha":998,"o":"m 826 995 l 998 995 l 998 872 q 984 752 998 796 q 934 675 970 709 q 845 623 897 641 l 812 694 q 885 741 863 710 q 909 823 908 772 l 826 823 l 826 995 m 757 0 l 580 0 l 580 105 q 475 14 535 44 q 354 -16 415 -16 q 142 84 230 -16 q 54 363 54 184 q 140 641 54 546 q 357 737 226 737 q 566 636 477 737 l 566 995 l 757 995 l 757 0 m 249 376 q 280 209 249 261 q 409 135 326 135 q 520 190 474 135 q 567 357 567 246 q 522 536 567 481 q 408 591 477 591 q 294 537 340 591 q 249 376 249 483 "},"ﻺ":{"x_min":18,"x_max":751,"ha":751,"o":"m 485 539 q 478 502 485 519 q 456 457 472 484 q 368 603 416 546 q 255 695 320 661 q 248 653 255 666 q 229 640 241 640 q 154 678 208 640 q 70 758 96 720 q 43 834 52 784 q 34 917 34 885 q 59 966 34 966 q 178 918 99 966 q 327 806 258 871 q 485 539 485 661 m 751 199 l 701 199 q 620 268 658 199 q 579 439 579 343 q 413 195 519 261 q 96 131 309 131 l 18 132 l 18 176 q 114 209 66 192 q 185 238 162 226 q 372 339 323 308 q 497 457 459 396 q 543 635 543 530 q 533 757 543 698 q 513 876 523 817 q 592 1063 513 922 q 637 759 627 947 q 649 495 642 627 q 701 383 659 383 l 751 383 l 751 199 m 285 -77 q 268 -108 278 -98 q 245 -121 261 -116 l 99 -166 q 122 -132 112 -141 q 158 -113 132 -123 q 130 -90 138 -101 q 122 -70 122 -80 q 127 -50 122 -61 q 141 -28 132 -38 q 229 31 185 31 q 250 22 242 31 q 258 0 258 13 q 254 -18 258 -10 q 242 -42 251 -26 q 196 -25 208 -25 q 171 -31 184 -25 q 157 -41 163 -35 q 189 -68 157 -50 q 236 -87 221 -87 q 285 -77 244 -87 "},"ṯ":{"x_min":21,"x_max":484,"ha":463,"o":"m 429 721 l 429 569 l 299 569 l 299 278 q 302 175 299 190 q 319 151 306 161 q 351 142 332 142 q 428 160 378 142 l 445 12 q 294 -16 378 -16 q 201 1 242 -16 q 140 46 160 18 q 114 120 121 73 q 108 254 108 153 l 108 569 l 21 569 l 21 721 l 108 721 l 108 864 l 299 976 l 299 721 l 429 721 m 484 -202 l 47 -202 l 47 -77 l 484 -77 l 484 -202 "},"ŧ":{"x_min":5,"x_max":437,"ha":463,"o":"m 291 412 l 410 412 l 410 294 l 291 294 l 291 277 q 292 185 291 202 q 307 154 294 167 q 344 142 320 142 q 421 160 370 142 l 437 12 q 286 -16 370 -16 q 168 13 212 -16 q 112 88 125 42 q 100 255 100 134 l 100 294 l 5 294 l 5 412 l 100 412 l 100 569 l 12 569 l 12 721 l 100 721 l 100 864 l 291 976 l 291 721 l 421 721 l 421 569 l 291 569 l 291 412 "},"ﺧ":{"x_min":-47,"x_max":727,"ha":727,"o":"m 455 919 l 373 768 l 214 850 l 296 1004 l 455 919 m 727 199 l -47 199 l -47 383 l 434 383 q 283 504 352 467 q 162 538 221 538 q 130 536 144 538 q 88 529 115 534 q 171 654 125 614 q 275 695 216 695 q 361 673 319 695 q 453 603 402 651 q 569 485 494 565 q 646 411 619 428 q 727 383 673 394 l 727 199 "},"À":{"x_min":0,"x_max":998,"ha":1003,"o":"m 998 0 l 779 0 l 693 226 l 295 226 l 212 0 l 0 0 l 387 995 l 599 995 l 998 0 m 628 394 l 491 763 l 356 394 l 628 394 m 600 1085 l 481 1085 l 293 1288 l 506 1288 l 600 1085 "},"Ώ":{"x_min":-24,"x_max":1115,"ha":1181,"o":"m 134 0 l 134 168 l 327 168 q 150 567 150 353 q 276 882 150 754 q 624 1011 403 1011 q 971 883 843 1011 q 1099 567 1099 756 q 921 168 1099 353 l 1115 168 l 1115 0 l 660 0 l 660 161 q 833 299 774 203 q 892 518 892 394 q 824 742 892 646 q 624 839 756 839 q 424 743 492 839 q 357 518 357 648 q 415 298 357 393 q 589 161 474 203 l 589 0 l 134 0 m -24 808 l 70 1011 l 283 1011 l 97 808 l -24 808 "},"ᴧ":{"x_min":12,"x_max":761,"ha":773,"o":"m 761 0 l 565 0 l 427 367 q 407 429 416 396 q 387 490 399 454 l 348 367 l 212 0 l 12 0 l 302 721 l 474 721 l 761 0 "},"̟":{"x_min":-118,"x_max":119,"ha":0,"o":"m 119 -198 l 36 -198 l 36 -276 l -35 -276 l -35 -198 l -118 -198 l -118 -127 l -35 -127 l -35 -51 l 36 -51 l 36 -127 l 119 -127 l 119 -198 "},"'":{"x_min":63,"x_max":270,"ha":330,"o":"m 98 642 l 63 826 l 63 995 l 270 995 l 270 826 l 238 642 l 98 642 "},"؁":{"x_min":47,"x_max":1792,"ha":1839,"o":"m 1792 -81 q 1667 -288 1792 -159 l 1622 -273 q 1686 -170 1686 -197 q 1664 -151 1686 -151 q 1280 -218 1643 -151 q 874 -288 906 -288 q 755 -242 809 -288 q 632 -288 705 -288 q 541 -249 584 -288 q 478 -177 530 -239 q 422 -139 445 -139 q 350 -183 390 -139 q 180 -288 255 -288 q 47 -121 47 -288 q 56 -17 47 -75 q 84 79 67 52 l 114 74 q 110 31 110 47 q 214 -110 110 -110 q 317 -64 268 -110 q 392 3 378 -7 q 463 35 434 35 q 553 -34 495 35 q 640 -103 612 -103 q 723 -31 723 -103 q 712 52 723 2 l 754 93 l 769 28 q 876 -103 798 -103 q 1282 -33 902 -103 q 1694 36 1657 36 q 1764 6 1737 36 q 1792 -81 1792 -25 "},"סּ":{"x_min":54,"x_max":798,"ha":852,"o":"m 54 354 q 156 630 54 525 q 425 736 259 736 q 620 688 537 736 q 750 556 702 640 q 798 362 798 473 q 694 92 798 202 q 426 -17 591 -17 q 157 85 261 -17 q 54 354 54 188 m 249 359 q 297 198 249 259 q 426 138 346 138 q 555 198 507 138 q 603 360 603 259 q 554 521 603 461 q 426 581 506 581 q 293 516 338 581 q 249 359 249 451 m 426 414 q 464 399 446 414 q 483 357 483 384 q 466 316 483 332 q 426 300 449 300 q 398 306 411 300 q 377 326 385 312 q 369 357 369 339 q 385 397 369 380 q 426 414 401 414 "},"˾":{"x_min":20,"x_max":531,"ha":552,"o":"m 531 -285 l 20 -285 l 20 -30 l 124 -30 l 124 -181 l 531 -181 l 531 -285 "},"ڻ":{"x_min":42,"x_max":751,"ha":751,"o":"m 751 231 q 732 81 751 138 q 672 -9 714 25 q 550 -65 631 -43 q 384 -88 470 -88 q 131 -28 220 -88 q 42 142 42 31 q 70 314 42 236 q 192 538 101 400 l 233 509 q 145 343 166 395 q 125 237 125 292 q 201 121 125 166 q 401 76 277 76 q 606 122 523 76 q 690 237 690 169 q 675 320 690 279 q 613 452 660 361 l 672 636 q 730 517 719 549 q 751 367 751 458 l 751 231 m 591 666 l 222 666 l 222 754 l 265 754 q 308 780 273 754 q 343 807 323 791 q 330 931 343 876 q 313 1002 330 934 l 294 1013 q 325 1109 304 1061 l 340 1102 q 339 1094 339 1098 q 371 1067 339 1083 q 403 1054 378 1064 q 392 1007 399 1028 q 379 973 389 997 l 368 977 q 385 870 385 899 l 385 866 q 381 835 385 852 q 462 890 408 855 q 503 905 489 905 q 591 820 591 905 l 591 666 m 546 786 q 521 813 546 805 q 480 818 507 818 q 354 754 439 818 l 439 754 q 546 786 546 754 "},"ﭗ":{"x_min":39,"x_max":902,"ha":902,"o":"m 902 199 l 333 199 q 224 201 251 199 q 166 215 197 204 q 74 293 110 234 q 39 423 39 351 q 41 473 39 451 q 52 525 44 495 q 78 599 64 569 q 129 680 92 629 l 167 653 q 127 567 137 599 q 117 506 117 536 q 141 436 117 467 q 206 395 166 405 q 268 386 230 389 q 348 383 306 383 l 838 383 q 806 456 819 434 q 761 522 792 482 l 822 680 q 888 547 873 607 q 902 391 902 494 l 902 199 m 667 79 l 596 -52 l 496 -1 l 439 -112 l 316 -42 l 390 96 l 487 41 l 541 149 l 667 79 m 643 -129 l 573 -268 l 448 -202 l 515 -62 l 643 -129 "},"Ѿ":{"x_min":60,"x_max":1718,"ha":1778,"o":"m 1718 500 q 1662 241 1718 357 q 1485 48 1601 114 q 1213 -17 1368 -17 q 971 29 1091 -17 q 889 66 926 47 q 808 29 853 47 q 565 -17 687 -17 q 302 43 416 -17 q 118 235 179 109 q 60 500 60 357 q 121 769 60 652 q 316 961 187 895 q 554 1011 412 1011 q 788 951 674 1011 l 693 801 q 554 839 628 839 q 334 743 409 839 q 267 508 267 657 q 331 262 267 355 q 552 155 405 155 q 788 239 678 155 l 788 481 l 991 481 l 991 239 q 1226 155 1100 155 q 1446 262 1372 155 q 1511 508 1511 355 q 1443 744 1511 658 q 1224 839 1369 839 q 1085 801 1150 839 l 991 951 q 1224 1011 1104 1011 q 1462 961 1366 1011 q 1656 769 1590 895 q 1718 500 1718 652 m 1205 1217 l 1143 1085 l 1120 1085 l 1089 1153 l 938 1153 l 906 1085 l 882 1085 l 851 1153 l 700 1153 l 668 1085 l 645 1085 l 584 1217 l 1205 1217 "},"ṏ":{"x_min":56,"x_max":798,"ha":848,"o":"m 56 370 q 102 554 56 465 q 235 690 149 643 q 426 737 320 737 q 693 630 589 737 q 798 362 798 524 q 692 91 798 199 q 427 -16 587 -16 q 239 28 328 -16 q 102 160 149 73 q 56 370 56 246 m 251 360 q 301 196 251 253 q 426 139 352 139 q 551 196 501 139 q 602 361 602 253 q 551 524 602 467 q 426 582 501 582 q 301 524 352 582 q 251 360 251 467 m 280 818 l 193 818 q 193 842 193 833 q 227 951 193 913 q 316 990 262 990 q 360 984 340 990 q 434 955 380 979 q 519 932 488 932 q 555 945 540 932 q 574 991 569 959 l 662 991 q 627 859 661 899 q 541 820 594 820 q 496 824 518 820 q 418 852 480 828 q 327 877 355 877 q 293 863 305 877 q 280 818 281 850 m 200 1050 l 200 1214 l 364 1214 l 364 1050 l 200 1050 m 493 1050 l 493 1214 l 657 1214 l 657 1050 l 493 1050 "},"ٴ":{"x_min":64,"x_max":251,"ha":0,"o":"m 251 1128 q 233 1098 243 1108 q 210 1086 225 1090 l 64 1041 q 87 1074 77 1065 q 124 1091 97 1084 q 96 1114 104 1103 q 88 1134 88 1124 q 93 1154 88 1143 q 107 1176 98 1165 q 195 1236 151 1236 q 216 1227 208 1236 q 224 1205 224 1218 q 220 1186 224 1194 q 208 1163 217 1178 q 162 1180 174 1180 q 137 1173 150 1180 q 123 1163 129 1169 q 155 1136 123 1154 q 202 1118 187 1118 q 251 1128 210 1118 "},"Ɠ":{"x_min":66,"x_max":1174,"ha":1080,"o":"m 1174 1132 l 1148 1000 q 1060 1011 1102 1011 q 996 985 1013 1011 q 983 917 983 964 l 983 718 l 784 681 q 560 839 738 839 q 340 743 414 839 q 273 508 273 657 q 336 262 273 354 q 557 155 411 155 q 793 239 683 155 l 793 365 l 563 365 l 563 533 l 996 533 l 996 136 q 797 23 923 66 q 570 -17 679 -17 q 198 127 335 -17 q 66 500 66 267 q 199 871 66 732 q 559 1011 333 1011 q 795 964 702 1011 q 1014 1157 795 1157 q 1174 1132 1095 1157 "},"Ć":{"x_min":66,"x_max":932,"ha":1003,"o":"m 737 367 l 932 305 q 783 62 887 141 q 519 -17 679 -17 q 193 118 320 -17 q 66 488 66 253 q 194 873 66 736 q 531 1011 322 1011 q 827 902 713 1011 q 929 719 895 838 l 730 672 q 656 794 712 749 q 520 839 600 839 q 341 759 410 839 q 273 503 273 680 q 340 234 273 314 q 516 155 408 155 q 654 206 596 155 q 737 367 711 257 m 410 1085 l 504 1288 l 717 1288 l 531 1085 l 410 1085 "},"ẓ":{"x_min":23,"x_max":666,"ha":695,"o":"m 23 0 l 23 150 l 292 459 q 391 567 359 535 q 303 564 357 565 l 49 563 l 49 721 l 645 721 l 645 586 l 369 268 l 273 164 q 371 168 352 168 l 666 168 l 666 0 l 23 0 m 249 -272 l 249 -81 l 440 -81 l 440 -272 l 249 -272 "},"֗":{"x_min":-95,"x_max":96,"ha":0,"o":"m 96 936 l 0 816 l -95 936 l 0 1057 l 96 936 "},"ﯚ":{"x_min":4,"x_max":627,"ha":627,"o":"m 627 245 q 527 14 627 128 q 332 -99 428 -99 q 209 -63 276 -99 q 4 78 142 -27 l 32 118 q 152 52 105 68 q 240 39 191 39 q 370 75 306 39 q 528 216 446 119 q 480 212 499 212 q 374 255 413 212 q 335 374 335 299 q 381 570 335 476 q 497 673 432 673 q 589 599 551 673 q 627 420 627 525 l 627 245 m 546 384 q 468 493 527 493 q 435 476 448 493 q 423 440 423 459 q 449 399 423 415 q 520 384 476 384 l 546 384 m 585 925 l 492 769 l 428 769 l 336 925 l 415 925 l 460 844 l 506 925 l 585 925 "},"Ğ":{"x_min":66,"x_max":996,"ha":1080,"o":"m 563 365 l 563 533 l 996 533 l 996 137 q 813 29 932 76 q 570 -17 693 -17 q 298 48 414 -17 q 124 235 182 113 q 66 500 66 357 q 131 776 66 655 q 321 961 196 897 q 559 1011 417 1011 q 849 933 744 1011 q 983 718 953 855 l 784 681 q 704 796 762 754 q 560 839 646 839 q 350 755 428 839 q 273 508 273 672 q 351 243 273 331 q 557 155 430 155 q 684 179 620 155 q 793 239 747 204 l 793 365 l 563 365 m 681 1283 l 774 1283 q 709 1137 765 1190 q 562 1085 652 1085 q 415 1137 472 1085 q 351 1283 359 1190 l 444 1283 q 477 1209 448 1234 q 562 1185 507 1185 q 647 1209 618 1185 q 681 1283 676 1234 "},"ꜙ":{"x_min":-175,"x_max":176,"ha":0,"o":"m 46 895 l -46 895 l -46 995 l 46 995 l 46 895 m 176 760 l -175 760 l -175 839 l 176 839 l 176 760 "},"ۗ":{"x_min":-250.140625,"x_max":255,"ha":0,"o":"m 173 1209 l 148 1170 l 96 1190 l 119 1230 l 173 1209 m 99 1179 l 74 1140 l 22 1160 l 46 1200 l 99 1179 m 255 720 l -195 720 q -250 739 -249 720 q -224 832 -252 789 q -64 973 -132 973 l -43 973 l -83 1142 l -100 1151 q -84 1230 -100 1192 l -73 1226 q -52 1198 -73 1207 q -13 1186 -42 1196 q -21 1124 -13 1146 l -37 1129 l 3 973 l 152 973 q 145 1019 152 994 q 96 1001 116 1001 q 34 1045 34 1001 q 54 1104 34 1067 q 111 1141 78 1141 q 174 1080 153 1141 q 189 993 189 1041 l 189 885 l -68 885 q -146 861 -109 885 q -183 816 -183 837 q -152 808 -183 808 l 255 808 l 255 720 m 130 1063 q 89 1089 115 1089 q 70 1065 70 1089 q 98 1053 70 1053 q 130 1063 112 1053 "},"Ї":{"x_min":-35.609375,"x_max":421,"ha":386,"o":"m 95 0 l 95 995 l 296 995 l 296 0 l 95 0 m -35 1085 l -35 1249 l 128 1249 l 128 1085 l -35 1085 m 257 1085 l 257 1249 l 421 1249 l 421 1085 l 257 1085 "},"Ź":{"x_min":15,"x_max":822,"ha":848,"o":"m 15 0 l 15 181 l 537 827 l 74 827 l 74 995 l 801 995 l 801 839 l 257 168 l 822 168 l 822 0 l 15 0 m 340 1085 l 434 1288 l 647 1288 l 461 1085 l 340 1085 "},"ʻ":{"x_min":103,"x_max":310,"ha":386,"o":"m 310 925 q 201 782 203 889 l 294 782 l 294 591 l 103 591 l 103 727 q 171 944 103 877 q 272 1004 211 982 l 310 925 "},"ﺇ":{"x_min":64,"x_max":251,"ha":301,"o":"m 250 -34 q 233 -65 243 -55 q 210 -78 226 -73 l 64 -123 q 87 -89 77 -98 q 123 -70 97 -80 q 95 -47 103 -58 q 87 -27 87 -37 q 92 -7 87 -18 q 106 14 97 4 q 194 74 150 74 q 215 65 207 74 q 223 43 223 56 q 219 24 223 32 q 207 1 216 16 q 161 18 173 18 q 136 11 149 18 q 122 1 128 7 q 154 -25 122 -7 q 201 -44 186 -44 q 250 -34 209 -44 m 251 396 q 236 285 251 335 q 181 152 222 236 l 141 168 q 157 309 157 254 q 150 430 157 350 q 133 588 143 510 q 100 775 123 667 q 92 828 92 813 q 113 899 92 849 q 172 1022 134 950 l 213 781 q 244 544 235 644 q 251 396 251 467 "},"╒":{"x_min":432.703125,"x_max":999.703125,"ha":984,"o":"m 432 -421 l 432 609 l 999 609 l 999 491 l 551 491 l 551 352 l 999 352 l 999 233 l 551 233 l 551 -421 l 432 -421 "},"ͯ":{"x_min":-255,"x_max":254,"ha":0,"o":"m 254 321 l 95 321 l -4 462 l -103 321 l -255 321 l -80 570 l -248 808 l -90 808 l -1 682 l 86 808 l 238 808 l 74 574 l 254 321 "},"ؑ":{"x_min":-138,"x_max":139,"ha":0,"o":"m 139 1126 q 75 1076 139 1098 q -16 1052 -2 1052 q -61 1064 -46 1052 q -131 993 -86 1018 l -138 1005 q -96 1070 -106 1043 q -87 1143 -87 1097 l -73 1148 q -10 1082 -65 1082 q 17 1087 4 1082 q -29 1135 -29 1110 q 7 1193 -29 1156 q 77 1236 47 1236 q 111 1203 111 1236 q 95 1162 111 1187 q 50 1180 74 1180 q 6 1159 6 1180 q 41 1131 6 1146 q 90 1116 74 1116 q 139 1126 113 1116 "},"Ṁ":{"x_min":99,"x_max":1058,"ha":1157,"o":"m 99 0 l 99 995 l 399 995 l 579 316 l 757 995 l 1058 995 l 1058 0 l 872 0 l 871 783 l 675 0 l 481 0 l 285 783 l 285 0 l 99 0 m 485 1085 l 485 1265 l 672 1265 l 672 1085 l 485 1085 "},"ɔ":{"x_min":35,"x_max":715,"ha":773,"o":"m 715 359 q 627 90 715 190 q 368 -16 535 -16 q 35 244 94 -16 l 222 276 q 360 139 247 139 q 520 373 520 139 q 363 587 520 587 q 233 474 252 587 l 45 507 q 365 737 112 737 q 626 631 534 737 q 715 359 715 531 "},"ᵎ":{"x_min":34,"x_max":162,"ha":196,"o":"m 162 321 l 34 321 l 34 808 l 162 808 l 162 321 m 162 136 l 34 136 l 34 255 l 162 255 l 162 136 "},"┐":{"x_min":-15.59375,"x_max":550.71875,"ha":984,"o":"m 432 362 l -15 362 l -15 480 l 550 480 l 550 -421 l 432 -421 l 432 362 "},"ʚ":{"x_min":54,"x_max":732,"ha":788,"o":"m 732 370 q 636 92 732 197 q 361 -16 536 -16 q 161 28 245 -16 q 54 189 54 83 q 213 365 54 321 q 85 527 85 426 q 174 688 85 632 q 361 737 249 737 q 626 634 520 737 q 732 370 732 532 m 537 360 q 501 526 537 460 q 361 609 455 609 q 291 582 319 609 q 263 514 263 556 q 397 420 263 420 l 397 296 l 364 296 q 282 275 315 296 q 243 206 243 252 q 281 135 243 162 q 361 112 315 112 q 502 195 457 112 q 537 360 537 259 "},"ῖ":{"x_min":-39,"x_max":430,"ha":386,"o":"m 100 0 l 100 721 l 291 721 l 291 0 l 100 0 m 48 814 l -38 814 q -39 838 -39 829 q -4 947 -39 909 q 84 986 30 986 q 128 980 108 986 q 202 951 148 975 q 287 928 256 928 q 323 941 308 928 q 342 987 337 955 l 430 987 q 395 855 429 895 q 309 816 362 816 q 264 820 286 816 q 186 848 248 824 q 95 873 123 873 q 61 859 73 873 q 48 814 49 846 "},".":{"x_min":99,"x_max":290,"ha":386,"o":"m 99 0 l 99 191 l 290 191 l 290 0 l 99 0 "},"ې":{"x_min":102,"x_max":798,"ha":895,"o":"m 798 528 q 790 466 798 490 q 758 402 783 442 q 727 464 740 449 q 691 479 715 479 q 590 437 654 479 q 527 367 527 396 q 552 347 527 353 q 609 343 571 343 q 629 343 619 343 q 649 343 639 343 q 747 328 723 343 q 769 278 769 315 q 741 138 769 205 q 643 17 707 53 q 475 -55 562 -27 q 313 -83 388 -83 q 102 106 102 -83 q 125 270 102 201 q 237 480 152 347 l 269 459 q 193 309 218 374 q 168 193 168 243 q 312 66 168 66 q 415 75 366 66 q 514 102 464 85 q 589 132 547 114 q 660 164 656 162 q 691 192 691 180 q 658 201 691 199 q 611 203 625 203 q 472 232 507 203 q 444 322 444 257 q 464 401 444 354 q 516 495 484 448 q 615 603 566 566 q 712 640 665 640 q 774 609 751 640 q 798 528 798 578 m 438 -138 l 414 -186 l 351 -169 l 375 -122 l 438 -138 m 456 -211 l 432 -259 l 369 -242 l 393 -195 l 456 -211 "},"Ѡ":{"x_min":60,"x_max":1718,"ha":1778,"o":"m 1718 500 q 1662 241 1718 357 q 1485 48 1601 114 q 1213 -17 1368 -17 q 971 29 1091 -17 q 889 66 926 47 q 808 29 853 47 q 565 -17 687 -17 q 302 43 416 -17 q 118 235 179 109 q 60 500 60 357 q 121 769 60 652 q 316 961 187 895 q 554 1011 412 1011 q 788 951 674 1011 l 693 801 q 554 839 628 839 q 334 743 409 839 q 267 508 267 657 q 331 262 267 355 q 552 155 405 155 q 788 239 678 155 l 788 481 l 991 481 l 991 239 q 1226 155 1100 155 q 1446 262 1372 155 q 1511 508 1511 355 q 1443 744 1511 658 q 1224 839 1369 839 q 1085 801 1150 839 l 991 951 q 1224 1011 1104 1011 q 1462 961 1366 1011 q 1656 769 1590 895 q 1718 500 1718 652 "},"ǀ":{"x_min":119,"x_max":270,"ha":389,"o":"m 270 0 l 119 0 l 119 1011 l 270 1011 l 270 0 "},"║":{"x_min":303.84375,"x_max":680.25,"ha":984,"o":"m 561 -421 l 561 1264 l 680 1264 l 680 -421 l 561 -421 m 303 -421 l 303 1264 l 422 1264 l 422 -421 l 303 -421 "},"ʂ":{"x_min":33,"x_max":706,"ha":773,"o":"m 706 225 q 598 37 706 102 q 377 -16 509 -16 q 223 5 290 -16 q 225 -53 223 -46 q 254 -102 230 -85 q 301 -115 273 -115 q 348 -108 318 -115 l 382 -271 q 250 -292 306 -292 q 51 -171 89 -292 q 33 20 33 -113 l 33 205 l 224 235 q 378 122 249 122 q 515 199 515 122 q 437 261 515 244 q 144 353 205 312 q 59 515 59 412 q 157 690 59 632 q 362 737 237 737 q 561 701 489 737 q 682 546 650 655 l 502 513 q 365 600 478 600 q 236 540 236 600 q 255 505 236 520 q 437 450 284 484 q 646 366 587 416 q 706 225 706 317 "},"ԝ":{"x_min":6,"x_max":1080,"ha":1081,"o":"m 234 0 l 6 721 l 191 721 l 326 248 l 450 721 l 634 721 l 754 248 l 892 721 l 1080 721 l 848 0 l 665 0 l 541 463 l 419 0 l 234 0 "},"Ẫ":{"x_min":0,"x_max":998,"ha":1003,"o":"m 998 0 l 779 0 l 693 226 l 295 226 l 212 0 l 0 0 l 387 995 l 599 995 l 998 0 m 628 394 l 491 763 l 356 394 l 628 394 m 491 1078 l 417 1028 l 283 1028 l 431 1116 l 551 1116 l 700 1028 l 566 1028 l 491 1078 m 264 1139 q 301 1218 263 1184 q 401 1253 340 1253 q 516 1223 443 1253 q 592 1207 568 1207 q 642 1254 633 1207 l 718 1254 q 584 1141 713 1141 q 472 1171 542 1141 q 391 1191 412 1191 q 340 1139 348 1191 l 264 1139 "},"͕":{"x_min":-96,"x_max":95,"ha":0,"o":"m 95 -162 l -96 -285 l -96 -208 l 19 -144 l -96 -81 l -96 -4 l 95 -126 l 95 -162 "},"à":{"x_min":50,"x_max":726,"ha":773,"o":"m 243 501 l 70 532 q 170 686 99 636 q 382 737 241 737 q 572 706 510 737 q 660 630 635 676 q 686 459 686 583 l 683 236 q 692 96 683 141 q 726 0 701 51 l 537 0 q 518 56 529 18 q 511 78 513 73 q 407 7 463 31 q 289 -16 352 -16 q 114 44 178 -16 q 50 196 50 104 q 79 305 50 257 q 160 378 108 353 q 312 423 213 404 q 498 470 446 448 l 498 489 q 470 567 498 544 q 368 591 443 591 q 289 571 317 591 q 243 501 260 551 m 498 346 q 382 316 461 333 q 278 283 302 299 q 241 216 241 257 q 270 147 241 176 q 346 118 300 118 q 445 151 398 118 q 490 215 479 177 q 498 308 498 239 l 498 346 m 501 814 l 382 814 l 194 1017 l 407 1017 l 501 814 "},"ﺐ":{"x_min":39,"x_max":902,"ha":902,"o":"m 902 199 l 333 199 q 224 201 251 199 q 166 215 197 204 q 74 293 110 234 q 39 423 39 351 q 41 473 39 451 q 52 525 44 495 q 78 599 64 569 q 129 680 92 629 l 167 653 q 127 567 137 599 q 117 506 117 536 q 141 436 117 467 q 206 395 166 405 q 268 386 230 389 q 348 383 306 383 l 838 383 q 806 456 819 434 q 761 522 792 482 l 822 680 q 888 547 873 607 q 902 391 902 494 l 902 199 m 637 55 l 555 -97 l 398 -11 l 479 144 l 637 55 "},"₴":{"x_min":21,"x_max":903,"ha":926,"o":"m 903 294 l 276 294 l 276 289 q 276 287 276 288 q 276 286 276 287 q 342 181 276 218 q 470 152 396 152 q 775 234 648 152 l 876 65 q 729 5 800 22 q 472 -18 632 -18 q 199 47 305 -18 q 75 277 75 124 q 75 283 75 279 l 75 294 l 21 294 l 21 441 l 122 441 q 396 585 187 528 l 21 585 l 21 732 l 654 732 q 655 746 655 736 q 593 825 655 800 q 486 845 547 845 q 222 776 343 845 l 110 913 q 484 1011 276 1011 q 731 951 634 1011 q 847 744 847 881 l 847 744 q 847 742 847 743 q 847 740 847 740 l 847 732 l 903 732 l 903 585 l 787 585 q 640 496 738 534 q 466 441 618 487 l 903 441 l 903 294 "},"̛":{"x_min":-14,"x_max":247,"ha":0,"o":"m 247 858 q 236 742 247 782 q 178 642 221 683 q -14 563 116 582 l -14 640 q 124 711 85 658 q 149 804 147 742 l 56 804 l 56 995 l 247 995 l 247 858 "},"۹":{"x_min":161,"x_max":593,"ha":780,"o":"m 593 406 l 544 203 q 469 275 498 215 q 434 401 444 325 q 424 559 424 477 q 325 543 362 543 q 207 580 254 543 q 161 675 161 618 q 225 898 161 799 q 370 998 289 998 q 457 962 433 998 q 490 874 484 924 q 497 683 497 825 q 517 504 497 556 q 593 406 533 463 m 410 745 q 328 822 397 822 q 273 805 298 822 q 248 777 248 789 q 346 737 248 737 q 410 745 377 737 "},"Ṕ":{"x_min":102,"x_max":862,"ha":926,"o":"m 102 0 l 102 995 l 423 995 q 661 980 606 995 q 804 882 746 957 q 862 688 862 807 q 828 534 862 597 q 744 436 795 472 q 640 389 693 400 q 433 375 569 375 l 303 375 l 303 0 l 102 0 m 303 827 l 303 543 l 412 543 q 570 558 530 543 q 632 607 609 574 q 655 685 655 641 q 623 775 655 740 q 543 820 591 811 q 399 827 507 827 l 303 827 m 303 1085 l 397 1288 l 610 1288 l 424 1085 l 303 1085 "},"̳":{"x_min":-218,"x_max":219,"ha":0,"o":"m 219 -275 l -218 -275 l -218 -151 l 219 -151 l 219 -275 m 219 -523 l -218 -523 l -218 -399 l 219 -399 l 219 -523 "},"ҁ":{"x_min":58,"x_max":728,"ha":773,"o":"m 728 507 l 540 474 q 409 587 520 587 q 253 373 253 587 q 411 139 253 139 q 500 155 459 139 l 500 -274 l 309 -274 l 309 -7 q 120 120 186 20 q 58 359 58 215 q 146 631 58 530 q 407 737 239 737 q 728 507 660 737 "},"ی":{"x_min":102,"x_max":798,"ha":895,"o":"m 798 528 q 790 466 798 490 q 758 402 783 442 q 727 464 740 449 q 691 479 715 479 q 590 437 654 479 q 527 367 527 396 q 552 347 527 353 q 609 343 571 343 q 629 343 619 343 q 649 343 639 343 q 747 328 723 343 q 769 278 769 315 q 741 138 769 205 q 643 17 707 53 q 475 -55 562 -27 q 313 -83 388 -83 q 102 106 102 -83 q 125 270 102 201 q 237 480 152 347 l 269 459 q 193 309 218 374 q 168 193 168 243 q 312 66 168 66 q 415 75 366 66 q 514 102 464 85 q 589 132 547 114 q 660 164 656 162 q 691 192 691 180 q 658 201 691 199 q 611 203 625 203 q 472 232 507 203 q 444 322 444 257 q 464 401 444 354 q 516 495 484 448 q 615 603 566 566 q 712 640 665 640 q 774 609 751 640 q 798 528 798 578 "},"ꜞ":{"x_min":125,"x_max":331,"ha":463,"o":"m 324 1164 l 133 1164 l 133 1355 l 324 1355 l 324 1164 m 331 634 l 125 634 l 125 799 l 174 1098 l 282 1098 l 331 799 l 331 634 "},"ﮘ":{"x_min":-47,"x_max":501,"ha":501,"o":"m 501 199 l -47 199 l -47 383 l 393 383 q 341 438 366 414 q 286 484 321 457 q 210 544 248 514 l 188 520 q 116 592 128 579 q 83 681 83 631 q 92 777 83 749 q 150 847 106 816 q 234 896 189 874 q 327 938 269 914 q 442 983 354 949 l 442 822 q 385 804 438 822 q 279 766 318 782 q 223 731 223 743 q 271 678 223 725 q 381 562 336 615 q 501 388 455 474 l 501 199 m 442 1198 l 442 1047 q 189 942 296 993 q 34 858 91 896 l 34 962 q 114 1024 57 985 q 257 1110 182 1070 q 442 1198 350 1161 m 303 83 l 235 -57 l 108 10 l 177 149 l 303 83 m 267 -31 l 393 -96 l 325 -237 l 198 -169 l 267 -31 "},"Ϣ":{"x_min":102,"x_max":1277,"ha":1377,"o":"m 1277 21 q 1249 -195 1277 -138 q 1049 -292 1202 -292 l 102 -292 l 102 -115 l 997 -115 q 1070 -66 1056 -115 q 1076 30 1076 -47 l 1076 87 q 846 -16 990 -16 q 624 102 679 -16 q 510 13 585 46 q 367 -16 440 -16 q 164 62 232 -16 q 102 260 102 133 l 102 995 l 303 995 l 303 309 q 424 130 303 130 q 556 216 513 130 q 589 374 589 280 l 589 995 l 790 995 l 790 326 q 911 130 790 130 q 1076 370 1076 130 l 1076 995 l 1277 995 l 1277 21 "},"e":{"x_min":44,"x_max":717.171875,"ha":773,"o":"m 517 229 l 707 197 q 591 38 670 92 q 393 -16 512 -16 q 115 106 205 -16 q 44 355 44 205 q 137 635 44 534 q 374 737 231 737 q 628 630 535 737 q 717 305 721 524 l 239 305 q 285 173 241 220 q 395 126 329 126 q 470 150 440 126 q 517 229 501 174 m 528 422 q 485 547 525 504 q 385 591 444 591 q 282 545 323 591 q 242 422 241 500 l 528 422 "},"Ѓ":{"x_min":104,"x_max":804,"ha":835,"o":"m 104 995 l 804 995 l 804 827 l 305 827 l 305 0 l 104 0 l 104 995 m 343 1085 l 437 1288 l 650 1288 l 464 1085 l 343 1085 "},"ò":{"x_min":56,"x_max":798,"ha":848,"o":"m 56 370 q 102 554 56 465 q 235 690 149 643 q 426 737 320 737 q 693 630 589 737 q 798 362 798 524 q 692 91 798 199 q 427 -16 587 -16 q 239 28 328 -16 q 102 160 149 73 q 56 370 56 246 m 251 360 q 301 196 251 253 q 426 139 352 139 q 551 196 501 139 q 602 361 602 253 q 551 524 602 467 q 426 582 501 582 q 301 524 352 582 q 251 360 251 467 m 552 814 l 433 814 l 245 1017 l 458 1017 l 552 814 "},"ﺞ":{"x_min":33,"x_max":782,"ha":776,"o":"m 776 199 l 670 199 q 507 233 550 199 q 464 363 464 268 q 469 445 464 406 q 480 509 471 459 q 230 385 325 473 q 133 179 133 294 q 249 -29 133 43 q 585 -103 365 -103 q 769 -91 649 -103 l 782 -113 l 524 -277 l 458 -279 q 152 -178 260 -279 q 45 108 45 -77 q 109 370 45 250 q 275 546 174 491 l 260 546 q 156 534 197 546 q 33 480 115 522 q 279 732 63 732 q 375 724 304 732 q 500 712 445 716 q 703 705 603 705 l 662 541 q 593 536 622 541 q 525 522 555 528 q 521 492 523 509 q 520 467 520 476 q 551 401 520 419 q 669 383 583 383 l 776 383 l 776 199 m 464 186 l 381 35 l 227 121 l 308 272 l 464 186 "},"к":{"x_min":92,"x_max":696,"ha":695,"o":"m 92 721 l 283 721 l 283 426 q 349 455 330 431 q 397 558 369 478 q 477 695 433 665 q 590 725 520 725 q 666 721 612 725 l 666 595 q 570 580 591 595 q 525 492 549 565 q 429 369 492 392 q 582 212 519 344 q 589 198 585 206 l 696 0 l 491 0 l 396 208 q 346 289 367 271 q 283 307 324 307 l 283 0 l 92 0 l 92 721 "},"Ȣ":{"x_min":56,"x_max":820,"ha":876,"o":"m 820 300 q 708 54 820 135 q 438 -17 611 -17 q 167 54 264 -17 q 56 300 56 135 q 108 465 56 398 q 232 542 157 528 l 232 552 q 85 750 85 606 q 194 910 85 854 q 405 956 284 956 l 405 786 q 325 766 357 786 q 291 709 291 744 q 437 621 291 621 q 587 736 587 621 q 551 815 587 786 q 467 841 519 841 l 467 1011 q 719 943 635 1011 q 793 777 793 882 q 643 552 793 618 l 643 542 q 767 465 718 528 q 820 300 820 398 m 613 305 q 438 454 613 454 q 263 305 263 454 q 438 155 263 155 q 613 305 613 155 "},"￼":{"x_min":0,"x_max":1389,"ha":1389,"o":"m 1389 780 l 1321 780 l 1321 931 l 1170 931 l 1170 999 l 1389 999 l 1389 780 m 999 931 l 780 931 l 780 999 l 999 999 l 999 931 m 1389 390 l 1321 390 l 1321 609 l 1389 609 l 1389 390 m 1208 414 q 1065 251 1208 251 q 972 281 1007 251 l 1021 335 q 1064 317 1038 317 q 1129 410 1129 317 l 1129 739 l 1208 739 l 1208 414 m 609 931 l 390 931 l 390 999 l 609 999 l 609 931 m 1389 0 l 1170 0 l 1170 68 l 1321 68 l 1321 219 l 1389 219 l 1389 0 m 965 400 q 778 259 965 259 l 616 259 l 616 739 l 775 739 q 945 612 945 739 q 884 514 945 551 q 965 400 965 483 m 219 931 l 68 931 l 68 780 l 0 780 l 0 999 l 219 999 l 219 931 m 999 0 l 780 0 l 780 68 l 999 68 l 999 0 m 579 498 q 523 316 579 381 q 363 251 467 251 q 205 316 260 251 q 151 498 151 381 q 205 681 151 616 q 363 747 260 747 q 523 681 467 747 q 579 498 579 616 m 68 390 l 0 390 l 0 609 l 68 609 l 68 390 m 609 0 l 390 0 l 390 68 l 609 68 l 609 0 m 219 0 l 0 0 l 0 219 l 68 219 l 68 68 l 219 68 l 219 0 m 866 605 q 755 673 866 673 l 695 673 l 695 541 l 763 541 q 866 605 866 541 m 886 400 q 770 475 886 475 l 695 475 l 695 325 l 778 325 q 886 400 886 325 m 500 498 q 363 681 500 681 q 230 498 230 681 q 363 317 230 317 q 500 498 500 317 "},"ṉ":{"x_min":98,"x_max":754,"ha":848,"o":"m 754 0 l 563 0 l 563 367 q 550 518 563 484 q 511 572 538 553 q 445 591 484 591 q 357 563 396 591 q 303 491 318 536 q 289 326 289 447 l 289 0 l 98 0 l 98 721 l 275 721 l 275 615 q 512 737 369 737 q 627 714 575 737 q 706 656 679 691 q 743 576 733 620 q 754 447 754 531 l 754 0 m 645 -202 l 208 -202 l 208 -77 l 645 -77 l 645 -202 "},"ᵒ":{"x_min":34,"x_max":536,"ha":570,"o":"m 536 566 q 465 383 536 456 q 285 311 395 311 q 65 429 129 311 q 34 572 34 487 q 65 697 34 638 q 155 789 98 758 q 284 820 211 820 q 465 748 394 820 q 536 566 536 677 m 404 566 q 376 668 404 628 q 285 715 345 715 q 193 668 225 715 q 166 565 166 628 q 193 462 166 502 q 285 416 225 416 q 376 462 345 416 q 404 566 404 502 "},"ѻ":{"x_min":24,"x_max":863,"ha":886,"o":"m 863 360 q 779 121 863 223 q 563 -1 696 20 q 442 -74 525 -74 q 324 -1 361 -74 q 106 123 190 20 q 24 361 24 224 q 107 600 24 498 q 324 723 190 701 q 442 796 361 796 q 563 723 525 796 q 779 599 696 701 q 863 360 863 497 m 668 360 q 628 493 668 435 q 535 566 591 547 q 442 529 496 529 q 351 566 390 529 q 259 494 295 547 q 219 361 219 436 q 259 228 219 286 q 351 156 295 174 q 442 193 390 193 q 535 156 496 193 q 628 227 591 174 q 668 360 668 285 "},"ۓ":{"x_min":48.125,"x_max":1128,"ha":1128,"o":"m 1128 129 l 956 -35 l 163 -35 q 67 -25 84 -35 q 48 7 49 -14 q 65 179 46 67 q 105 322 84 294 q 211 390 118 339 q 332 455 252 412 q 455 576 360 471 q 495 623 475 599 q 548 652 524 652 q 608 493 608 652 q 601 383 608 414 q 518 468 560 468 q 401 360 463 468 q 356 296 386 331 q 219 225 323 278 q 138 168 138 183 q 201 149 138 149 l 1128 149 l 1128 129 m 428 721 q 410 691 420 701 q 387 679 402 683 l 241 634 q 264 667 254 658 q 301 684 274 677 q 273 707 281 696 q 265 727 265 717 q 270 747 265 736 q 284 769 275 758 q 372 829 328 829 q 393 820 385 829 q 401 798 401 811 q 397 779 401 787 q 385 756 394 771 q 339 773 351 773 q 314 766 327 773 q 300 756 306 762 q 332 729 300 747 q 379 711 364 711 q 428 721 387 711 "},"ˆ":{"x_min":2,"x_max":460,"ha":463,"o":"m 2 812 l 144 1011 l 319 1011 l 460 812 l 307 812 l 228 913 l 156 812 l 2 812 "},"ū":{"x_min":96,"x_max":750,"ha":848,"o":"m 573 0 l 573 107 q 469 17 533 50 q 334 -16 405 -16 q 204 15 262 -16 q 121 105 147 47 q 96 264 96 163 l 96 721 l 287 721 l 287 390 q 297 204 287 238 q 335 149 307 169 q 405 130 363 130 q 492 156 453 130 q 544 223 530 183 q 559 417 559 262 l 559 721 l 750 721 l 750 0 l 573 0 m 205 814 l 205 939 l 642 939 l 642 814 l 205 814 "},"ﺜ":{"x_min":-47,"x_max":377,"ha":377,"o":"m 235 1084 l 167 944 l 40 1011 l 109 1150 l 235 1084 m 366 924 l 291 786 l 196 840 l 141 733 l 16 802 l 86 934 l 186 883 l 242 994 l 366 924 m 377 199 l -47 199 l -47 383 l 309 383 q 281 461 301 429 q 234 522 271 478 l 288 684 q 358 563 339 626 q 377 376 377 500 l 377 199 "},"ֺ":{"x_min":-173,"x_max":-59,"ha":0,"o":"m -116 916 q -73 898 -88 916 q -59 858 -59 880 q -67 829 -59 842 q -87 810 -74 817 q -116 802 -99 802 q -156 818 -140 802 q -173 858 -173 835 q -156 899 -173 883 q -116 916 -140 916 "},"Ν":{"x_min":102,"x_max":892,"ha":1003,"o":"m 102 0 l 102 995 l 296 995 l 706 328 l 706 995 l 892 995 l 892 0 l 691 0 l 288 653 l 288 0 l 102 0 "},"ȝ":{"x_min":50,"x_max":672,"ha":722,"o":"m 672 105 q 562 -124 672 -35 q 314 -237 477 -193 q 51 -292 270 -249 l 51 -137 q 318 -75 234 -108 q 475 98 475 -13 q 414 198 475 166 q 51 110 301 152 l 51 269 q 305 321 238 300 q 475 474 475 377 q 352 582 475 582 q 181 471 262 582 l 50 579 q 184 690 102 647 q 364 737 272 737 q 565 685 483 737 q 672 481 672 617 q 565 281 672 348 q 672 105 672 226 "},"ظ":{"x_min":-47,"x_max":727,"ha":727,"o":"m 622 926 l 540 775 l 381 857 l 463 1011 l 622 926 m 727 199 l -47 199 l -47 383 l 42 383 q 134 439 59 383 q 207 496 159 457 q 200 637 207 579 q 181 757 194 695 q 144 905 177 772 l 105 929 q 130 1031 120 1000 q 170 1129 141 1062 l 201 1116 q 198 1099 201 1112 q 265 1043 198 1075 q 333 1015 288 1032 q 311 916 326 962 q 284 844 304 893 l 260 852 q 287 709 280 755 q 295 628 295 664 l 295 620 q 293 589 295 600 q 288 554 292 578 q 359 606 323 580 q 457 668 414 645 q 544 700 514 700 q 672 658 624 700 q 727 523 727 611 l 727 199 m 632 452 q 581 497 632 476 q 493 518 531 518 q 393 489 449 518 q 231 383 337 460 l 408 383 q 632 452 632 383 "},"Ҋ":{"x_min":104,"x_max":1005,"ha":998,"o":"m 712 1236 q 647 1091 703 1144 q 500 1038 592 1038 q 353 1091 409 1038 q 289 1236 297 1144 l 382 1236 q 500 1138 391 1138 q 619 1236 609 1138 l 712 1236 m 1005 167 l 873 -217 l 706 -217 l 789 0 l 706 0 l 706 649 l 305 0 l 104 0 l 104 995 l 292 995 l 292 332 l 694 995 l 894 995 l 894 167 l 1005 167 "},"œ":{"x_min":60,"x_max":1254.03125,"ha":1311,"o":"m 1059 232 l 1245 202 q 1129 41 1211 99 q 930 -16 1048 -16 q 794 8 861 -16 q 676 84 727 32 q 560 9 623 34 q 424 -16 497 -16 q 163 89 266 -16 q 60 359 60 194 q 104 551 60 460 q 234 690 148 643 q 427 737 320 737 q 565 711 502 737 q 678 636 627 686 q 785 711 725 686 q 919 737 845 737 q 1045 713 987 737 q 1141 656 1103 690 q 1205 569 1179 621 q 1243 452 1231 517 q 1254 305 1254 386 l 779 305 q 827 173 785 217 q 931 130 868 130 q 1007 153 976 130 q 1059 232 1039 177 m 1071 424 q 1024 554 1065 512 q 922 597 983 597 q 815 542 855 597 q 781 424 787 504 l 1071 424 m 255 349 q 298 209 255 277 q 425 142 341 142 q 543 197 495 142 q 591 366 591 253 q 543 524 591 469 q 425 579 495 579 q 302 522 350 579 q 255 349 255 466 "},"֓":{"x_min":-93,"x_max":93,"ha":0,"o":"m 93 873 l -33 815 l -93 815 l 33 873 l -93 931 l 33 989 l -93 1047 l 33 1105 l 93 1105 l -33 1047 l 93 989 l -33 931 l 93 873 "},"Ὲ":{"x_min":1,"x_max":1128,"ha":1198,"o":"m 373 0 l 373 995 l 1109 995 l 1109 827 l 574 827 l 574 606 l 1072 606 l 1072 438 l 574 438 l 574 168 l 1128 168 l 1128 0 l 373 0 m 308 808 l 189 808 l 1 1011 l 214 1011 l 308 808 "},"Ɵ":{"x_min":58,"x_max":1022,"ha":1080,"o":"m 1022 495 q 903 131 1022 270 q 555 -17 776 -17 q 119 216 243 -17 q 58 490 58 332 q 177 865 58 728 q 538 1011 304 1011 q 897 866 769 1011 q 1022 495 1022 728 m 809 581 q 540 839 775 839 q 352 766 423 839 q 270 581 285 699 l 809 581 m 809 413 l 270 413 q 344 239 285 301 q 540 155 424 155 q 735 238 655 155 q 809 413 793 300 "},"ᵛ":{"x_min":0,"x_max":505,"ha":505,"o":"m 505 808 l 311 321 l 195 321 l 0 808 l 135 808 l 253 476 l 373 808 l 505 808 "},"ș":{"x_min":33,"x_max":706,"ha":773,"o":"m 33 206 l 224 235 q 273 150 236 179 q 378 122 311 122 q 489 149 452 122 q 515 199 515 168 q 501 235 515 221 q 437 261 487 249 q 144 353 206 311 q 59 515 59 412 q 133 673 59 609 q 362 737 207 737 q 582 688 510 737 q 682 546 654 640 l 502 513 q 458 577 490 555 q 365 600 425 600 q 257 578 290 600 q 236 540 236 564 q 255 505 236 519 q 433 452 280 486 q 646 367 585 417 q 706 225 706 316 q 623 55 706 126 q 378 -16 540 -16 q 145 43 231 -16 q 33 206 59 103 m 273 -77 l 475 -77 l 475 -138 q 460 -258 475 -217 q 406 -332 446 -299 q 296 -384 365 -365 l 271 -294 q 362 -201 362 -268 l 273 -201 l 273 -77 "},"ἱ":{"x_min":100,"x_max":291,"ha":386,"o":"m 100 0 l 100 721 l 291 721 l 291 0 l 100 0 m 283 876 l 250 814 q 145 886 174 845 q 117 1007 117 926 l 117 1102 l 273 1102 l 273 972 l 201 972 q 222 909 201 930 q 283 876 237 895 "},"ݕ":{"x_min":39,"x_max":902,"ha":902,"o":"m 902 199 l 333 199 q 224 201 251 199 q 166 215 197 204 q 74 293 110 234 q 39 423 39 351 q 41 473 39 451 q 52 525 44 495 q 78 599 64 569 q 129 680 92 629 l 167 653 q 127 567 137 599 q 117 506 117 536 q 141 436 117 467 q 206 395 166 405 q 268 386 230 389 q 348 383 306 383 l 838 383 q 806 456 819 434 q 761 522 792 482 l 822 680 q 888 547 873 607 q 902 391 902 494 l 902 199 m 632 -62 l 553 -62 l 507 19 l 462 -62 l 383 -62 l 475 94 l 539 94 l 632 -62 "},"Ѵ":{"x_min":-1,"x_max":1125,"ha":1132,"o":"m 1125 860 l 1030 763 q 918 837 961 835 q 849 782 869 838 l 568 0 l 354 0 l -1 995 l 216 995 l 468 259 l 678 890 q 761 986 699 954 q 873 1011 811 1011 q 1125 860 1002 1009 "},"Ȫ":{"x_min":60,"x_max":1024,"ha":1080,"o":"m 60 490 q 105 745 60 642 q 197 882 139 821 q 326 971 256 942 q 540 1011 419 1011 q 892 874 760 1011 q 1024 495 1024 738 q 893 118 1024 254 q 543 -17 762 -17 q 190 118 321 -17 q 60 490 60 253 m 267 497 q 344 242 267 329 q 543 155 422 155 q 740 241 663 155 q 817 500 817 327 q 742 755 817 671 q 543 839 667 839 q 342 754 418 839 q 267 497 267 669 m 718 1167 l 367 1167 l 367 1250 l 718 1250 l 718 1167 m 721 1014 l 626 1014 l 626 1117 l 721 1117 l 721 1014 m 459 1014 l 364 1014 l 364 1117 l 459 1117 l 459 1014 "},"ˈ":{"x_min":196,"x_max":267,"ha":463,"o":"m 267 769 l 196 769 l 196 994 l 267 994 l 267 769 "},"ɘ":{"x_min":54.859375,"x_max":728,"ha":773,"o":"m 728 355 q 656 106 728 204 q 378 -16 567 -16 q 65 197 139 -16 l 255 229 q 376 126 284 126 q 492 180 450 126 q 533 306 530 229 l 55 306 q 126 608 51 497 q 397 737 213 737 q 645 623 556 737 q 728 355 728 517 m 530 423 q 494 539 530 493 q 386 591 455 591 q 279 539 317 591 q 244 423 246 493 l 530 423 "},"ạ":{"x_min":50,"x_max":726,"ha":773,"o":"m 243 501 l 70 532 q 170 686 99 636 q 382 737 241 737 q 572 706 510 737 q 660 630 635 676 q 686 459 686 583 l 683 236 q 692 96 683 141 q 726 0 701 51 l 537 0 q 518 56 529 18 q 511 78 513 73 q 407 7 463 31 q 289 -16 352 -16 q 114 44 178 -16 q 50 196 50 104 q 79 305 50 257 q 160 378 108 353 q 312 423 213 404 q 498 470 446 448 l 498 489 q 470 567 498 544 q 368 591 443 591 q 289 571 317 591 q 243 501 260 551 m 498 346 q 382 316 461 333 q 278 283 302 299 q 241 216 241 257 q 270 147 241 176 q 346 118 300 118 q 445 151 398 118 q 490 215 479 177 q 498 308 498 239 l 498 346 m 264 -272 l 264 -81 l 455 -81 l 455 -272 l 264 -272 "},"д":{"x_min":-5,"x_max":851,"ha":882,"o":"m 696 0 l 150 0 l 150 -190 l -5 -190 l -5 156 l 73 156 q 153 325 121 210 q 192 721 185 441 l 774 721 l 774 156 l 851 156 l 851 -190 l 696 -190 l 696 0 m 585 156 l 585 564 l 355 564 q 260 156 343 265 l 585 156 "},"ӥ":{"x_min":95,"x_max":759,"ha":854,"o":"m 95 721 l 278 721 l 278 267 l 572 721 l 759 721 l 759 0 l 576 0 l 576 459 l 278 0 l 95 0 l 95 721 m 187 814 l 187 978 l 351 978 l 351 814 l 187 814 m 480 814 l 480 978 l 644 978 l 644 814 l 480 814 "},"ʛ":{"x_min":56,"x_max":955,"ha":814,"o":"m 955 858 l 929 726 q 841 737 883 737 q 777 711 794 737 q 764 643 764 690 l 764 527 l 575 489 q 535 546 564 520 q 435 580 494 580 q 300 522 350 580 q 251 364 251 464 q 297 202 251 262 q 434 141 346 141 q 573 170 511 141 l 573 245 l 445 245 l 445 399 l 764 399 l 764 96 q 634 17 715 48 q 444 -16 544 -16 q 156 89 260 -16 q 56 359 56 190 q 160 632 56 527 q 436 737 265 737 q 579 715 518 737 q 638 833 583 787 q 795 883 697 883 q 955 858 876 883 "},"۴":{"x_min":112,"x_max":655,"ha":780,"o":"m 112 796 l 193 998 q 256 899 226 932 q 337 834 281 872 q 382 975 345 924 q 467 1024 417 1024 q 543 1002 505 1024 q 629 932 582 980 l 612 908 q 568 918 592 913 q 521 924 544 924 q 437 901 468 924 q 376 813 399 875 q 428 798 409 801 q 479 795 448 795 q 567 808 536 795 q 633 862 599 822 l 655 856 q 585 665 644 735 q 434 595 525 595 q 409 595 421 595 q 376 599 397 595 q 384 538 382 563 q 387 485 387 514 q 378 360 387 418 q 345 199 370 302 l 309 199 q 291 457 309 365 q 229 628 273 549 q 112 796 197 683 "},"ﱟ":{"x_min":48,"x_max":294,"ha":0,"o":"m 294 1300 q 276 1216 294 1249 q 222 1181 256 1181 q 199 1185 210 1181 q 176 1197 188 1189 q 150 1161 163 1174 q 104 1141 128 1141 q 62 1160 76 1141 q 48 1212 48 1179 q 53 1248 48 1229 q 66 1285 56 1261 l 80 1291 q 78 1273 80 1285 q 77 1253 77 1261 q 83 1226 77 1237 q 101 1215 88 1215 q 148 1253 130 1215 q 169 1320 157 1271 l 183 1325 q 191 1283 189 1291 q 219 1262 199 1262 q 259 1295 244 1262 q 272 1354 272 1323 l 286 1359 q 291 1327 288 1342 q 294 1300 294 1312 m 284 1168 q 248 1107 284 1136 q 52 1028 188 1083 q 81 1086 52 1058 q 284 1168 138 1108 m 284 1083 q 249 1021 284 1051 q 52 942 188 996 q 81 1000 52 971 q 284 1083 138 1023 "},"כּ":{"x_min":51,"x_max":628,"ha":682,"o":"m 51 11 l 77 160 q 204 136 145 136 q 368 196 308 136 q 428 359 428 256 q 369 522 428 462 q 204 583 310 583 q 77 559 142 583 l 51 708 q 220 730 122 730 q 436 687 350 730 q 575 566 522 645 q 628 359 628 487 q 578 157 628 236 q 441 33 528 78 q 220 -11 353 -11 q 51 11 124 -11 m 221 414 q 259 399 241 414 q 278 357 278 384 q 261 316 278 332 q 221 300 244 300 q 193 306 206 300 q 172 326 180 312 q 164 357 164 339 q 180 397 164 380 q 221 414 196 414 "},"Ḙ":{"x_min":102,"x_max":857,"ha":926,"o":"m 102 0 l 102 995 l 838 995 l 838 827 l 303 827 l 303 606 l 801 606 l 801 438 l 303 438 l 303 168 l 857 168 l 857 0 l 102 0 m 674 -274 l 521 -274 l 442 -173 l 370 -274 l 216 -274 l 358 -75 l 533 -75 l 674 -274 "},"ﬢ":{"x_min":34,"x_max":933,"ha":967,"o":"m 933 556 l 821 556 l 821 0 l 630 0 l 630 556 l 34 556 l 34 720 l 933 720 l 933 556 "},"ھ":{"x_min":-47,"x_max":553,"ha":651,"o":"m 553 343 q 533 234 553 293 q 477 163 509 163 q 383 190 448 163 q 225 272 307 221 q 116 213 180 232 q 14 199 66 199 l -47 199 l -47 383 l 14 383 q 57 389 34 383 q 94 404 81 395 l 94 428 q 116 571 94 510 q 192 671 142 640 l 160 696 q 175 782 168 750 q 200 871 182 813 q 386 697 302 799 q 508 507 464 603 q 553 343 553 412 m 286 500 q 276 554 286 535 q 248 574 266 574 q 196 551 217 574 q 179 513 179 532 q 241 457 179 485 q 263 469 256 464 q 286 500 286 483 m 473 374 q 443 436 473 395 q 371 518 413 478 q 361 469 366 485 q 334 412 355 452 q 460 364 423 364 q 473 374 473 364 "},"ữ":{"x_min":96,"x_max":1006,"ha":1006,"o":"m 815 721 l 1006 721 l 1006 584 q 991 453 1006 500 q 937 368 976 405 q 751 290 877 310 l 751 0 l 574 0 l 574 107 q 335 -16 489 -16 q 121 105 176 -16 q 96 264 96 163 l 96 721 l 287 721 l 287 390 q 297 204 287 247 q 335 150 305 172 q 405 130 363 130 q 492 156 453 130 q 545 222 531 182 q 560 417 560 262 l 560 721 l 751 721 l 751 367 q 883 437 845 385 q 908 530 906 468 l 815 530 l 815 721 m 272 814 l 185 814 q 185 838 185 829 q 219 947 185 909 q 308 986 254 986 q 352 980 332 986 q 426 951 372 975 q 511 928 480 928 q 547 941 532 928 q 566 987 561 955 l 654 987 q 619 855 653 895 q 533 816 586 816 q 488 820 510 816 q 410 848 472 824 q 319 873 347 873 q 285 859 297 873 q 272 814 273 846 "},"ה":{"x_min":88,"x_max":768,"ha":853,"o":"m 768 0 l 578 0 l 578 339 q 512 522 578 471 q 315 573 447 573 q 102 555 217 573 l 88 708 q 349 728 198 728 q 601 680 512 728 q 729 562 691 633 q 768 367 768 491 l 768 0 m 287 374 l 287 0 l 96 0 l 96 374 l 287 374 "},"ʐ":{"x_min":23,"x_max":826,"ha":695,"o":"m 826 -271 q 693 -292 750 -292 q 494 -171 532 -292 q 476 0 477 -117 l 23 0 l 23 148 l 392 567 q 304 563 338 563 l 49 563 l 49 721 l 646 721 l 646 586 l 272 163 l 371 168 l 667 168 l 667 34 q 673 -72 667 -54 q 745 -115 687 -115 q 792 -108 762 -115 l 826 -271 "},"ﺓ":{"x_min":38,"x_max":422,"ha":476,"o":"m 388 990 l 313 852 l 218 906 l 163 799 l 38 868 l 108 1000 l 208 949 l 264 1060 l 388 990 m 422 452 q 415 370 422 412 q 398 302 409 328 q 305 211 379 250 q 175 175 236 175 q 91 211 122 175 q 60 309 60 248 q 75 418 60 364 q 133 553 91 472 l 109 569 q 140 645 120 600 q 175 720 159 689 l 241 680 q 324 623 285 654 q 401 544 380 581 q 422 452 422 507 m 322 398 q 274 452 322 411 q 181 522 227 493 q 138 408 138 453 q 156 370 138 386 q 199 355 174 355 q 277 370 233 355 q 322 398 322 386 "},"ὂ":{"x_min":56,"x_max":798,"ha":848,"o":"m 56 370 q 102 554 56 465 q 235 690 149 643 q 426 737 320 737 q 693 630 589 737 q 798 362 798 524 q 692 91 798 199 q 427 -16 587 -16 q 239 28 328 -16 q 102 160 149 73 q 56 370 56 246 m 251 360 q 301 196 251 253 q 426 139 352 139 q 551 196 501 139 q 602 361 602 253 q 551 524 602 467 q 426 582 501 582 q 301 524 352 582 q 251 360 251 467 m 668 899 l 549 899 l 361 1102 l 574 1102 l 668 899 m 342 1007 q 313 886 342 926 q 208 814 284 845 l 176 876 q 236 909 221 895 q 257 972 257 930 l 186 972 l 186 1102 l 342 1102 l 342 1007 "},"ׄ":{"x_min":175,"x_max":288,"ha":0,"o":"m 288 872 q 262 824 288 841 q 231 816 248 816 q 192 833 209 816 q 175 872 175 850 q 191 912 175 896 q 231 929 207 929 q 288 872 288 929 "},"î":{"x_min":-25,"x_max":433,"ha":386,"o":"m 100 0 l 100 721 l 291 721 l 291 0 l 100 0 m -25 814 l 117 1013 l 292 1013 l 433 814 l 280 814 l 201 915 l 129 814 l -25 814 "},"ύ":{"x_min":80,"x_max":728,"ha":808,"o":"m 80 721 l 271 721 l 271 351 q 308 179 271 219 q 404 139 345 139 q 504 185 472 139 q 537 351 537 232 l 537 721 l 728 721 l 728 382 q 696 156 728 237 q 587 30 664 76 q 406 -16 511 -16 q 217 32 294 -16 q 110 160 140 80 q 80 382 80 240 l 80 721 m 296 814 l 390 1017 l 603 1017 l 417 814 l 296 814 "},"۞":{"x_min":34,"x_max":1473,"ha":1506,"o":"m 1473 508 l 1263 297 l 1263 0 l 964 0 l 753 -211 l 542 0 l 245 0 l 245 297 l 34 508 l 245 719 l 245 1018 l 542 1018 l 753 1229 l 964 1018 l 1263 1018 l 1263 719 l 1473 508 m 296 247 l 296 51 l 492 51 l 296 247 m 492 967 l 296 967 l 296 771 l 492 967 m 1212 771 l 1212 967 l 1015 967 l 1212 771 m 1212 51 l 1212 247 l 1015 51 l 1212 51 m 614 0 l 753 -139 l 892 0 l 614 0 m 245 647 l 105 508 l 245 369 l 245 647 m 892 1018 l 753 1157 l 614 1018 l 892 1018 m 1212 698 l 943 967 l 564 967 l 296 698 l 296 319 l 564 51 l 943 51 l 1212 319 l 1212 698 m 1401 508 l 1263 647 l 1263 369 l 1401 508 m 901 508 q 857 404 901 447 q 753 361 814 361 q 649 404 692 361 q 606 508 606 447 q 649 612 606 569 q 753 656 692 656 q 857 612 814 656 q 901 508 901 569 m 850 508 q 821 576 850 548 q 753 605 793 605 q 684 576 712 605 q 656 508 656 548 q 684 440 656 468 q 753 412 712 412 q 821 440 793 412 q 850 508 850 468 "},"ϰ":{"x_min":13,"x_max":926,"ha":939,"o":"m 926 -3 q 829 -16 879 -16 q 644 60 713 -16 q 580 236 580 131 l 580 341 l 279 0 l 13 0 l 168 169 l 168 432 q 161 527 168 503 q 93 582 146 582 q 36 572 72 582 l 13 724 q 109 737 59 737 q 294 660 225 737 q 359 486 359 590 l 359 379 l 664 721 l 926 721 l 771 554 l 771 288 q 777 193 771 217 q 845 139 792 139 q 902 148 866 139 l 926 -3 "},"ڟ":{"x_min":-47,"x_max":727,"ha":727,"o":"m 727 199 l -47 199 l -47 383 l 42 383 q 134 439 59 383 q 207 496 159 457 q 200 637 207 579 q 181 757 194 695 q 144 905 177 772 l 105 929 q 130 1031 120 1000 q 170 1129 141 1062 l 201 1116 q 198 1099 201 1112 q 265 1043 198 1075 q 333 1015 288 1032 q 311 916 326 962 q 284 844 304 893 l 260 852 q 287 709 280 755 q 295 628 295 664 l 295 620 q 293 589 295 600 q 288 554 292 578 q 359 606 323 580 q 457 668 414 645 q 544 700 514 700 q 672 658 624 700 q 727 523 727 611 l 727 199 m 632 452 q 581 497 632 476 q 493 518 531 518 q 393 489 449 518 q 231 383 337 460 l 408 383 q 632 452 632 383 m 596 1127 l 528 987 l 401 1054 l 470 1193 l 596 1127 m 727 967 l 652 828 l 557 883 l 502 775 l 377 845 l 447 976 l 547 926 l 603 1036 l 727 967 "},"ڑ":{"x_min":7,"x_max":601,"ha":601,"o":"m 601 183 q 553 73 601 141 q 442 -44 506 5 q 321 -100 371 -100 q 193 -66 261 -100 q 7 49 133 -37 l 35 92 q 133 37 96 51 q 214 23 171 23 q 308 49 261 23 q 435 147 354 75 q 548 302 548 247 q 526 373 548 329 q 467 456 502 423 l 504 640 q 575 530 550 592 q 601 390 601 469 l 601 183 m 578 720 l 209 720 l 209 808 l 252 808 q 295 834 260 808 q 330 861 310 845 q 317 985 330 930 q 300 1056 317 988 l 281 1067 q 312 1163 291 1115 l 327 1156 q 326 1148 326 1152 q 358 1121 326 1137 q 390 1108 365 1118 q 379 1061 386 1082 q 366 1027 376 1051 l 355 1031 q 372 924 372 953 l 372 920 q 368 889 372 906 q 449 944 395 909 q 490 959 476 959 q 578 874 578 959 l 578 720 m 533 840 q 508 867 533 859 q 467 872 494 872 q 341 808 426 872 l 426 808 q 533 840 533 808 "},"ɓ":{"x_min":92,"x_max":794,"ha":848,"o":"m 794 367 q 723 106 794 211 q 493 -16 642 -16 q 269 106 356 -16 l 269 0 l 92 0 l 92 775 q 111 909 92 864 q 314 1011 155 1011 q 474 986 395 1011 l 448 854 q 360 865 402 865 q 297 840 314 865 q 283 771 283 820 l 283 636 q 491 737 370 737 q 722 624 641 737 q 794 367 794 524 m 599 358 q 440 591 599 591 q 315 521 357 591 q 282 376 282 465 q 317 210 282 264 q 447 135 366 135 q 568 210 528 135 q 599 358 599 269 "},"ﭽ":{"x_min":-47,"x_max":727,"ha":727,"o":"m 727 199 l -47 199 l -47 383 l 434 383 q 283 504 352 467 q 162 538 221 538 q 130 536 144 538 q 88 529 115 534 q 171 654 125 614 q 275 695 216 695 q 361 673 319 695 q 453 603 402 651 q 569 485 494 565 q 646 411 619 428 q 727 383 673 394 l 727 199 m 519 79 l 448 -52 l 348 -1 l 291 -112 l 168 -42 l 242 96 l 339 41 l 393 149 l 519 79 m 495 -129 l 425 -268 l 300 -202 l 367 -62 l 495 -129 "},"ﭞ":{"x_min":39,"x_max":902,"ha":902,"o":"m 902 199 l 333 199 q 224 201 251 199 q 166 215 197 204 q 74 293 110 234 q 39 423 39 351 q 41 473 39 451 q 52 525 44 495 q 78 599 64 569 q 129 680 92 629 l 167 653 q 127 567 137 599 q 117 506 117 536 q 141 436 117 467 q 206 395 166 405 q 268 386 230 389 q 348 383 306 383 l 838 383 q 806 456 819 434 q 761 522 792 482 l 822 680 q 888 547 873 607 q 902 391 902 494 l 902 199 m 512 999 l 444 859 l 317 926 l 386 1065 l 512 999 m 476 885 l 602 819 l 534 679 l 407 746 l 476 885 "},"ǫ":{"x_min":56,"x_max":798,"ha":848,"o":"m 56 370 q 102 554 56 465 q 235 690 149 643 q 426 737 320 737 q 693 630 589 737 q 798 362 798 524 q 692 91 798 199 q 427 -16 587 -16 q 239 28 328 -16 q 102 160 149 73 q 56 370 56 246 m 251 360 q 301 196 251 253 q 426 139 352 139 q 551 196 501 139 q 602 361 602 253 q 551 524 602 467 q 426 582 501 582 q 301 524 352 582 q 251 360 251 467 m 531 0 q 508 -21 519 -9 q 490 -48 498 -34 q 479 -77 483 -62 q 475 -105 475 -91 q 486 -142 475 -127 q 526 -158 498 -158 q 554 -153 538 -158 q 583 -145 569 -149 l 583 -258 q 480 -286 525 -286 q 414 -275 442 -286 q 368 -248 386 -265 q 340 -207 349 -230 q 331 -157 331 -183 q 354 -75 331 -117 q 418 0 378 -32 l 531 0 "},"₠":{"x_min":7,"x_max":766,"ha":773,"o":"m 766 0 l 324 0 l 324 308 q 87 406 173 308 q 7 651 7 499 q 88 907 7 811 q 333 1011 175 1011 q 613 807 554 1011 l 473 774 q 326 891 446 891 q 152 661 152 891 q 183 496 152 551 q 324 425 223 425 l 324 698 l 752 698 l 752 579 l 465 579 l 465 425 l 727 425 l 727 308 l 465 308 l 465 118 l 766 118 l 766 0 "},"ﯧ":{"x_min":-47,"x_max":377,"ha":377,"o":"m 377 199 l -47 199 l -47 383 l 309 383 q 281 461 301 429 q 234 522 271 478 l 288 684 q 358 563 339 626 q 377 376 377 500 l 377 199 m 241 83 l 173 -57 l 46 10 l 115 149 l 241 83 m 205 -31 l 331 -96 l 263 -237 l 136 -169 l 205 -31 "},"ﭷ":{"x_min":33,"x_max":782,"ha":776,"o":"m 776 199 l 670 199 q 507 233 550 199 q 464 363 464 268 q 469 445 464 406 q 480 509 471 459 q 230 385 325 473 q 133 179 133 294 q 249 -29 133 43 q 585 -103 365 -103 q 769 -91 649 -103 l 782 -113 l 524 -277 l 458 -279 q 152 -178 260 -279 q 45 108 45 -77 q 109 370 45 250 q 275 546 174 491 l 260 546 q 156 534 197 546 q 33 480 115 522 q 279 732 63 732 q 375 724 304 732 q 500 712 445 716 q 703 705 603 705 l 662 541 q 593 536 622 541 q 525 522 555 528 q 521 492 523 509 q 520 467 520 476 q 551 401 520 419 q 669 383 583 383 l 776 383 l 776 199 m 529 188 l 458 57 l 359 107 l 302 -3 l 179 66 l 253 205 l 349 150 l 403 258 l 529 188 "},"↨":{"x_min":103.09375,"x_max":590.734375,"ha":695,"o":"m 331 992 l 362 992 q 441 866 392 928 q 590 716 490 804 l 590 661 q 379 794 474 708 l 379 -91 q 590 40 474 -6 l 590 -13 q 441 -163 490 -101 q 362 -289 392 -225 l 331 -289 q 252 -163 302 -225 q 103 -13 203 -101 l 103 40 q 314 -91 219 -6 l 314 794 q 103 661 219 708 l 103 716 q 252 866 203 804 q 331 992 302 928 m 104 -354 l 590 -354 l 590 -420 l 104 -420 l 104 -354 "},"Ξ":{"x_min":69,"x_max":825,"ha":894,"o":"m 88 995 l 806 995 l 806 827 l 88 827 l 88 995 m 125 608 l 769 608 l 769 440 l 125 440 l 125 608 m 69 168 l 825 168 l 825 0 l 69 0 l 69 168 "},"ٻ":{"x_min":39,"x_max":902,"ha":902,"o":"m 902 199 l 333 199 q 224 201 251 199 q 166 215 197 204 q 74 293 110 234 q 39 423 39 351 q 41 473 39 451 q 52 525 44 495 q 78 599 64 569 q 129 680 92 629 l 167 653 q 127 567 137 599 q 117 506 117 536 q 141 436 117 467 q 206 395 166 405 q 268 386 230 389 q 348 383 306 383 l 838 383 q 806 456 819 434 q 761 522 792 482 l 822 680 q 888 547 873 607 q 902 391 902 494 l 902 199 m 579 83 l 511 -57 l 384 10 l 453 149 l 579 83 m 543 -31 l 669 -96 l 601 -237 l 474 -169 l 543 -31 "},"Ԃ":{"x_min":64,"x_max":1351,"ha":1431,"o":"m 1351 381 q 1029 -16 1351 -16 q 757 97 848 -16 q 659 31 705 48 q 423 0 578 0 q 64 295 64 0 q 171 526 64 447 q 423 597 265 597 l 692 597 l 692 995 l 893 995 l 893 351 q 913 208 893 254 q 1026 139 943 139 q 1139 208 1109 139 q 1160 351 1160 255 l 1160 603 l 1351 603 l 1351 381 m 692 336 l 692 430 l 487 430 q 343 410 391 430 q 271 297 271 379 q 348 183 271 211 q 496 167 393 167 q 692 336 692 167 "},"ŵ":{"x_min":6,"x_max":1080,"ha":1081,"o":"m 234 0 l 6 721 l 191 721 l 326 248 l 450 721 l 634 721 l 754 248 l 892 721 l 1080 721 l 848 0 l 665 0 l 541 463 l 419 0 l 234 0 m 312 814 l 454 1013 l 629 1013 l 770 814 l 617 814 l 538 915 l 466 814 l 312 814 "},"ڤ":{"x_min":32,"x_max":1053,"ha":1053,"o":"m 1053 199 l 962 199 q 692 193 843 199 q 456 183 601 190 q 300 177 311 177 q 91 227 156 177 q 32 374 32 275 q 46 509 32 452 q 116 696 61 567 l 161 675 q 112 506 112 559 q 166 405 112 436 q 377 372 227 372 q 579 382 481 378 q 767 387 677 387 q 729 417 740 400 q 719 465 719 433 q 778 658 719 562 q 918 762 842 762 q 1023 661 991 762 q 1053 383 1053 571 l 1053 199 m 947 470 q 907 557 923 536 q 866 578 891 578 q 843 568 853 578 q 834 542 834 558 q 863 503 834 521 q 947 470 892 485 m 887 1145 l 819 1005 l 692 1072 l 761 1211 l 887 1145 m 1018 985 l 943 846 l 848 901 l 793 793 l 668 863 l 738 994 l 838 944 l 894 1054 l 1018 985 "},"ᾚ":{"x_min":-9,"x_max":1304,"ha":1410,"o":"m 509 0 l 509 995 l 710 995 l 710 603 l 1103 603 l 1103 995 l 1304 995 l 1304 0 l 1103 0 l 1103 435 l 710 435 l 710 0 l 509 0 m 483 808 l 364 808 l 176 1011 l 389 1011 l 483 808 m 157 916 q 128 795 157 835 q 23 723 99 754 l -9 785 q 51 818 36 804 q 72 881 72 839 l 1 881 l 1 1011 l 157 1011 l 157 916 m 1002 -276 l 811 -276 l 845 -86 l 967 -86 l 1002 -276 "},"╠":{"x_min":303.84375,"x_max":999.703125,"ha":984,"o":"m 303 -421 l 303 1264 l 422 1264 l 422 -421 l 303 -421 m 561 491 l 561 1264 l 680 1264 l 680 609 l 999 609 l 999 491 l 561 491 m 561 -421 l 561 352 l 999 352 l 999 233 l 680 233 l 680 -421 l 561 -421 "},"№":{"x_min":111,"x_max":1490,"ha":1548,"o":"m 111 995 l 308 995 l 698 338 l 698 995 l 888 995 l 888 0 l 683 0 l 299 638 l 299 0 l 111 0 l 111 995 m 952 537 q 1027 739 952 664 q 1219 814 1103 814 q 1414 733 1338 814 q 1490 532 1490 653 q 1459 397 1490 456 q 1372 298 1428 338 q 1225 259 1315 259 q 1024 339 1097 259 q 952 537 952 420 m 1136 519 q 1157 423 1136 455 q 1220 391 1178 391 q 1286 431 1264 391 q 1308 551 1308 471 q 1287 650 1308 617 q 1227 684 1267 684 q 1159 642 1182 684 q 1136 519 1136 601 m 976 194 l 1462 194 l 1462 44 l 976 44 l 976 194 "},"ẏ":{"x_min":10,"x_max":751,"ha":773,"o":"m 10 721 l 213 721 l 385 209 l 554 721 l 751 721 l 496 26 l 451 -98 q 403 -194 426 -161 q 351 -248 380 -227 q 278 -280 321 -268 q 180 -292 235 -292 q 73 -280 125 -292 l 56 -131 q 136 -140 100 -140 q 235 -101 203 -140 q 284 -2 267 -62 l 10 721 m 287 814 l 287 994 l 474 994 l 474 814 l 287 814 "},"ƫ":{"x_min":21,"x_max":446,"ha":463,"o":"m 446 12 q 412 -203 446 -140 q 227 -292 365 -292 q 95 -271 171 -292 l 128 -108 q 175 -115 158 -115 q 255 -14 254 -115 q 126 78 156 -2 q 109 254 109 126 l 109 569 l 21 569 l 21 721 l 109 721 l 109 864 l 300 976 l 300 721 l 430 721 l 430 569 l 300 569 l 300 278 q 304 192 300 213 q 352 142 314 142 q 446 160 396 142 l 446 12 "},"ί":{"x_min":91,"x_max":398,"ha":386,"o":"m 100 0 l 100 721 l 291 721 l 291 0 l 100 0 m 91 814 l 185 1017 l 398 1017 l 212 814 l 91 814 "},"ᶖ":{"x_min":100,"x_max":502,"ha":386,"o":"m 502 -279 q 406 -292 455 -292 q 259 -224 304 -292 q 225 -39 225 -171 l 225 0 l 100 0 l 100 721 l 291 721 l 291 105 l 347 105 l 347 -36 q 353 -132 347 -109 q 421 -185 368 -185 q 478 -175 442 -185 l 502 -279 m 291 819 l 100 819 l 100 995 l 291 995 l 291 819 "},"5":{"x_min":62,"x_max":731,"ha":773,"o":"m 62 256 l 252 276 q 300 173 260 211 q 392 136 340 136 q 493 184 452 136 q 535 331 535 233 q 493 469 535 423 q 387 515 452 515 q 239 442 305 515 l 85 464 l 183 982 l 687 982 l 687 804 l 327 804 l 297 635 q 427 667 361 667 q 642 574 554 667 q 731 334 731 482 q 659 114 731 211 q 390 -17 562 -17 q 165 57 252 -17 q 62 256 78 131 "},"̆":{"x_min":-212,"x_max":211,"ha":0,"o":"m 211 1012 q 146 867 202 920 q 0 814 91 814 q -147 867 -91 814 q -212 1012 -203 920 l -119 1012 q 0 914 -109 914 q 118 1012 108 914 l 211 1012 "},"₩":{"x_min":5,"x_max":1310,"ha":1311,"o":"m 1310 225 l 1123 225 l 1068 0 l 855 0 l 795 225 l 519 225 l 460 0 l 242 0 l 188 225 l 5 225 l 5 401 l 146 401 l 103 581 l 5 581 l 5 756 l 62 756 l 5 995 l 210 995 l 262 756 l 478 756 l 542 995 l 780 995 l 840 756 l 1055 756 l 1107 995 l 1310 995 l 1252 756 l 1310 756 l 1310 581 l 1209 581 l 1165 401 l 1310 401 l 1310 225 m 1017 581 l 884 581 l 930 401 l 977 401 l 1017 581 m 748 401 l 700 581 l 614 581 l 566 401 l 748 401 m 432 581 l 301 581 l 340 401 l 384 401 l 432 581 "},"▓":{"x_min":-0.671875,"x_max":1013.265625,"ha":1013,"o":"m 1013 1010 l 1013 756 l 929 756 l 929 672 l 1013 672 l 1013 419 l 929 419 l 929 334 l 1013 334 l 1013 80 l 929 80 l 929 -3 l 1013 -3 l 1013 -257 l 929 -257 l 929 -341 l 1013 -341 l 1013 -425 l 0 -425 l 0 -172 l 84 -172 l 84 -88 l 0 -88 l 0 165 l 84 165 l 84 250 l 0 250 l 0 503 l 84 503 l 84 588 l 0 588 l 0 841 l 84 841 l 84 926 l 0 926 l 0 1179 l 84 1179 l 84 1264 l 168 1264 l 168 1179 l 252 1179 l 252 1264 l 337 1264 l 337 1179 l 421 1179 l 421 1264 l 506 1264 l 506 1179 l 590 1179 l 590 1264 l 675 1264 l 675 1179 l 760 1179 l 760 1264 l 844 1264 l 844 1179 l 929 1179 l 929 1264 l 1013 1264 l 1013 1095 l 929 1095 l 929 1010 l 1013 1010 m 84 1095 l 84 1010 l 168 1010 l 168 1095 l 84 1095 m 252 1095 l 252 1010 l 337 1010 l 337 1095 l 252 1095 m 421 1095 l 421 1010 l 506 1010 l 506 1095 l 421 1095 m 590 1095 l 590 1010 l 675 1010 l 675 1095 l 590 1095 m 760 1095 l 760 1010 l 844 1010 l 844 1095 l 760 1095 m 929 926 l 844 926 l 844 841 l 929 841 l 929 926 m 760 926 l 675 926 l 675 841 l 760 841 l 760 926 m 590 926 l 506 926 l 506 841 l 590 841 l 590 926 m 421 926 l 337 926 l 337 841 l 421 841 l 421 926 m 252 926 l 168 926 l 168 841 l 252 841 l 252 926 m 84 756 l 84 672 l 168 672 l 168 756 l 84 756 m 252 756 l 252 672 l 337 672 l 337 756 l 252 756 m 421 756 l 421 672 l 506 672 l 506 756 l 421 756 m 590 756 l 590 672 l 675 672 l 675 756 l 590 756 m 760 756 l 760 672 l 844 672 l 844 756 l 760 756 m 252 588 l 168 588 l 168 503 l 252 503 l 252 588 m 337 588 l 337 503 l 421 503 l 421 588 l 337 588 m 506 588 l 506 503 l 590 503 l 590 588 l 506 588 m 675 588 l 675 503 l 760 503 l 760 588 l 675 588 m 844 588 l 844 503 l 929 503 l 929 588 l 844 588 m 84 419 l 84 334 l 168 334 l 168 419 l 84 419 m 421 419 l 421 334 l 506 334 l 506 419 l 421 419 m 337 334 l 337 419 l 252 419 l 252 334 l 337 334 m 590 419 l 590 334 l 675 334 l 675 419 l 590 419 m 760 419 l 760 334 l 844 334 l 844 419 l 760 419 m 929 165 l 929 250 l 844 250 l 844 165 l 929 165 m 760 165 l 760 250 l 675 250 l 675 165 l 760 165 m 590 165 l 590 250 l 506 250 l 506 165 l 590 165 m 421 165 l 421 250 l 337 250 l 337 165 l 421 165 m 252 165 l 252 250 l 168 250 l 168 165 l 252 165 m 84 80 l 84 -3 l 168 -3 l 168 80 l 84 80 m 252 80 l 252 -3 l 337 -3 l 337 80 l 252 80 m 421 80 l 421 -3 l 506 -3 l 506 80 l 421 80 m 590 80 l 590 -3 l 675 -3 l 675 80 l 590 80 m 760 80 l 760 -3 l 844 -3 l 844 80 l 760 80 m 929 -172 l 929 -88 l 844 -88 l 844 -172 l 929 -172 m 760 -172 l 760 -88 l 675 -88 l 675 -172 l 760 -172 m 590 -172 l 590 -88 l 506 -88 l 506 -172 l 590 -172 m 421 -172 l 421 -88 l 337 -88 l 337 -172 l 421 -172 m 252 -172 l 252 -88 l 168 -88 l 168 -172 l 252 -172 m 84 -257 l 84 -341 l 168 -341 l 168 -257 l 84 -257 m 252 -257 l 252 -341 l 337 -341 l 337 -257 l 252 -257 m 421 -257 l 421 -341 l 506 -341 l 506 -257 l 421 -257 m 590 -257 l 590 -341 l 675 -341 l 675 -257 l 590 -257 m 760 -257 l 760 -341 l 844 -341 l 844 -257 l 760 -257 "},"᷀":{"x_min":-248,"x_max":247,"ha":0,"o":"m -131 808 l -248 808 l -248 938 l -131 938 l -131 808 m 144 808 l 25 808 l -190 1079 l 23 1079 l 144 808 m 247 939 l 130 939 l 130 1069 l 247 1069 l 247 939 "},"□":{"x_min":99.015625,"x_max":739.265625,"ha":839,"o":"m 99 640 l 739 640 l 739 0 l 99 0 l 99 640 m 150 588 l 150 51 l 687 51 l 687 588 l 150 588 "},"ῳ":{"x_min":54,"x_max":1121,"ha":1172,"o":"m 156 721 l 338 721 q 249 341 249 535 q 288 182 249 229 q 382 135 328 135 q 447 158 419 135 q 483 214 475 181 q 492 318 492 248 l 492 537 l 683 537 l 683 318 q 690 216 683 251 q 727 158 698 181 q 792 135 756 135 q 887 184 849 135 q 926 348 926 234 q 902 529 926 425 q 837 721 879 633 l 1019 721 q 1088 548 1056 657 q 1121 347 1121 438 q 1036 86 1121 188 q 816 -16 952 -16 q 587 135 652 -16 q 358 -16 522 -16 q 137 86 221 -16 q 54 347 54 188 q 86 548 54 438 q 156 721 118 657 m 680 -276 l 489 -276 l 523 -86 l 645 -86 l 680 -276 "},"ˬ":{"x_min":2,"x_max":460,"ha":463,"o":"m 460 -75 l 319 -274 l 144 -274 l 2 -75 l 156 -75 l 228 -176 l 307 -75 l 460 -75 "},"ﭨ":{"x_min":-47,"x_max":377,"ha":377,"o":"m 377 199 l -47 199 l -47 383 l 309 383 q 281 461 301 429 q 234 522 271 478 l 288 684 q 358 563 339 626 q 377 376 377 500 l 377 199 m 377 720 l 8 720 l 8 808 l 51 808 q 94 834 59 808 q 129 861 109 845 q 116 985 129 930 q 99 1056 116 988 l 80 1067 q 111 1163 90 1115 l 126 1156 q 125 1148 125 1152 q 157 1121 125 1137 q 189 1108 164 1118 q 178 1061 185 1082 q 165 1027 175 1051 l 154 1031 q 171 924 171 953 l 171 920 q 167 889 171 906 q 248 944 194 909 q 289 959 275 959 q 377 874 377 959 l 377 720 m 332 840 q 307 867 332 859 q 266 872 293 872 q 140 808 225 872 l 225 808 q 332 840 332 808 "},"Ϲ":{"x_min":66,"x_max":932,"ha":1003,"o":"m 737 367 l 932 305 q 783 62 887 141 q 519 -17 679 -17 q 193 118 320 -17 q 66 488 66 253 q 194 873 66 736 q 531 1011 322 1011 q 827 902 713 1011 q 929 719 895 838 l 730 672 q 656 794 712 749 q 520 839 600 839 q 341 759 410 839 q 273 503 273 680 q 340 234 273 314 q 516 155 408 155 q 654 206 596 155 q 737 367 711 257 "},"Ӳ":{"x_min":-0.5,"x_max":864.5,"ha":864,"o":"m 0 995 l 225 995 l 456 479 l 654 995 l 864 995 l 528 239 q 416 52 473 116 q 269 -12 359 -12 q 130 0 180 -12 l 130 148 q 207 146 172 146 q 307 171 277 146 q 365 281 337 197 l 0 995 m 229 1085 l 324 1288 l 524 1288 l 348 1085 l 229 1085 m 485 1085 l 580 1288 l 774 1288 l 607 1085 l 485 1085 "},"͉":{"x_min":-128,"x_max":109,"ha":0,"o":"m 109 -276 l 38 -276 l 38 -122 l -128 -122 l -128 -51 l 109 -51 l 109 -276 "},"Ú":{"x_min":100,"x_max":892,"ha":1003,"o":"m 100 995 l 301 995 l 301 456 q 308 290 301 328 q 369 191 321 228 q 501 155 417 155 q 630 189 586 155 q 682 275 673 224 q 691 444 691 326 l 691 995 l 892 995 l 892 472 q 875 219 892 293 q 815 94 859 145 q 698 13 772 43 q 507 -17 625 -17 q 292 15 365 -17 q 175 101 218 48 q 119 211 133 154 q 100 464 100 297 l 100 995 m 381 1085 l 475 1288 l 688 1288 l 502 1085 l 381 1085 "},"ἠ":{"x_min":96,"x_max":753,"ha":848,"o":"m 753 -274 l 562 -274 l 562 367 q 554 503 562 464 q 517 566 546 542 q 444 591 488 591 q 350 560 390 591 q 298 482 310 529 q 287 326 287 434 l 287 0 l 96 0 l 96 721 l 273 721 l 273 615 q 511 737 367 737 q 652 701 594 737 q 731 609 710 665 q 753 447 753 553 l 753 -274 m 517 1007 q 488 886 517 926 q 383 814 459 845 l 351 876 q 411 909 396 895 q 432 972 432 930 l 361 972 l 361 1102 l 517 1102 l 517 1007 "},"Ẇ":{"x_min":5,"x_max":1310,"ha":1311,"o":"m 240 0 l 5 995 l 211 995 l 360 311 l 541 995 l 780 995 l 955 300 l 1107 995 l 1310 995 l 1069 0 l 854 0 l 657 743 l 460 0 l 240 0 m 567 1085 l 567 1265 l 754 1265 l 754 1085 l 567 1085 "},"چ":{"x_min":35,"x_max":781,"ha":802,"o":"m 781 -121 l 519 -282 q 163 -189 277 -282 q 47 108 47 -94 q 102 356 47 248 q 279 549 158 463 q 136 525 198 549 q 35 480 114 516 q 274 732 67 732 q 377 725 306 732 q 502 714 448 718 q 706 708 605 708 l 665 541 q 268 415 405 508 q 132 179 132 323 q 244 -28 132 43 q 567 -100 356 -100 q 670 -94 573 -100 q 767 -91 723 -91 l 781 -121 m 600 330 l 529 199 l 430 249 l 373 139 l 250 208 l 324 347 l 420 292 l 474 400 l 600 330 m 576 121 l 506 -17 l 381 48 l 448 189 l 576 121 "},"Ý":{"x_min":-2.5,"x_max":928.5,"ha":927,"o":"m 362 0 l 362 418 l -2 995 l 232 995 l 467 600 l 697 995 l 928 995 l 563 417 l 563 0 l 362 0 m 358 1085 l 452 1288 l 665 1288 l 479 1085 l 358 1085 "},"╪":{"x_min":-15.59375,"x_max":999.015625,"ha":984,"o":"m 432 233 l -15 233 l -15 352 l 432 352 l 432 491 l -15 491 l -15 609 l 432 609 l 432 1264 l 550 1264 l 550 609 l 999 609 l 999 491 l 550 491 l 550 352 l 999 352 l 999 233 l 550 233 l 550 -421 l 432 -421 l 432 233 "},"ᴰ":{"x_min":34,"x_max":597,"ha":631,"o":"m 597 651 q 504 389 597 479 q 289 321 433 321 l 34 321 l 34 995 l 281 995 q 409 982 365 995 q 574 810 527 947 q 597 651 597 744 m 457 656 q 404 841 457 792 q 341 873 381 864 q 230 880 311 880 l 170 880 l 170 434 l 271 434 q 353 440 326 434 q 443 533 420 457 q 457 656 457 578 "},"ᴞ":{"x_min":55,"x_max":1009,"ha":1066,"o":"m 1009 263 q 887 49 1009 104 q 728 24 830 24 l 273 24 l 273 215 l 603 215 q 730 215 720 215 q 842 263 814 223 q 863 334 863 292 q 837 420 863 380 q 770 474 811 459 q 576 489 729 489 l 273 489 l 273 680 l 993 680 l 993 503 l 884 503 q 1009 263 1009 418 m 219 413 l 55 413 l 55 577 l 219 577 l 219 413 m 219 121 l 55 121 l 55 285 l 219 285 l 219 121 "},"ᶏ":{"x_min":50,"x_max":888,"ha":773,"o":"m 498 308 l 498 346 q 382 318 485 341 q 278 283 300 299 q 241 216 241 257 q 272 145 241 173 q 346 118 303 118 q 445 151 399 118 q 490 215 479 177 q 498 308 498 240 m 888 -279 q 792 -292 841 -292 q 645 -224 690 -292 q 611 -39 611 -171 l 611 0 l 537 0 q 519 56 529 20 q 512 78 514 74 q 289 -16 415 -16 q 121 38 187 -16 q 50 196 50 96 q 161 379 50 325 q 312 423 213 404 q 498 470 447 448 l 498 489 q 462 573 498 550 q 368 591 435 591 q 288 570 316 591 q 243 501 260 550 l 70 532 q 183 694 101 646 q 381 737 255 737 q 659 630 601 737 q 683 471 683 588 l 683 223 q 690 105 683 149 l 733 105 l 733 -36 q 739 -132 733 -109 q 807 -185 754 -185 q 864 -175 828 -185 l 888 -279 "},"Ɗ":{"x_min":20,"x_max":1094,"ha":1163,"o":"m 1094 488 q 957 100 1094 233 q 816 21 904 49 q 638 0 750 0 l 261 0 l 261 827 q 193 815 212 827 q 167 752 167 799 q 177 664 167 710 l 44 639 q 20 798 20 716 q 260 995 20 995 l 627 995 q 816 976 752 995 q 1061 723 992 924 q 1094 488 1094 627 m 887 497 q 809 770 887 697 q 716 817 773 805 q 552 827 674 827 l 462 827 l 462 168 l 611 168 q 733 177 695 168 q 823 227 792 192 q 887 497 887 300 "},"Ҵ":{"x_min":30,"x_max":1147,"ha":1184,"o":"m 1147 -217 l 980 -217 l 980 0 l 274 0 l 274 827 l 30 827 l 30 995 l 719 995 l 719 827 l 475 827 l 475 167 l 863 167 l 863 995 l 1064 995 l 1064 167 l 1147 167 l 1147 -217 "},"ŀ":{"x_min":100,"x_max":572,"ha":665,"o":"m 100 0 l 100 995 l 291 995 l 291 0 l 100 0 m 381 442 l 381 633 l 572 633 l 572 442 l 381 442 "},"῾":{"x_min":149,"x_max":315,"ha":463,"o":"m 315 785 l 282 723 q 177 795 206 754 q 149 916 149 835 l 149 1011 l 305 1011 l 305 881 l 233 881 q 254 818 233 839 q 315 785 269 804 "},"ﻣ":{"x_min":-47,"x_max":576,"ha":576,"o":"m 576 200 q 408 227 504 200 q 259 284 323 251 q 162 207 220 226 q 86 199 135 199 l -47 199 l -47 383 l 86 383 q 183 397 147 383 q 247 464 229 417 q 346 606 285 550 q 436 656 399 656 q 522 551 471 656 q 576 347 576 440 l 576 200 m 449 404 q 419 456 449 419 q 363 497 387 497 q 319 435 337 497 q 372 415 354 422 q 434 395 427 395 q 449 404 449 395 "},"ẅ":{"x_min":6,"x_max":1080,"ha":1081,"o":"m 234 0 l 6 721 l 191 721 l 326 248 l 450 721 l 634 721 l 754 248 l 892 721 l 1080 721 l 848 0 l 665 0 l 541 463 l 419 0 l 234 0 m 313 814 l 313 978 l 477 978 l 477 814 l 313 814 m 606 814 l 606 978 l 770 978 l 770 814 l 606 814 "},"ǡ":{"x_min":50,"x_max":726,"ha":773,"o":"m 243 501 l 70 532 q 170 686 99 636 q 382 737 241 737 q 572 706 510 737 q 660 630 635 676 q 686 459 686 583 l 683 236 q 692 96 683 141 q 726 0 701 51 l 537 0 q 518 56 529 18 q 511 78 513 73 q 407 7 463 31 q 289 -16 352 -16 q 114 44 178 -16 q 50 196 50 104 q 79 305 50 257 q 160 378 108 353 q 312 423 213 404 q 498 470 446 448 l 498 489 q 470 567 498 544 q 368 591 443 591 q 289 571 317 591 q 243 501 260 551 m 498 346 q 382 316 461 333 q 278 283 302 299 q 241 216 241 257 q 270 147 241 176 q 346 118 300 118 q 445 151 398 118 q 490 215 479 177 q 498 308 498 239 l 498 346 m 291 814 l 291 994 l 478 994 l 478 814 l 291 814 m 165 1078 l 165 1203 l 602 1203 l 602 1078 l 165 1078 "},"ﮆ":{"x_min":71,"x_max":476,"ha":476,"o":"m 476 199 l 168 199 q 100 217 123 199 q 71 293 71 240 q 74 357 71 322 q 83 427 77 391 l 109 428 q 133 393 114 404 q 178 383 151 383 l 412 383 q 357 495 396 448 q 269 560 325 538 l 317 772 q 442 622 405 719 q 476 416 476 540 l 476 199 m 303 1168 l 235 1028 l 108 1095 l 177 1234 l 303 1168 m 434 1008 l 359 869 l 264 924 l 209 816 l 84 886 l 154 1017 l 254 967 l 310 1077 l 434 1008 "},"ᵥ":{"x_min":0,"x_max":505,"ha":505,"o":"m 505 410 l 311 -77 l 195 -77 l 0 410 l 135 410 l 253 78 l 373 410 l 505 410 "},"К":{"x_min":104,"x_max":836,"ha":848,"o":"m 104 995 l 305 995 l 305 571 q 396 605 372 577 q 469 760 419 633 q 595 960 531 921 q 796 1000 657 1000 q 826 1001 803 1000 l 826 852 l 797 852 q 707 837 735 852 q 660 791 678 822 q 608 662 643 759 q 568 576 590 611 q 493 511 547 542 q 604 435 560 492 q 700 272 647 377 l 836 0 l 599 0 l 480 256 q 468 277 477 261 q 443 324 465 282 q 380 416 405 397 q 305 435 355 434 l 305 0 l 104 0 l 104 995 "},"ʣ":{"x_min":57,"x_max":1404,"ha":1432,"o":"m 1404 0 l 584 0 l 584 106 q 358 -16 496 -16 q 129 105 213 -16 q 57 363 57 211 q 127 622 57 522 q 361 737 208 737 q 570 636 481 737 l 570 995 l 761 995 l 761 721 l 1383 721 l 1383 586 l 1010 163 l 1108 168 l 1404 168 l 1404 0 m 1129 567 q 1041 563 1075 563 l 761 563 l 761 148 l 1129 567 m 571 357 q 411 591 571 591 q 286 521 329 591 q 252 376 252 464 q 283 209 252 261 q 412 135 330 135 q 537 209 494 135 q 571 357 571 269 "},"ΰ":{"x_min":80,"x_max":728,"ha":808,"o":"m 80 721 l 271 721 l 271 351 q 308 179 271 219 q 404 139 345 139 q 504 185 472 139 q 537 351 537 232 l 537 721 l 728 721 l 728 382 q 696 156 728 237 q 587 30 664 76 q 406 -16 511 -16 q 217 32 294 -16 q 110 160 140 80 q 80 382 80 240 l 80 721 m 176 814 l 176 978 l 340 978 l 340 814 l 176 814 m 469 814 l 469 978 l 633 978 l 633 814 l 469 814 m 301 1054 l 395 1257 l 608 1257 l 422 1054 l 301 1054 "},"ᵜ":{"x_min":7,"x_max":566,"ha":572,"o":"m 566 354 q 404 311 483 311 q 301 362 338 311 l 286 383 l 271 362 q 168 311 234 311 q 7 354 89 311 l 35 455 q 123 416 85 416 q 177 451 150 416 l 205 486 l 139 571 q 102 671 102 620 q 160 782 102 741 q 286 820 212 820 q 412 782 360 820 q 470 671 470 741 q 433 571 470 620 l 367 486 l 395 451 q 450 416 422 416 q 537 455 487 416 l 566 354 "},"ﮡ":{"x_min":42,"x_max":751,"ha":751,"o":"m 751 231 q 732 81 751 138 q 672 -9 714 25 q 550 -65 631 -43 q 384 -88 470 -88 q 131 -28 220 -88 q 42 142 42 31 q 70 314 42 236 q 192 538 101 400 l 233 509 q 145 343 166 395 q 125 237 125 292 q 201 121 125 166 q 401 76 277 76 q 606 122 523 76 q 690 237 690 169 q 675 320 690 279 q 613 452 660 361 l 672 636 q 730 517 719 549 q 751 367 751 458 l 751 231 m 591 666 l 222 666 l 222 754 l 265 754 q 308 780 273 754 q 343 807 323 791 q 330 931 343 876 q 313 1002 330 934 l 294 1013 q 325 1109 304 1061 l 340 1102 q 339 1094 339 1098 q 371 1067 339 1083 q 403 1054 378 1064 q 392 1007 399 1028 q 379 973 389 997 l 368 977 q 385 870 385 899 l 385 866 q 381 835 385 852 q 462 890 408 855 q 503 905 489 905 q 591 820 591 905 l 591 666 m 546 786 q 521 813 546 805 q 480 818 507 818 q 354 754 439 818 l 439 754 q 546 786 546 754 "},"ﯓ":{"x_min":28,"x_max":751,"ha":751,"o":"m 518 704 q 464 563 518 614 q 315 513 411 513 q 273 514 289 513 q 221 523 257 515 l 229 566 l 241 566 q 365 584 308 566 q 422 628 422 603 q 415 641 422 637 q 388 647 408 644 q 323 704 323 647 q 338 794 323 744 q 384 895 354 844 q 422 941 403 926 q 481 969 442 956 q 479 911 480 942 q 479 856 479 879 q 417 827 442 845 q 396 799 396 811 q 442 779 396 785 q 501 762 484 779 q 518 704 518 745 m 751 199 l 296 199 q 85 249 149 199 q 28 387 28 293 q 47 511 28 450 q 113 656 66 572 l 154 627 q 119 549 127 575 q 112 496 112 524 q 160 407 112 431 q 343 383 208 383 l 668 383 l 587 843 l 544 871 q 556 952 544 911 q 609 1075 571 1003 l 640 1058 q 637 1037 640 1054 q 666 993 637 1014 q 746 951 691 974 q 728 866 739 908 q 701 793 716 825 l 677 802 l 751 383 l 751 199 m 398 1169 l 359 1104 l 271 1128 l 307 1194 l 398 1169 m 517 1135 l 478 1070 l 390 1094 l 426 1160 l 517 1135 m 370 1076 l 331 1011 l 243 1035 l 279 1101 l 370 1076 "},"⅞":{"x_min":32,"x_max":1127,"ha":1158,"o":"m 306 -37 l 198 -37 l 786 1006 l 894 1006 l 306 -37 m 32 892 l 32 998 l 433 998 l 433 915 q 291 724 346 842 q 236 508 236 606 l 236 493 l 111 493 q 159 709 113 609 q 254 866 206 808 l 275 892 l 32 892 m 806 247 q 739 350 739 280 q 786 445 739 406 q 923 485 834 485 q 1058 447 1008 485 q 1108 348 1108 409 q 1043 247 1108 286 q 1127 123 1127 207 q 1072 8 1127 53 q 928 -37 1017 -37 q 783 5 841 -37 q 725 122 725 48 q 806 247 725 203 m 862 341 q 923 292 862 292 q 986 341 986 292 q 924 391 986 391 q 862 341 862 391 m 852 130 q 873 76 852 95 q 927 57 894 57 q 978 75 958 57 q 999 127 999 93 q 925 197 999 197 q 870 176 889 197 q 852 130 852 156 "},"₣":{"x_min":0,"x_max":704,"ha":773,"o":"m 103 123 l 0 123 l 0 276 l 103 276 l 103 994 l 704 994 l 704 826 l 303 826 l 303 591 l 638 591 l 638 423 l 303 423 l 303 276 l 473 276 l 473 123 l 303 123 l 303 0 l 103 0 l 103 123 "},"Ṯ":{"x_min":31,"x_max":821,"ha":849,"o":"m 326 0 l 326 827 l 31 827 l 31 995 l 821 995 l 821 827 l 527 827 l 527 0 l 326 0 m 643 -202 l 206 -202 l 206 -77 l 643 -77 l 643 -202 "},"ǈ":{"x_min":106,"x_max":1134,"ha":1234,"o":"m 106 0 l 106 986 l 307 986 l 307 168 l 806 168 l 806 0 l 106 0 m 943 819 l 943 995 l 1134 995 l 1134 819 l 943 819 m 1134 721 l 1134 22 q 1116 -171 1134 -114 q 1046 -260 1098 -228 q 916 -292 995 -292 q 854 -286 887 -292 q 784 -271 821 -281 l 817 -108 q 842 -113 831 -111 q 864 -115 854 -115 q 912 -102 893 -115 q 936 -72 930 -89 q 943 33 943 -54 l 943 721 l 1134 721 "},"ﮰ":{"x_min":48.125,"x_max":1128,"ha":1128,"o":"m 1128 129 l 956 -35 l 163 -35 q 67 -25 84 -35 q 48 7 49 -14 q 65 179 46 67 q 105 322 84 294 q 211 390 118 339 q 332 455 252 412 q 455 576 360 471 q 495 623 475 599 q 548 652 524 652 q 608 493 608 652 q 601 383 608 414 q 518 468 560 468 q 401 360 463 468 q 356 296 386 331 q 219 225 323 278 q 138 168 138 183 q 201 149 138 149 l 1128 149 l 1128 129 m 428 721 q 410 691 420 701 q 387 679 402 683 l 241 634 q 264 667 254 658 q 301 684 274 677 q 273 707 281 696 q 265 727 265 717 q 270 747 265 736 q 284 769 275 758 q 372 829 328 829 q 393 820 385 829 q 401 798 401 811 q 397 779 401 787 q 385 756 394 771 q 339 773 351 773 q 314 766 327 773 q 300 756 306 762 q 332 729 300 747 q 379 711 364 711 q 428 721 387 711 "},"♯":{"x_min":33,"x_max":664,"ha":695,"o":"m 664 282 l 528 221 l 528 0 l 470 0 l 470 195 l 227 86 l 227 -142 l 169 -142 l 169 60 l 33 0 l 33 114 l 169 174 l 169 509 l 33 449 l 33 563 l 169 623 l 169 845 l 227 845 l 227 649 l 470 758 l 470 994 l 528 994 l 528 784 l 664 845 l 664 731 l 528 670 l 528 335 l 664 396 l 664 282 m 470 309 l 470 644 l 227 535 l 227 200 l 470 309 "},"ῤ":{"x_min":79,"x_max":806,"ha":859,"o":"m 270 44 l 270 -274 l 79 -274 l 79 293 q 110 536 79 446 q 224 681 142 626 q 425 737 307 737 q 702 624 599 737 q 806 353 806 511 q 706 91 806 199 q 462 -16 607 -16 q 270 44 367 -16 m 270 338 q 315 194 270 249 q 439 139 361 139 q 563 200 515 139 q 611 361 611 261 q 567 522 611 463 q 441 582 523 582 q 319 528 369 582 q 270 338 270 475 m 503 1007 q 474 886 503 926 q 369 814 445 845 l 337 876 q 397 909 382 895 q 418 972 418 930 l 347 972 l 347 1102 l 503 1102 l 503 1007 "},"ͼ":{"x_min":58,"x_max":738,"ha":773,"o":"m 505 278 l 313 278 l 313 469 l 505 469 l 505 278 m 738 244 q 404 -16 678 -16 q 145 90 238 -16 q 58 359 58 191 q 146 631 58 531 q 407 737 238 737 q 728 507 660 737 l 540 474 q 409 587 520 587 q 253 373 253 587 q 412 139 253 139 q 551 276 525 139 l 738 244 "},"˵":{"x_min":-39,"x_max":506,"ha":463,"o":"m 506 121 l 387 121 l 211 324 l 411 324 l 506 121 m 250 121 l 128 121 l -39 324 l 155 324 l 250 121 "},"Њ":{"x_min":106,"x_max":1407,"ha":1476,"o":"m 778 603 l 1047 603 q 1227 574 1153 603 q 1354 472 1301 546 q 1407 296 1407 399 q 1356 123 1407 193 q 1238 26 1305 52 q 1046 0 1172 0 l 577 0 l 577 435 l 307 435 l 307 0 l 106 0 l 106 995 l 307 995 l 307 603 l 577 603 l 577 995 l 778 995 l 778 603 m 778 167 l 974 167 q 1105 176 1069 167 q 1171 218 1142 185 q 1200 300 1200 252 q 1151 402 1200 369 q 982 435 1102 435 l 778 435 l 778 167 "},"ϧ":{"x_min":7,"x_max":799,"ha":840,"o":"m 799 651 q 716 543 759 593 q 755 361 755 462 q 672 86 755 184 q 420 -16 585 -16 q 282 24 349 -16 q 205 65 215 65 q 168 43 182 65 q 157 0 157 23 l 7 0 q 57 151 7 91 q 185 211 107 211 q 305 172 239 211 q 410 134 372 134 q 560 347 560 134 q 557 389 560 370 q 321 302 437 302 q 146 354 211 302 q 82 495 82 406 q 170 679 82 616 q 389 737 252 737 q 611 671 519 737 q 692 781 652 722 l 799 651 m 489 542 q 380 582 445 582 q 293 561 334 582 q 252 515 252 541 q 333 467 252 467 q 489 542 400 467 "},"<":{"x_min":64,"x_max":746,"ha":811,"o":"m 746 113 l 64 409 l 64 573 l 746 869 l 746 676 l 270 493 l 746 305 l 746 113 "},"Ἁ":{"x_min":0,"x_max":998,"ha":1003,"o":"m 998 0 l 779 0 l 693 226 l 295 226 l 212 0 l 0 0 l 387 995 l 599 995 l 998 0 m 628 394 l 491 763 l 356 394 l 628 394 m 248 785 l 215 723 q 110 795 139 754 q 82 916 82 835 l 82 1011 l 238 1011 l 238 881 l 166 881 q 187 818 166 839 q 248 785 202 804 "},"ӽ":{"x_min":8,"x_max":756,"ha":773,"o":"m 756 -98 q 695 -242 756 -189 q 551 -292 638 -292 q 418 -271 495 -292 l 452 -122 q 499 -129 482 -129 q 570 -81 570 -129 q 513 26 570 -56 l 380 211 l 231 0 l 8 0 l 267 370 l 19 721 l 253 721 l 382 532 l 514 721 l 738 721 l 492 371 l 665 121 q 756 -98 756 -13 "},"̼":{"x_min":-222,"x_max":221,"ha":0,"o":"m 221 -190 l 169 -190 q 103 -145 157 -145 q 46 -174 68 -145 q 26 -238 26 -201 l -27 -238 q -47 -175 -27 -201 q -104 -145 -69 -145 q -170 -190 -159 -145 l -222 -190 q -105 -85 -203 -85 q 0 -144 -24 -85 q 104 -85 23 -85 q 221 -190 202 -85 "},"t":{"x_min":21,"x_max":445,"ha":463,"o":"m 429 721 l 429 569 l 299 569 l 299 278 q 302 175 299 190 q 319 151 306 161 q 351 142 332 142 q 428 160 378 142 l 445 12 q 294 -16 378 -16 q 201 1 242 -16 q 140 46 160 18 q 114 120 121 73 q 108 254 108 153 l 108 569 l 21 569 l 21 721 l 108 721 l 108 864 l 299 976 l 299 721 l 429 721 "},"̮":{"x_min":-212,"x_max":211,"ha":0,"o":"m 211 -76 q 146 -220 202 -167 q 0 -274 91 -274 q -147 -220 -91 -274 q -212 -76 -203 -167 l -119 -76 q 0 -174 -109 -174 q 118 -76 108 -174 l 211 -76 "},"ù":{"x_min":96,"x_max":750,"ha":848,"o":"m 573 0 l 573 107 q 469 17 533 50 q 334 -16 405 -16 q 204 15 262 -16 q 121 105 147 47 q 96 264 96 163 l 96 721 l 287 721 l 287 390 q 297 204 287 238 q 335 149 307 169 q 405 130 363 130 q 492 156 453 130 q 544 223 530 183 q 559 417 559 262 l 559 721 l 750 721 l 750 0 l 573 0 m 545 814 l 426 814 l 238 1017 l 451 1017 l 545 814 "},"ὰ":{"x_min":54,"x_max":808,"ha":854,"o":"m 645 721 l 808 721 q 743 519 769 642 q 718 348 718 397 q 741 183 718 285 q 801 0 765 81 l 641 0 q 628 37 637 13 q 604 119 614 78 q 366 -16 521 -16 q 137 102 221 -16 q 54 378 54 220 q 137 632 54 528 q 368 737 220 737 q 605 596 515 737 q 645 721 617 646 m 249 358 q 291 197 249 259 q 401 135 333 135 q 507 189 466 135 q 549 358 549 244 q 504 528 549 470 q 398 586 460 586 q 291 526 333 586 q 249 358 249 466 m 488 814 l 369 814 l 181 1017 l 394 1017 l 488 814 "},"﴾":{"x_min":86,"x_max":380,"ha":443,"o":"m 380 -260 l 350 -291 q 245 -153 279 -206 q 136 71 175 -46 q 86 403 86 226 q 136 725 86 573 q 245 952 175 845 q 349 1091 281 1008 l 380 1062 q 268 742 306 901 q 228 409 228 573 q 251 111 228 243 q 308 -96 270 5 q 380 -260 327 -147 "},"Ҩ":{"x_min":40,"x_max":985,"ha":1003,"o":"m 635 216 q 706 433 706 287 q 645 671 706 671 q 591 601 613 671 q 569 433 569 532 q 635 216 569 283 m 985 20 q 820 -19 902 -19 q 642 16 725 -19 q 470 -19 565 -19 q 126 147 236 -19 q 40 496 40 278 q 122 845 40 709 q 427 1011 223 1011 q 574 971 495 1011 l 506 821 q 428 839 466 839 q 277 704 326 839 q 243 496 243 611 q 284 288 243 380 q 469 155 344 155 q 389 433 389 270 q 451 723 389 616 q 645 839 519 839 q 886 433 886 839 q 803 155 886 280 q 819 155 811 155 q 930 190 877 155 l 985 20 "},"˝":{"x_min":65,"x_max":610,"ha":463,"o":"m 65 811 l 160 1014 l 360 1014 l 184 811 l 65 811 m 321 811 l 416 1014 l 610 1014 l 443 811 l 321 811 "},"רּ":{"x_min":27,"x_max":639,"ha":724,"o":"m 639 0 l 449 0 l 449 354 q 391 519 449 469 q 209 569 334 569 q 41 556 146 569 l 27 706 q 252 728 124 728 q 542 647 445 728 q 639 388 639 566 l 639 0 m 242 401 q 280 386 262 401 q 299 344 299 371 q 282 303 299 319 q 242 287 265 287 q 214 293 227 287 q 193 313 201 299 q 185 344 185 326 q 201 384 185 367 q 242 401 217 401 "},"ҡ":{"x_min":27,"x_max":866,"ha":865,"o":"m 866 0 l 661 0 l 566 208 q 526 279 541 262 q 453 307 500 307 l 453 0 l 262 0 l 262 567 l 27 567 l 27 721 l 453 721 l 453 426 q 530 470 505 432 q 567 558 543 488 q 633 682 598 648 q 760 725 676 725 q 836 721 782 725 l 836 595 q 740 579 761 595 q 695 492 718 563 q 599 369 662 392 q 697 301 655 353 q 759 198 719 273 l 866 0 "}}}
